<?xml version="1.0" encoding="utf-8"?>
<!-- Generator: Adobe Illustrator 22.0.1, SVG Export Plug-In . SVG Version: 6.00 Build 0)  -->
<svg version="1.1" id="Layer_1" xmlns="http://www.w3.org/2000/svg" xmlns:xlink="http://www.w3.org/1999/xlink" x="0px" y="0px"
	 viewBox="0 0 788.2 225.2" style="enable-background:new 0 0 788.2 225.2;" xml:space="preserve">
<style type="text/css">
	.st0{fill:#1C1A16;}
	.st1{fill:#FFFFFF;}
</style>
<path class="st0" d="M788.2,202.8c0,12.5-10.1,22.4-22.6,22.4H22.1C9.5,225.2,0,215.6,0,203.1v-181C0,9.5,9.5,0,22.1,0h743.5
	c12.6,0,22.5,9.5,22.5,22.1v181L788.2,202.8z"/>
<path class="st1" d="M172.6,111.3c-0.2-19.1,15.6-28.4,16.4-28.8c-8.9-13.1-22.8-14.8-27.7-15c-11.7-1.2-23,7-28.9,7
	c-6.1,0-15.2-6.9-25.1-6.7c-12.7,0.2-24.5,7.5-31,18.9c-13.4,23.2-3.4,57.4,9.4,76.2c6.4,9.2,14,19.5,23.8,19.1
	c9.6-0.4,13.2-6.1,24.8-6.1c11.5,0,14.9,6.1,24.9,5.9c10.3-0.2,16.8-9.2,23-18.5c7.4-10.5,10.4-20.9,10.5-21.5
	C192.6,141.8,172.8,134.2,172.6,111.3"/>
<path class="st1" d="M153.6,55.1c5.2-6.5,8.7-15.3,7.7-24.2c-7.5,0.3-16.9,5.2-22.3,11.5c-4.8,5.6-9.1,14.7-7.9,23.3
	C139.6,66.4,148.2,61.5,153.6,55.1"/>
<path class="st1" d="M311.9,180.8h-13.4l-7.4-23.2h-25.6l-7,23.2h-13.1l25.4-78.9h15.7L311.9,180.8z M288.9,147.9l-6.7-20.6
	c-0.7-2.1-2-7.1-4-14.8H278c-0.8,3.4-2,8.3-3.8,14.8l-6.6,20.6H288.9z"/>
<path class="st1" d="M377.2,151.6c0,9.7-2.6,17.3-7.8,22.9c-4.7,5-10.5,7.5-17.4,7.5c-7.5,0-12.9-2.7-16.2-8.1h-0.2v29.9h-12.6
	v-61.3c0-6.1-0.2-12.3-0.5-18.7h11.1l0.7,9h0.2c4.2-6.8,10.6-10.2,19.2-10.2c6.7,0,12.3,2.7,16.8,8C375,136,377.2,143,377.2,151.6
	 M364.4,152.1c0-5.5-1.2-10.1-3.7-13.7c-2.7-3.7-6.4-5.6-11-5.6c-3.1,0-6,1-8.5,3.1c-2.5,2.1-4.2,4.8-5,8.1
	c-0.4,1.6-0.6,2.8-0.6,3.8v9.5c0,4.1,1.3,7.6,3.8,10.5c2.5,2.9,5.8,4.3,9.9,4.3c4.8,0,8.5-1.8,11.1-5.5
	C363,162.9,364.4,158.1,364.4,152.1"/>
<path class="st1" d="M442.6,151.6c0,9.7-2.6,17.3-7.8,22.9c-4.7,5-10.5,7.5-17.4,7.5c-7.5,0-12.9-2.7-16.1-8.1H401v29.9h-12.6v-61.3
	c0-6.1-0.2-12.3-0.5-18.7H399l0.7,9h0.2c4.2-6.8,10.6-10.2,19.2-10.2c6.7,0,12.3,2.7,16.8,8C440.4,136,442.6,143,442.6,151.6
	 M429.8,152.1c0-5.5-1.2-10.1-3.8-13.7c-2.7-3.7-6.4-5.6-11-5.6c-3.1,0-6,1-8.5,3.1c-2.5,2.1-4.2,4.8-5,8.1
	c-0.4,1.6-0.6,2.8-0.6,3.8v9.5c0,4.1,1.3,7.6,3.8,10.5c2.5,2.9,5.8,4.3,9.9,4.3c4.8,0,8.5-1.8,11.1-5.5
	C428.4,162.9,429.8,158.1,429.8,152.1"/>
<path class="st1" d="M515.7,158.6c0,6.7-2.3,12.2-7,16.4c-5.1,4.6-12.3,6.9-21.5,6.9c-8.5,0-15.3-1.6-20.4-4.9l2.9-10.5
	c5.6,3.4,11.6,5,18.3,5c4.8,0,8.5-1.1,11.1-3.2c2.6-2.2,4-5,4-8.6c0-3.2-1.1-5.9-3.3-8.1c-2.2-2.2-5.8-4.2-10.9-6.1
	c-13.8-5.2-20.7-12.7-20.7-22.6c0-6.5,2.4-11.8,7.3-15.9c4.8-4.1,11.3-6.2,19.3-6.2c7.2,0,13.1,1.3,17.9,3.7l-3.2,10.3
	c-4.4-2.4-9.5-3.6-15.1-3.6c-4.4,0-7.9,1.1-10.4,3.3c-2.1,1.9-3.2,4.3-3.2,7.1c0,3.1,1.2,5.7,3.6,7.7c2.1,1.9,5.9,3.9,11.5,6.1
	c6.8,2.7,11.8,5.9,15,9.6C514.1,148.6,515.7,153.2,515.7,158.6"/>
<path class="st1" d="M557.5,133.4h-13.9V161c0,7,2.5,10.5,7.4,10.5c2.2,0,4.1-0.2,5.6-0.6l0.3,9.6c-2.5,0.9-5.8,1.4-9.8,1.4
	c-5,0-8.9-1.5-11.7-4.6c-2.8-3-4.2-8.2-4.2-15.3v-28.7h-8.3v-9.5h8.3v-10.4l12.4-3.8v14.2h13.9V133.4z"/>
<path class="st1" d="M620.3,151.9c0,8.7-2.5,15.9-7.5,21.5c-5.2,5.8-12.2,8.7-20.8,8.7c-8.4,0-15-2.8-19.9-8.3
	c-5-5.5-7.4-12.5-7.4-20.9c0-8.8,2.5-16,7.7-21.6c5.1-5.6,12-8.4,20.6-8.4c8.3,0,15.1,2.8,20.1,8.3
	C617.9,136.4,620.3,143.3,620.3,151.9 M607.2,152.3c0-5.2-1.1-9.7-3.4-13.5c-2.6-4.5-6.4-6.8-11.3-6.8c-5.1,0-8.9,2.3-11.6,6.8
	c-2.3,3.8-3.4,8.3-3.4,13.7c0,5.2,1.1,9.7,3.4,13.5c2.7,4.5,6.5,6.8,11.5,6.8c4.8,0,8.6-2.3,11.3-6.9
	C606.1,162,607.2,157.5,607.2,152.3"/>
<path class="st1" d="M661.4,135c-1.2-0.2-2.6-0.3-4-0.3c-4.4,0-7.9,1.7-10.3,5c-2.1,3-3.2,6.7-3.2,11.2v29.8h-12.6l0.1-39
	c0-6.6-0.2-12.5-0.5-17.9h11l0.5,10.9h0.3c1.3-3.7,3.4-6.8,6.3-9c2.8-2,5.9-3,9.1-3c1.2,0,2.2,0.1,3.2,0.2V135z"/>
<path class="st1" d="M717.9,149.6c0,2.3-0.2,4.2-0.5,5.7h-37.9c0.1,5.6,2,9.9,5.5,12.9c3.2,2.7,7.3,4,12.4,4
	c5.6,0,10.7-0.9,15.3-2.7l2,8.8c-5.4,2.3-11.7,3.5-19.1,3.5c-8.8,0-15.7-2.6-20.8-7.8c-5-5.2-7.5-12.2-7.5-20.9
	c0-8.6,2.3-15.7,7-21.4c4.9-6.1,11.5-9.1,19.9-9.1c8.2,0,14.4,3,18.6,9.1C716.2,136.6,717.9,142.5,717.9,149.6 M705.8,146.3
	c0.1-3.7-0.7-7-2.4-9.7c-2.2-3.5-5.6-5.3-10.1-5.3c-4.1,0-7.5,1.7-10.1,5.2c-2.1,2.7-3.4,6-3.7,9.8H705.8z"/>
<path class="st1" d="M284.2,53.4c0,7-2.1,12.2-6.3,15.7c-3.9,3.3-9.4,4.9-16.5,4.9c-3.5,0-6.6-0.2-9.1-0.5V35.5
	c3.3-0.5,6.9-0.8,10.7-0.8c6.8,0,11.9,1.5,15.4,4.4C282.3,42.4,284.2,47.2,284.2,53.4 M277.7,53.6c0-4.5-1.2-8-3.6-10.4
	c-2.4-2.4-5.9-3.6-10.5-3.6c-2,0-3.6,0.1-5,0.4v29c0.8,0.1,2.2,0.2,4.2,0.2c4.8,0,8.4-1.3,11-4C276.4,62.5,277.7,58.6,277.7,53.6"/>
<path class="st1" d="M318.9,59.5c0,4.3-1.2,7.8-3.7,10.6c-2.6,2.8-6,4.3-10.2,4.3c-4.1,0-7.4-1.4-9.8-4.1c-2.4-2.7-3.6-6.1-3.6-10.3
	c0-4.3,1.3-7.9,3.8-10.6c2.5-2.8,5.9-4.1,10.1-4.1c4.1,0,7.4,1.4,9.9,4.1C317.7,51.9,318.9,55.3,318.9,59.5 M312.5,59.7
	c0-2.6-0.6-4.8-1.7-6.6c-1.3-2.2-3.2-3.3-5.6-3.3c-2.5,0-4.4,1.1-5.7,3.3c-1.1,1.8-1.7,4.1-1.7,6.7c0,2.6,0.6,4.8,1.7,6.6
	c1.3,2.2,3.2,3.3,5.6,3.3c2.4,0,4.2-1.1,5.6-3.4C311.9,64.5,312.5,62.3,312.5,59.7"/>
<path class="st1" d="M365.5,45.7l-8.8,27.9h-5.7l-3.6-12.1c-0.9-3-1.7-6-2.2-9h-0.1c-0.5,3.1-1.3,6.1-2.3,9L339,73.7h-5.8L325,45.7
	h6.4l3.2,13.3c0.8,3.1,1.4,6.1,1.9,9h0.1c0.5-2.3,1.2-5.3,2.3-8.9l4-13.3h5.1l3.8,13c0.9,3.2,1.7,6.3,2.2,9.2h0.2
	c0.4-2.9,1.1-5.9,1.9-9.2l3.4-13H365.5z"/>
<path class="st1" d="M397.7,73.7h-6.2v-16c0-4.9-1.9-7.4-5.6-7.4c-1.8,0-3.3,0.7-4.5,2c-1.1,1.4-1.7,3-1.7,4.8v16.6h-6.2V53.7
	c0-2.5-0.1-5.1-0.2-8h5.5l0.3,4.4h0.2c0.7-1.4,1.8-2.5,3.2-3.4c1.7-1,3.6-1.6,5.6-1.6c2.6,0,4.8,0.9,6.5,2.5
	c2.1,2.1,3.2,5.2,3.2,9.3V73.7z"/>
<rect x="408.6" y="32.9" class="st1" width="6.2" height="40.8"/>
<path class="st1" d="M451.4,59.5c0,4.3-1.2,7.8-3.7,10.6c-2.6,2.8-6,4.3-10.2,4.3c-4.1,0-7.4-1.4-9.8-4.1c-2.4-2.7-3.6-6.1-3.6-10.3
	c0-4.3,1.2-7.9,3.8-10.6c2.5-2.8,5.9-4.1,10.2-4.1c4.1,0,7.4,1.4,9.9,4.1C450.2,51.9,451.4,55.3,451.4,59.5 M444.9,59.7
	c0-2.6-0.6-4.8-1.7-6.6c-1.3-2.2-3.2-3.3-5.6-3.3c-2.5,0-4.4,1.1-5.7,3.3c-1.1,1.8-1.7,4.1-1.7,6.7c0,2.6,0.6,4.8,1.7,6.6
	c1.3,2.2,3.2,3.3,5.6,3.3c2.4,0,4.2-1.1,5.6-3.4C444.3,64.5,444.9,62.3,444.9,59.7"/>
<path class="st1" d="M481.4,73.7h-5.6l-0.5-3.2h-0.2c-1.9,2.6-4.6,3.8-8.2,3.8c-2.7,0-4.8-0.8-6.4-2.5c-1.5-1.5-2.2-3.4-2.2-5.7
	c0-3.4,1.4-6,4.3-7.8c2.8-1.8,6.9-2.7,12-2.6v-0.5c0-3.7-1.9-5.5-5.8-5.5c-2.8,0-5.2,0.7-7.3,2.1l-1.3-4.1c2.6-1.6,5.8-2.4,9.6-2.4
	c7.3,0,11,3.8,11,11.6V67C481,69.8,481.2,72,481.4,73.7 M475,64.1v-4.3c-6.9-0.1-10.3,1.8-10.3,5.6c0,1.5,0.4,2.5,1.2,3.3
	c0.8,0.7,1.8,1.1,3,1.1c1.4,0,2.6-0.4,3.8-1.3c1.2-0.9,1.9-2,2.1-3.3C474.9,64.9,475,64.5,475,64.1"/>
<path class="st1" d="M516.7,73.7h-5.5l-0.3-4.5h-0.2c-1.8,3.4-4.8,5.1-9,5.1c-3.4,0-6.2-1.3-8.4-4c-2.2-2.6-3.3-6.1-3.3-10.3
	c0-4.5,1.2-8.2,3.6-11c2.3-2.6,5.2-3.9,8.6-3.9c3.8,0,6.4,1.3,7.9,3.8h0.1v-16h6.2v33.2C516.5,68.9,516.6,71.4,516.7,73.7
	 M510.3,61.9v-4.7c0-0.8-0.1-1.5-0.2-2c-0.3-1.5-1.1-2.8-2.3-3.8c-1.2-1-2.5-1.5-4.2-1.5c-2.3,0-4.1,0.9-5.4,2.8
	c-1.3,1.8-2,4.2-2,7.1c0,2.8,0.6,5,1.9,6.7c1.3,1.8,3.2,2.8,5.4,2.8c2,0,3.7-0.8,4.9-2.3C509.7,65.6,510.3,63.9,510.3,61.9"/>
<path class="st1" d="M569.8,59.5c0,4.3-1.2,7.8-3.7,10.6c-2.6,2.8-6,4.3-10.2,4.3c-4.1,0-7.4-1.4-9.8-4.1c-2.4-2.7-3.6-6.1-3.6-10.3
	c0-4.3,1.2-7.9,3.8-10.6c2.5-2.8,5.9-4.1,10.1-4.1c4.1,0,7.4,1.4,9.9,4.1C568.6,51.9,569.8,55.3,569.8,59.5 M563.4,59.7
	c0-2.6-0.6-4.8-1.7-6.6c-1.3-2.2-3.2-3.3-5.6-3.3c-2.5,0-4.4,1.1-5.7,3.3c-1.1,1.8-1.7,4.1-1.7,6.7c0,2.6,0.6,4.8,1.7,6.6
	c1.3,2.2,3.2,3.3,5.6,3.3c2.4,0,4.2-1.1,5.6-3.4C562.8,64.5,563.4,62.3,563.4,59.7"/>
<path class="st1" d="M603.2,73.7H597v-16c0-4.9-1.9-7.4-5.6-7.4c-1.8,0-3.3,0.7-4.5,2c-1.1,1.4-1.7,3-1.7,4.8v16.6H579V53.7
	c0-2.5-0.1-5.1-0.2-8h5.5l0.3,4.4h0.2c0.7-1.4,1.8-2.5,3.2-3.4c1.7-1,3.6-1.6,5.6-1.6c2.6,0,4.8,0.9,6.5,2.5
	c2.1,2.1,3.2,5.2,3.2,9.3V73.7z"/>
<path class="st1" d="M645,50.4h-6.8V64c0,3.4,1.2,5.2,3.6,5.2c1.1,0,2-0.1,2.8-0.3l0.2,4.7c-1.2,0.5-2.8,0.7-4.8,0.7
	c-2.5,0-4.4-0.8-5.7-2.2c-1.4-1.5-2.1-4-2.1-7.5V50.4H628v-4.7h4.1v-5.1l6.1-1.8v6.9h6.8V50.4z"/>
<path class="st1" d="M677.9,73.7h-6.2V57.8c0-5-1.9-7.5-5.6-7.5c-2.9,0-4.8,1.5-5.9,4.3c-0.2,0.6-0.3,1.4-0.3,2.2v16.8h-6.2V32.9
	h6.2v16.8h0.1c1.9-3.1,4.7-4.6,8.4-4.6c2.6,0,4.7,0.9,6.4,2.5c2.1,2.1,3.2,5.2,3.2,9.4V73.7z"/>
<path class="st1" d="M711.8,58.4c0,1.1-0.1,2.1-0.2,2.8h-18.6c0.1,2.8,1,4.9,2.7,6.3c1.6,1.3,3.6,2,6.1,2c2.8,0,5.3-0.4,7.5-1.3
	l1,4.3c-2.6,1.1-5.8,1.7-9.4,1.7c-4.3,0-7.7-1.3-10.2-3.8c-2.5-2.6-3.7-6-3.7-10.3c0-4.2,1.1-7.7,3.4-10.5c2.4-3,5.7-4.5,9.8-4.5
	c4,0,7.1,1.5,9.1,4.5C711,52,711.8,54.9,711.8,58.4 M705.9,56.8c0-1.8-0.4-3.4-1.2-4.8c-1.1-1.7-2.7-2.6-4.9-2.6c-2,0-3.7,0.8-5,2.5
	c-1,1.3-1.6,3-1.8,4.8H705.9z"/>
</svg>
