<?xml version="1.0" encoding="utf-8"?>
<!-- Generator: Adobe Illustrator 22.0.1, SVG Export Plug-In . SVG Version: 6.00 Build 0)  -->
<svg version="1.1" id="Layer_1" xmlns="http://www.w3.org/2000/svg" xmlns:xlink="http://www.w3.org/1999/xlink" x="0px" y="0px"
	 viewBox="0 0 788.1 225.2" style="enable-background:new 0 0 788.1 225.2;" xml:space="preserve">
<style type="text/css">
	.st0{fill:#1C1A16;}
	.st1{clip-path:url(#SVGID_2_);fill:url(#SVGID_3_);}
	.st2{clip-path:url(#SVGID_5_);fill:url(#SVGID_6_);}
	.st3{clip-path:url(#SVGID_8_);fill:url(#SVGID_9_);}
	.st4{clip-path:url(#SVGID_11_);fill:url(#SVGID_12_);}
	.st5{fill:#FBFBFB;}
	.st6{fill:#FCFCFD;}
</style>
<g>
	<path class="st0" d="M788.2,202.8c0,12.5-10.1,22.4-22.6,22.4H22.1C9.5,225.2,0,215.6,0,203.1v-181C0,9.5,9.5,0,22.1,0h743.5
		c12.6,0,22.5,9.5,22.5,22.1v181L788.2,202.8z"/>
</g>
<g>
	<defs>
		<path id="SVGID_1_" d="M86.6,48.9v69.7v71.1c0,1.7,0.7,2.8,1.9,3.2l75-74.3L89.1,44.9C87.6,45.3,86.6,46.7,86.6,48.9"/>
	</defs>
	<clipPath id="SVGID_2_">
		<use xlink:href="#SVGID_1_"  style="overflow:visible;"/>
	</clipPath>
	
		<linearGradient id="SVGID_3_" gradientUnits="userSpaceOnUse" x1="-857.8737" y1="2986.0146" x2="-856.8738" y2="2986.0146" gradientTransform="matrix(0 152.4785 152.4785 0 -455177.9688 130849.7969)">
		<stop  offset="0" style="stop-color:#2079B0"/>
		<stop  offset="0.2864" style="stop-color:#4A93B8"/>
		<stop  offset="0.767" style="stop-color:#83BEBF"/>
		<stop  offset="1" style="stop-color:#97CFBF"/>
	</linearGradient>
	<rect x="86.6" y="44.9" class="st1" width="76.9" height="148.1"/>
</g>
<g>
	<defs>
		<path id="SVGID_4_" d="M89.1,44.9l74.4,73.7l20.7-20.5l-31-17.9c0,0-0.1,0-0.2-0.1l0,0c0,0-0.1,0-0.1,0l0,0c0,0,0,0-0.1,0l0,0
			c0,0,0,0,0,0l0,0c0,0,0,0,0,0l0,0c0,0,0,0,0,0l0,0c0,0,0,0,0,0L93.1,45.6c-1-0.5-2-0.8-2.9-0.8C89.8,44.7,89.5,44.8,89.1,44.9"/>
	</defs>
	<clipPath id="SVGID_5_">
		<use xlink:href="#SVGID_4_"  style="overflow:visible;"/>
	</clipPath>
	
		<linearGradient id="SVGID_6_" gradientUnits="userSpaceOnUse" x1="-840.2884" y1="3003.113" x2="-839.2885" y2="3003.113" gradientTransform="matrix(97.541 0 0 -97.541 82049.1797 293008.3438)">
		<stop  offset="0" style="stop-color:#5ABCAB"/>
		<stop  offset="1" style="stop-color:#E6E99A"/>
	</linearGradient>
	<rect x="89.1" y="44.7" class="st2" width="95" height="73.9"/>
</g>
<g>
	<defs>
		<path id="SVGID_7_" d="M88.5,193c0.9,0.3,2,0.2,3.2-0.5l8.7-5c16.9-9.8,52.7-30.4,52.7-30.4l15.5-9l15.5-9l-20.7-20.5L88.5,193z"
			/>
	</defs>
	<clipPath id="SVGID_8_">
		<use xlink:href="#SVGID_7_"  style="overflow:visible;"/>
	</clipPath>
	
		<linearGradient id="SVGID_9_" gradientUnits="userSpaceOnUse" x1="-870.567" y1="2988.9897" x2="-869.5671" y2="2988.9897" gradientTransform="matrix(0 76.793 76.793 0 -229397.1719 66972.0625)">
		<stop  offset="0" style="stop-color:#E53432"/>
		<stop  offset="0.1668" style="stop-color:#D73948"/>
		<stop  offset="0.5748" style="stop-color:#B33F72"/>
		<stop  offset="0.8619" style="stop-color:#9A4189"/>
		<stop  offset="1" style="stop-color:#904192"/>
	</linearGradient>
	<rect x="88.5" y="118.6" class="st3" width="95.6" height="74.6"/>
</g>
<g>
	<defs>
		<path id="SVGID_10_" d="M163.5,118.6l20.7,20.5l22.7-13.1c3.4-2,6.2-3.6,7.1-4.1c3.4-2,3.2-4.6,0.5-6.2l-0.2-0.1
			c0,0-0.1,0-0.1-0.1c-2.8-1.5-26.6-15.3-29.7-17.2l-0.3-0.2L163.5,118.6z"/>
	</defs>
	<clipPath id="SVGID_11_">
		<use xlink:href="#SVGID_10_"  style="overflow:visible;"/>
	</clipPath>
	
		<linearGradient id="SVGID_12_" gradientUnits="userSpaceOnUse" x1="-892.9393" y1="2994.1824" x2="-891.9393" y2="2994.1824" gradientTransform="matrix(0 40.9551 40.9551 0 -122436.6172 36668.5586)">
		<stop  offset="0" style="stop-color:#F18779"/>
		<stop  offset="0.1194" style="stop-color:#F2917A"/>
		<stop  offset="0.7128" style="stop-color:#FABC77"/>
		<stop  offset="1" style="stop-color:#FDCB73"/>
	</linearGradient>
	<rect x="163.5" y="98.1" class="st4" width="53.9" height="41"/>
</g>
<path class="st5" d="M570.7,148.4c-2.9,0-5.5-0.5-7.9-1.6c-2.4-1.1-4.4-2.7-6-4.9h-0.5c0.3,2.6,0.5,5,0.5,7.4v18.2H550v-64.2h5.5
	l0.9,6.1h0.3c1.7-2.4,3.7-4.2,6-5.3c2.3-1.1,4.9-1.6,7.9-1.6c5.9,0,10.4,2,13.6,6c3.2,4,4.8,9.7,4.8,16.9c0,7.3-1.6,12.9-4.9,17
	C581,146.4,576.4,148.4,570.7,148.4 M569.7,108.2c-4.5,0-7.8,1.3-9.8,3.8c-2,2.5-3.1,6.5-3.1,12v1.5c0,6.2,1,10.7,3.1,13.4
	c2.1,2.7,5.4,4,10,4c3.8,0,6.8-1.5,9-4.7c2.2-3.1,3.3-7.4,3.3-12.8c0-5.5-1.1-9.8-3.3-12.7C576.7,109.6,573.6,108.2,569.7,108.2"/>
<rect x="597.9" y="84.7" class="st5" width="6.7" height="63"/>
<path class="st5" d="M643.2,147.6l-1.3-6.3h-0.3c-2.2,2.8-4.4,4.7-6.6,5.6c-2.2,1-4.9,1.5-8.2,1.5c-4.4,0-7.8-1.1-10.3-3.4
	c-2.5-2.3-3.7-5.5-3.7-9.7c0-9,7.2-13.6,21.5-14.1l7.5-0.2v-2.8c0-3.5-0.7-6.1-2.2-7.7c-1.5-1.7-3.9-2.5-7.2-2.5
	c-3.7,0-7.9,1.1-12.5,3.4l-2.1-5.1c2.2-1.2,4.6-2.1,7.2-2.8c2.6-0.7,5.2-1,7.8-1c5.3,0,9.2,1.2,11.8,3.5c2.5,2.3,3.8,6.1,3.8,11.3
	v30.3H643.2z M628.1,142.9c4.2,0,7.5-1.1,9.9-3.4c2.4-2.3,3.6-5.5,3.6-9.6v-4l-6.7,0.3c-5.3,0.2-9.2,1-11.6,2.5
	c-2.4,1.5-3.5,3.8-3.5,6.9c0,2.4,0.7,4.3,2.2,5.5C623.4,142.2,625.4,142.9,628.1,142.9"/>
<path class="st5" d="M652.1,103.3h7.2l9.7,25.3c2.1,5.8,3.5,9.9,4,12.5h0.3c0.4-1.4,1.1-3.7,2.2-7.1c1.1-3.3,4.8-13.6,11-30.7h7.2
	l-19.1,50.5c-1.9,5-4.1,8.5-6.6,10.6c-2.5,2.1-5.6,3.1-9.3,3.1c-2.1,0-4.1-0.2-6.1-0.7v-5.4c1.5,0.3,3.1,0.5,5,0.5
	c4.6,0,7.9-2.6,9.9-7.8l2.5-6.3L652.1,103.3z"/>
<path class="st5" d="M446.3,107.4c2.1,1.8,6.6,5.5,6.6,12.5c0,6.9-3.9,10.1-7.8,13.2c-1.2,1.2-2.6,2.5-2.6,4.5c0,2,1.4,3.2,2.4,4
	l3.3,2.6c4.1,3.4,7.8,6.6,7.8,13c0,8.7-8.4,17.5-24.4,17.5c-13.5,0-19.9-6.4-19.9-13.3c0-3.3,1.7-8.1,7.1-11.3
	c5.7-3.5,13.5-4,17.7-4.3c-1.3-1.7-2.8-3.4-2.8-6.3c0-1.6,0.5-2.5,0.9-3.6c-1,0.1-2,0.2-3,0.2c-9.8,0-15.4-7.3-15.4-14.6
	c0-4.3,1.9-9,5.9-12.4c5.3-4.4,11.6-5.1,16.6-5.1h19.1l-5.9,3.3H446.3z M439.7,148.6c-0.7-0.1-1.2-0.1-2.1-0.1
	c-0.8,0-5.8,0.2-9.7,1.5c-2,0.7-8,3-8,9.6c0,6.6,6.4,11.3,16.3,11.3c8.9,0,13.6-4.3,13.6-10C449.8,156.1,446.7,153.6,439.7,148.6
	 M442.4,130.9c2.1-2.1,2.3-5.1,2.3-6.8c0-6.7-4-17.1-11.7-17.1c-2.4,0-5,1.2-6.5,3.1c-1.6,1.9-2,4.4-2,6.9c0,6.2,3.6,16.5,11.6,16.5
	C438.4,133.5,440.9,132.4,442.4,130.9"/>
<path class="st5" d="M387.9,147.1c-14.7,0-22.6-11.5-22.6-21.9c0-12.1,9.9-22.5,24-22.5c13.6,0,22.1,10.6,22.1,21.9
	C411.4,135.5,403,147.1,387.9,147.1 M399.4,139.6c2.2-3,2.8-6.7,2.8-10.3c0-8.2-3.9-23.7-15.4-23.7c-3.1,0-6.1,1.2-8.3,3.2
	c-3.6,3.2-4.3,7.3-4.3,11.3c0,9.2,4.5,24.2,15.7,24.2C393.6,144.3,397.3,142.5,399.4,139.6"/>
<path class="st5" d="M337.7,147.1c-14.7,0-22.6-11.5-22.6-21.9c0-12.1,9.9-22.5,24-22.5c13.6,0,22.1,10.6,22.1,21.9
	C361.2,135.5,352.8,147.1,337.7,147.1 M349.2,139.6c2.2-3,2.8-6.7,2.8-10.3c0-8.2-3.9-23.7-15.4-23.7c-3.1,0-6.1,1.2-8.3,3.2
	c-3.6,3.2-4.3,7.3-4.3,11.3c0,9.2,4.5,24.2,15.7,24.2C343.4,144.3,347.1,142.5,349.2,139.6"/>
<path class="st5" d="M308,145.6l-13.3,3.1c-5.4,0.8-10.2,1.6-15.4,1.6c-25.7,0-35.5-18.9-35.5-33.7c0-18.1,13.9-34.8,37.6-34.8
	c5,0,9.9,0.7,14.2,2c7,2,10.2,4.4,12.3,5.8l-7.7,7.4l-3.3,0.7l2.3-3.7c-3.2-3.1-8.9-8.7-19.9-8.7c-14.7,0-25.8,11.2-25.8,27.5
	c0,17.5,12.7,34,33,34c6,0,9-1.2,11.8-2.3v-15l-14.1,0.7l7.4-4h19.7l-2.4,2.3c-0.7,0.6-0.7,0.8-0.9,1.5c-0.1,0.8-0.2,3.5-0.2,4.5
	V145.6z"/>
<path class="st5" d="M475.7,143c-3.1-0.3-3.7-0.8-3.7-4.5v-1V85.8c0-0.2,0-0.4,0.1-0.6c0.4-3.3,1.3-3.8,4.2-5.5h-13.3l-7,3.4h7.1v0
	l0,0v54.4v3.1c0,1.9-0.4,2.1-2.5,4.9H477l3.4-2C478.8,143.2,477.3,143.1,475.7,143"/>
<path class="st5" d="M513.6,143.8c-1,0.6-2,1.2-3,1.7c-3.1,1.4-6.2,1.8-9,1.8c-3,0-7.6-0.2-12.3-3.6c-6.6-4.6-9.4-12.6-9.4-19.5
	c0-14.3,11.6-21.4,21.2-21.4c3.3,0,6.8,0.8,9.5,2.6c4.6,3,5.8,7,6.5,9.2l-21.7,8.8l-7.1,0.6c2.3,11.7,10.3,18.6,19,18.6
	c4.7,0,8.1-1.7,11.3-3.2L513.6,143.8z M504.9,116.3c1.8-0.6,2.7-1.2,2.7-2.5c0-3.7-4.2-8-9.2-8c-3.7,0-10.6,2.9-10.6,12.9
	c0,1.6,0.2,3.2,0.3,4.9L504.9,116.3z"/>
<polygon class="st5" points="522.5,103.4 522.5,109.5 521.7,109.5 521.7,103.4 519.7,103.4 519.7,102.8 524.5,102.8 524.5,103.4 "/>
<polygon class="st5" points="530.8,109.5 530.8,103.3 530.8,103.3 528.9,109.5 528.3,109.5 526.4,103.3 526.4,103.3 526.4,109.5 
	525.7,109.5 525.7,102.8 526.9,102.8 528.6,108.2 528.6,108.2 530.3,102.8 531.5,102.8 531.5,109.5 "/>
<path class="st6" d="M262.3,63.6h-4.6c0-0.6-0.4-2.4-1.3-5.4h-6.7c-0.9,2.9-1.4,4.7-1.4,5.4H244c0-0.4,1.1-3.5,3.4-9.2
	c2.2-5.8,3.4-9,3.4-9.6h5.5c0,0.5,1,3.7,3.1,9.4C261.3,60,262.3,63.1,262.3,63.6 M255.7,55.5c-1.6-5-2.5-7.7-2.5-8.1H253
	c0,0.4-0.9,3.1-2.6,8.1H255.7z"/>
<path class="st6" d="M281,63.6h-3.6c0-0.4-1.3-2.5-4-6.3c-2.8-4-4.4-6.7-4.7-8.2h-0.2c0.2,2.1,0.4,4,0.4,5.7c0,2.4,0.1,5.3,0.2,8.7
	h-3.6c0.1-3,0.2-6.3,0.2-9.8c0-3.5-0.1-6.5-0.2-9h4.3c0,0.5,1.2,2.5,3.6,6.1c2.5,3.8,4,6.4,4.4,7.7h0.2c-0.2-2.1-0.3-4.1-0.3-5.8
	c0-2.6-0.1-5.3-0.2-8h3.6c-0.1,2.4-0.2,5.4-0.2,9C280.8,57.4,280.9,60.7,281,63.6"/>
<path class="st6" d="M301.9,53.6c0,2.7-0.9,5.1-2.6,7.2c-1.8,2-4.2,3.1-7.4,3.1c-1.4,0-3.4-0.1-5.9-0.2c0.1-2.9,0.2-6.2,0.2-9.8
	c0-3.5-0.1-6.5-0.2-9h2.5c0.4,0,1,0,1.9,0c0.8,0,1.4,0,1.6,0c3.5,0,6,0.9,7.6,2.6C301.2,49.1,301.9,51.2,301.9,53.6 M298,54.2
	c0-1.9-0.5-3.4-1.6-4.7c-1.1-1.3-2.7-1.9-4.9-1.9c-0.4,0-1,0-1.7,0.1c0.1,1.9,0.1,3.9,0.1,6c0,2.3,0,4.6,0.1,6.9
	c0.6,0.1,1.3,0.2,1.9,0.2c2.1,0,3.6-0.6,4.6-1.9C297.5,57.6,298,56.1,298,54.2"/>
<path class="st6" d="M321.3,63.6H317c-1.1-3.4-2-5.5-2.6-6.3c-0.6-0.8-1.6-1.2-2.9-1.2c-0.6,0-1.1,0-1.6,0c0,2.5,0,5,0.1,7.5h-4
	c0.1-2.9,0.2-6.2,0.2-9.8c0-3.5-0.1-6.5-0.2-9h2.5c0.3,0,0.9,0,1.8,0c0.9,0,1.8,0,2.6,0c4.4,0,6.6,1.5,6.6,4.5c0,2.4-1.3,4.1-3.8,5
	v0.2c1,0.3,1.8,1,2.6,2.3C319,58,320,60.3,321.3,63.6 M315.8,50.3c0-1.9-1.2-2.9-3.7-2.9c-0.9,0-1.7,0.1-2.4,0.2
	c0.1,1.5,0.2,3.4,0.2,5.8c0.5,0,1,0,1.3,0C314.3,53.5,315.8,52.5,315.8,50.3"/>
<path class="st6" d="M342,53.9c0,3-0.9,5.4-2.7,7.4c-1.8,1.9-4.1,2.9-6.7,2.9c-2.5,0-4.7-0.9-6.4-2.7c-1.7-1.8-2.6-4.1-2.6-6.8
	c0-3,0.9-5.4,2.7-7.4c1.8-1.9,4.1-2.9,6.7-2.9c2.5,0,4.7,0.9,6.4,2.7C341.1,48.8,342,51.1,342,53.9 M338,54.3c0-2-0.5-3.6-1.5-4.9
	c-1-1.3-2.3-1.9-3.8-1.9c-1.4,0-2.6,0.6-3.6,1.9c-1,1.3-1.5,2.9-1.5,4.8c0,2,0.5,3.6,1.6,4.9s2.3,1.9,3.8,1.9c1.4,0,2.6-0.6,3.6-1.9
	C337.5,57.8,338,56.2,338,54.3"/>
<path class="st6" d="M350.2,63.6h-4.1c0.1-3,0.2-6.3,0.2-9.8c0-3.5-0.1-6.5-0.2-9h4.1c-0.1,2.4-0.2,5.4-0.2,9
	C350,57.4,350,60.7,350.2,63.6"/>
<path class="st6" d="M371.1,53.6c0,2.7-0.9,5.1-2.6,7.2c-1.8,2-4.2,3.1-7.4,3.1c-1.4,0-3.4-0.1-5.9-0.2c0.1-2.9,0.2-6.2,0.2-9.8
	c0-3.5-0.1-6.5-0.2-9h2.5c0.4,0,1,0,1.9,0c0.8,0,1.4,0,1.6,0c3.5,0,6,0.9,7.6,2.6C370.3,49.1,371.1,51.2,371.1,53.6 M367.2,54.2
	c0-1.9-0.5-3.4-1.6-4.7c-1.1-1.3-2.7-1.9-4.9-1.9c-0.4,0-1,0-1.7,0.1c0.1,1.9,0.1,3.9,0.1,6c0,2.3,0,4.6,0.1,6.9
	c0.6,0.1,1.3,0.2,1.9,0.2c2.1,0,3.6-0.6,4.6-1.9C366.7,57.6,367.2,56.1,367.2,54.2"/>
<path class="st6" d="M398.9,63.6h-4.6c0-0.6-0.4-2.4-1.3-5.4h-6.7c-0.9,2.9-1.4,4.7-1.4,5.4h-4.4c0-0.4,1.1-3.5,3.4-9.2
	c2.2-5.8,3.4-9,3.4-9.6h5.5c0,0.5,1,3.7,3.1,9.4C397.9,60,398.9,63.1,398.9,63.6 M392.2,55.5c-1.6-5-2.5-7.7-2.5-8.1h-0.2
	c0,0.4-0.9,3.1-2.6,8.1H392.2z"/>
<path class="st6" d="M415.8,49.8c0,2.3-0.9,4-2.6,5.1c-1.7,1.1-3.8,1.6-6.3,1.6c-0.5,0-0.8,0-1,0c0,1.8,0.1,4.2,0.2,7.2H402
	c0.1-2.8,0.2-6.1,0.2-9.8c0-3.5-0.1-6.5-0.2-9h2.5c0.4,0,1,0,2.1,0c1,0,1.9,0,2.6,0c1.8,0,3.4,0.4,4.6,1.2
	C415.1,46.8,415.8,48.1,415.8,49.8 M412,50.5c0-2.1-1.4-3.1-4.1-3.1c-0.7,0-1.4,0.1-2.2,0.2c0.1,1.8,0.2,3.9,0.2,6.2
	c0.2,0,0.5,0,0.8,0C410.3,53.9,412,52.8,412,50.5"/>
<path class="st6" d="M433.1,49.8c0,2.3-0.9,4-2.6,5.1c-1.7,1.1-3.8,1.6-6.3,1.6c-0.5,0-0.8,0-1,0c0,1.8,0.1,4.2,0.2,7.2h-4.1
	c0.1-2.8,0.2-6.1,0.2-9.8c0-3.5-0.1-6.5-0.2-9h2.5c0.4,0,1,0,2.1,0c1,0,1.9,0,2.6,0c1.8,0,3.4,0.4,4.6,1.2
	C432.5,46.8,433.1,48.1,433.1,49.8 M429.4,50.5c0-2.1-1.4-3.1-4.1-3.1c-0.7,0-1.4,0.1-2.2,0.2c0.1,1.8,0.2,3.9,0.2,6.2
	c0.2,0,0.5,0,0.8,0C427.6,53.9,429.4,52.8,429.4,50.5"/>
<path class="st6" d="M461.5,53.9c0,3-0.9,5.4-2.7,7.4c-1.8,1.9-4.1,2.9-6.7,2.9c-2.5,0-4.7-0.9-6.4-2.7c-1.7-1.8-2.6-4.1-2.6-6.8
	c0-3,0.9-5.4,2.7-7.4c1.8-1.9,4.1-2.9,6.7-2.9c2.5,0,4.7,0.9,6.4,2.7C460.6,48.8,461.5,51.1,461.5,53.9 M457.5,54.3
	c0-2-0.5-3.6-1.5-4.9c-1-1.3-2.3-1.9-3.8-1.9c-1.4,0-2.6,0.6-3.6,1.9c-1,1.3-1.5,2.9-1.5,4.8c0,2,0.5,3.6,1.6,4.9
	c1,1.3,2.3,1.9,3.8,1.9c1.4,0,2.6-0.6,3.6-1.9C457,57.8,457.5,56.2,457.5,54.3"/>
<path class="st6" d="M481.1,63.6h-3.6c0-0.4-1.3-2.5-4-6.3c-2.8-4-4.4-6.7-4.7-8.2h-0.2c0.2,2.1,0.4,4,0.4,5.7
	c0,2.4,0.1,5.3,0.2,8.7h-3.6c0.1-3,0.2-6.3,0.2-9.8c0-3.5-0.1-6.5-0.2-9h4.3c0,0.5,1.2,2.5,3.6,6.1c2.5,3.8,4,6.4,4.4,7.7h0.2
	c-0.2-2.1-0.3-4.1-0.3-5.8c0-2.6-0.1-5.3-0.2-8h3.6c-0.1,2.4-0.2,5.4-0.2,9C480.9,57.4,480.9,60.7,481.1,63.6"/>
</svg>
