<?xml version="1.0" encoding="utf-8"?>
<!-- Generator: Adobe Illustrator 22.0.1, SVG Export Plug-In . SVG Version: 6.00 Build 0)  -->
<svg version="1.1" id="Layer_0_xA0_Image_1_" xmlns="http://www.w3.org/2000/svg" xmlns:xlink="http://www.w3.org/1999/xlink"
	 x="0px" y="0px" viewBox="0 0 790.6 789.4" style="enable-background:new 0 0 790.6 789.4;" xml:space="preserve">
<style type="text/css">
	.st0{fill:#D9001D;}
	.st1{fill:#D3CBBD;}
	.st2{fill:#D91F26;}
	.st3{fill:#FFFFFF;}
</style>
<g>
	<circle cx="410" cy="486.9" r="209.4"/>
	<path class="st0" d="M410,703.6c-57.9,0-112.3-22.5-153.2-63.5c-40.9-40.9-63.5-95.3-63.5-153.2s22.5-112.3,63.5-153.2
		c40.9-40.9,95.3-63.5,153.2-63.5s112.3,22.5,153.2,63.5c40.9,40.9,63.5,95.3,63.5,153.2s-22.5,112.3-63.5,153.2
		C522.2,681.1,467.8,703.6,410,703.6z M410,284.8c-111.4,0-202.1,90.7-202.1,202.1C207.9,598.4,298.5,689,410,689
		C521.4,689,612,598.4,612,486.9C612,375.5,521.4,284.8,410,284.8z"/>
</g>
<path d="M171.5,420.1c1.4-3,2.7-6,4.1-9.1c-1.5-2.5-3.2-5.3-5-8.2c2.1-1.5,3.9-2.7,5.6-3.9c2.6-1.8,4.4-3.9,2.6-7.4
	c-0.5-1-0.1-2.4,0.1-3.6c0.3-3,0.6-5.9,0.8-7.5c-6-1.1-10.4-2.2-14.9-2.7c-1.3-0.1-2.9,1.4-4,2.4c-2.1,2-2.8,6-7,4.6
	c-0.4-0.1-1-0.1-1.4-0.3c-2.7-1.6-5.1-3.8-8-4.9c-2.8-1.1-6.1-1-9.5-1.5c1.2-4.7,4.2-7.4,8-9.3c3.5-1.7,4.6-3.8,2.4-8.1
	c-4.7,0.3-9.7,0.6-14.9,0.9c-0.1-1.5-0.2-2.7-0.3-4.2c-1.3,0.1-2.5,0-3.6,0.2c-3.5,0.9-5.3-1.2-6.4-4c-1.2-3.2,1.6-3.7,3.6-4.9
	c3.5-2.1,7.9-3.1,8.6-8.4c0.1-0.8,4.3-1.6,6.5-1.4c7.9,0.6,12.2-3,13-11.1c0.2-1.6,1.9-3.1,3.3-5.3c-3.4-6.6-7.2-13.9-11-21.3
	c-0.5-1-1.2-1.9-1.5-2.9c-6.8-22.4-12.7-45.1-5.7-68.3c4.6-15.3,7.2-31.8,18.3-44.6c0.9-1,1.2-2.5,1.9-3.7c4.3-7.7,8.7-15.4,13.1-23
	c1.1-1.9,2.6-3.6,3.1-5.7c2-7.8,5.6-14.8,10.5-21.2c1.5-2,2.8-4.1,4.1-6.3c7.4-12.8,14.2-26,22.4-38.2c5.2-7.8,12.5-14.2,18.9-21.2
	c0.9-1,2.4-1.8,2.9-3c8.7-20.4,26.2-32,43.6-43.7c9.3-6.2,19.7-9.3,31-8.6c5.3,0.3,10.6,0.4,15.9,1.1c15.1,1.9,30.4,3.2,45.3,6.3
	c10.2,2.1,19.8,7.3,30,10.2c13.5,3.9,25.3,10.9,36.3,18.8c7.9,5.7,13.9,14.1,20.5,21.5c1.8,2.1,3.5,2.8,6.2,2.9
	c18.5,0.8,36,5.5,51.5,16c8,5.4,12.6,13.6,15.8,22.6c9.8,27.4,6.4,53.4-6,79.2c-5.8,12-14,22.1-21.4,32.8c-0.9,1.3-1.7,2.6-3,4.6
	c2.3,0.2,4.2,0,5.8,0.6c1.5,0.6,3.3,1.7,3.9,3c1.8,4.2,7.9,5.9,11.3,2.7c0.3-0.3,0.7-1.1,0.8-1c7,3,13.5-4.4,20.6-1.1
	c2.2,1,3.8,1.9,3.8,4.5c0.1,4.7,3.4,6.2,7.1,7.4c1.3,0.4,2.7,0.9,3.6,1.8c2.9,3,5.2,6.5,8.3,9.2c4.6,4.1,5.3,8.7,3.5,14.3
	c-1.2,3.7-2.4,7.5,3.2,9.3c-1.5,2.7-2.7,4.9-4.6,8.4c2.6,1,5.2,1.5,7.2,2.9c2,1.4,3.6,3.6,4.7,5.8c0.9,1.7,0.9,3.9,1.4,6.3
	c9.1-6.4,13.9-5.4,17.7,3.7c-2.4,0.9-4.8,1.7-7.2,2.6c-3.8,1.4-4.3,3-1.4,7.1c-3.1,0.9-6,1.7-9.2,2.5c2.2,9-7.7,8.8-11.5,14.8
	c1.8,1.1,3.7,1.9,5.3,3.3c1.5,1.4,2.7,3.2,3.9,4.9c3.6,5.2,6.8,10.7,10.8,15.4c1.4,1.6,4.8,1.7,7.4,2.1c3.7,0.5,6.3,1.6,5.2,6.5
	c5.5,0.6,5-6.1,9.7-6.6c2.7,0.8,4.3,2.8,3.8,6.6c-0.3,1.9,0.3,4,0.8,5.9c1.1,4.1-0.6,7.3-4,8.7c-3.3,1.3-2.5,2.9-1.8,5
	c0.8,2.5,2.3,4.9-0.9,7c-0.4,0.2-0.5,1.4-0.3,2c4.3,12.2-334.8,244.6-349.3,229.3c-3,3.4-0.5,5.6,1.7,7.7c1.7,1.6,3.2,2.8,1.7,5.5
	c-0.5,0.9,0.7,2.9,1.5,4.2c1.3,2,2.8,3.8,4.7,6.1c-2.8,0.6-4.5,1-6.2,1.4c0.3,0.3,0.7,0.5,1,0.8c-0.9,2.7-1.4,5.8-3,8
	c-2.1,3-5,2.4-5.6-1.2c-1.1-5.9-5.5-8.3-10.2-11.6c-1.3,1.8-2.4,3.5-3.8,5.1c-1.4,1.6-3,3.6-4.8,4.1c-0.9,0.2-2.6-2.6-4.5-4.5
	c-1.9-0.1-4.9-0.2-7.9-0.5c-4.3-0.4-7.7-1.4-10-6c-1.2-2.3-5.6-3.4-8.8-4.1c-3.5-0.7-7.2,0-10.7-0.4c-4.5-0.4-5.8-3-3.9-7.1
	c2.1-4.6,4.1-8.7,9.9-10.4c1.5-0.4,1.6-5.7,2.4-8.7c1.1-3.9-1.5-4.5-4.4-4.6c-0.6,0-1.6,0.1-1.7,0.4c-2.5,5.4-7.3,2.9-11.1,3.1
	c-5.1,0.2-10.1-0.3-15.2-0.5c-0.3,0-0.6,0-0.9-0.2c-3.2-1.2-6.3-2.8-9.6-3.6c-3.1-0.8-6.4-0.8-9.6-1.2c-1.6-9.3,1.9-15.9,13.6-9.7
	c0.6-7.9,7.4-11.4,11.7-16.7c2.8-3.5,4.5-6.9,2.2-11.5c-0.8-1.6-10.1-14.4-10.2-16.4c9.2-1.4,17.8-2.8,26.4-4.1
	c3-0.5,5.8-0.9,4.1-5.2c-0.3-0.7-0.1-1.9,0.4-2.5c3.2-4.1,12.9,2.3,12-2.8c-2.7-14.8-4.3-29.7-1-44.7c2.6-12,4.8-24,7.3-36
	c0.5-2.5,1.7-5,2.4-7c-1.5-1.9-2.8-3.6-4.1-5.3c-1.1,7.4-1.9,14.3-3.1,21.2L171.5,420.1z M152.1,552.7 M256.8,84.6
	c-0.4,0.2-0.8,0.5-1.2,0.7c-1.4-0.5-2.8-1.3-4.2-1.3c-2.8,0-6.6-0.7-8.3,0.8c-4.6,3.8-9.1,8.2-12.4,13.2
	c-9.4,14.4-18.3,29.2-27.1,43.9c-3.1,5.2-5.6,10.7-8.3,16.1c-1.4,2.8-2.6,5.6-4.1,8.3c-3.8,7.2-8,14.3-11.5,21.7
	c-1,2.1-0.2,5.1-0.3,7.7c0,1.2,0.1,3.1-0.5,3.4c-6.7,3.6-8.7,10.3-11.5,16.4c-3.2,6.7-7.7,13.2-9,20.3c-5.6,29.6,4.2,54.5,25.7,74.9
	c6.5,6.2,15.1,10.3,22.4,15.7c13.9,10.1,30,12.7,46.5,14.5c17.5,1.8,34.3-2.3,51.2-5.6c2.2-0.4,4.6-1.2,6.4-2.6
	c6.6-4.9,13-10,19.5-15c3.3-2.5,5.7-5.6,5.2-9.8c-1.1-8,5.4-13,7.5-19.7c0.1-0.3,0.7-0.6,1.1-0.7c3.7-1.6,7.7-2.8,11.2-4.9
	c4.8-2.9,10.4-5.5,13.4-9.8c7.3-10.5,12.3-22.2,14.5-35c1-5.7,2.2-11.9,5.3-16.7c9.9-15.8,16.7-32.4,18.8-51
	c1-9.2,0.8-10.1-7.9-13.5c-0.2-0.1-0.2-0.5-0.6-1.5c1.5-0.7,3-1.8,4.6-2.2c9.3-2.1,17.9-5.1,22.7-14.4c0.7-1.4,2.5-2.3,3.6-3.7
	c2.4-2.9,5.2-5.7,7-9c2.8-4.8,4.7-10.1,7.3-15.1c2.4-4.6,2.2-9.3,0.6-14c-1.3-3.8-2.6-7.7-4.6-11.1c-5.1-8.8-11.9-15.8-20.5-21.7
	c-11.3-7.8-23-14.5-35.9-19.2c-22-8-45.1-9.9-68.2-11.4c-11.5-0.7-22.6,0.8-32.4,7.7c-4.9,3.5-9.8,7.1-14.5,10.8
	c-2.9,2.3-5.7,4.8-8.2,7.6C253.5,66.8,250.5,75,256.8,84.6z M434.7,336.7c2.9,0.5,5.2,0.6,7.4,1.2c6.4,1.8,13.1-3,12.8-9.8
	c-0.1-3.6,1.3-5.3,4.4-5.9c5.2-1.1,7.2-5.6,7.5-9.6c0.2-3.1-1.9-7.2-4.3-9.7c-3.6-3.7-8.3-6.4-12.7-9.2c-1-0.7-2.6-0.7-4-0.7
	c-4-0.1-8.1,0.5-11.9-0.3c-3.6-0.8-5.5-0.1-8,2.6c-1.5,1.7-4.7,2.5-7.2,2.8c-1.9,0.2-4-0.9-6-1.5c-1.5-0.4-3.1-0.8-4.7-1.2
	c0.7-4.8,2.2-8.1,6.4-10.1c5.4-2.7,5.9-5.2,2.6-11.1c-1.5,1.1-3.1,2-4.4,3.3c-2.4,2.4-4.4,2.1-5.1-1c-0.9-4-0.8-8.2-1.2-12.4
	c-0.1-1.3-0.2-3.2-0.9-3.6c-3.8-2-2.1-4.5-0.4-6.3c1.9-2.2,4.4-3.8,6.9-5.9c-5.1-1.9-5.8-6-5.6-10.7c0.3-5.5-4.8-8.2-6.6-12.7
	c-0.1-0.1-0.8,0-1.1,0c-0.9,2.3-1.3,4.9-2.8,6.5c-3.9,4.3-4.9,9.2-6,14.9c-3.9,19.1-13.2,34.9-32.1,43.4c-7,3.1-7.9,5.1-6.1,12.7
	c2,8.5-5.3,20.3-14.1,20.7c-2.4,0.1-5.4,2-7,4c-6.5,8.1-15.2,13.1-23.8,18.2c-1,0.6-2.1,1.4-2.5,2.4c-1.3,3.4-2.2,6.9-3.5,10.9
	c1.3,0.5,3.1,1.4,4.9,1.9c6.6,1.7,13.2,3.1,19.8,4.8c1.2,0.3,2.3,1,3.3,1.7c3.6,2.8,7.5,2.7,11.5,1.3c3-1.1,6.5-2.2,8.7-4.3
	c4.3-4.2,7.5-3.3,10.8,0.9c0.2,0.2,0.8,0.2,0.8,0.4c0.2,0.9,0.7,2.4,0.3,2.8c-4,3.5-8.3,6.7-12.3,10.3c-1.7,1.5-3.7,3.6-4,5.6
	c-1.1,7-1.6,14.2-2.3,20.8c4.1-2.9,8.5-6.6,13.4-9.5c5-3.1,10.3-5.7,15.7-8.1c8.5-3.8,17.6-6.2,26.7-3.1c4.3,1.4,9.2,4.5,11.2,8.2
	c3.5,6.5,4.9,14,7.1,21.2c0.2,0.6-0.3,1.5-0.5,2.3c-0.9,5.2-1.9,10.3-2.8,15.5c0.4,0.1,0.9,0.3,1.3,0.4c5.7-16,11.5-32.1,17.1-48.1
	c0.3-0.8,0.2-2.1-0.3-2.6c-2.2-2.4-0.8-4.2,0.6-6.2c1.3-2,0.8-14.2-0.5-15.9c-1.5-2-3-4-5-6.8c-0.3,0-1.9-0.2-3.6-0.4
	c-1-3.8,1.4-4.7,4-5C431.9,345.8,434.3,342.6,434.7,336.7z M475,116.9c0.3,6.2-1.6,8.8-6.8,8.3c-5.4-0.5-9.8,1.2-13.7,4.6
	c-3.1,2.8-6,5.8-8.8,8.9c-2.8,3.1-6,4.2-10.1,3.1c-1.1-0.3-3-0.1-3.5,0.6c-3.5,5.1-7.6,10-9.9,15.6c-3.8,9.1-6.6,18.6-9.5,28.1
	c-2.6,8.5-4.2,17.2-0.3,25.9c2.7,6,6.2,11.5,13.3,12.3c9.8,1,19.6,1.2,28.6-3.9c8.1-4.6,16.4-8.7,24.2-13.7
	c5.7-3.6,11.5-7.7,15.8-12.8c4.6-5.5,7.7-12.3,10.9-18.7c2.4-4.8,4.5-9.9,5.7-15.2c1.7-7.4,2.6-14.9,3.6-22.4c0.3-1.9,0.1-4.1-0.5-6
	c-1.6-5-3.5-9.9-5.4-14.8c-1.1-2.9-1.8-6.2-3.8-8.4c-10.8-11.6-24.1-16.7-39.8-12.1c-6.6,1.9-13.7,4.2-15.2,12.7
	c-0.7,4-1.3,7.9-1.8,11.9c-0.1,0.8,0.5,1.6,1,3.1c1.1-1.9,1.8-3.2,2.6-4.4c2.4-3.6,6.2-4.8,10.1-3c2.2,1,4.1,3.6,6.2,3.7
	C470.5,120.5,472.6,118.3,475,116.9z M453.6,83c-7.7-12.1-15.2-23.5-27.3-30.8c-4-2.4-7.8-5.3-12.1-7c-15.1-6.2-30.3-12.1-45.5-18
	c-1.1-0.4-2.4-0.5-3.7-0.6c-11.1-1.6-22.2-3.4-33.3-4.6c-10.4-1.1-20.9-2.3-31.2-1.8c-13.6,0.7-24,9-34.1,17.2
	c-9.3,7.5-18.9,14.9-24.2,26.3c-1.6,3.5-4.4,6.6-7,9.6c-5.6,6.4-12.3,12.1-17,19.1c-8,12.2-14.8,25.2-22.2,37.8
	c-1.6,2.7-3.6,5.1-5.1,7.8c-2.9,5.5-5.5,11.1-8.3,16.6c-1.7,3.3-3.3,6.6-5.2,9.8c-3.6,6.2-7.3,12.3-10.8,18.4
	c-1.9,3.4-3.1,7.2-5.4,10.2c-4.8,6.4-7.7,13.4-9.3,21.2c-0.6,2.7-1.6,5.4-2.7,7.9c-5.5,12.8-6.7,26.3-5.2,39.9
	c0.9,8.3,3.8,16.3,5.2,24.5c1,5.5,2.6,10.5,6.3,14.8c1.3,1.6,2.2,3.7,2.7,5.8c1.8,7.1,5.6,12.6,11.5,17.1c6.5,5,12.1,11.2,18.9,15.8
	c9,6.2,18.8,11.3,28.2,16.9c0.4,0.2,0.9,0.4,1.3,0.4c7.2,0.4,14.1,0.6,20.9,4.6c3.9,2.3,9.8,2.1,14.7,1.8c7.3-0.5,11.6,3.6,16.6,7.7
	c4.2,3.5,9,6.2,13.7,9c2.9,1.7,6.2,2.6,9.1,4.2c7.2,3.9,16.7,6.5,23.8-0.5c-1.5-0.7-2.8-1.7-4.3-2c-7.1-1.5-14.6-2.1-20.1-7.8
	c-0.5-0.5-1.5-0.3-2.2-0.7c-4.9-2.5-10.6-4.2-14.4-7.8c-7.1-6.6-14.4-10.9-24.4-10.2c-4,0.3-8.8-0.2-12.1-2.2
	c-3.9-2.3-7.5-3.6-11.8-3.4c-6.7,0.4-12.5-1.3-17.7-5.8c-2.6-2.3-6.2-3.4-9.3-5.1c-1.8-1-3.7-1.8-5.2-3c-7.7-6.4-15.5-12.9-23-19.6
	c-2.2-2-4.5-4.7-5.3-7.5c-1.8-5.7-3.9-11-7.8-15.7c-1.5-1.7-1.6-4.6-2.1-7c-0.4-1.8-0.1-3.9-0.8-5.5c-4.9-11-5.6-22.5-4.8-34.3
	c0.9-15.1,7.1-28.7,12-42.5c3.3-9.4,8.8-18.2,14.4-26.5c5.9-9,12.2-17.6,14.9-28.2c0.2-0.9,0.9-1.7,1.3-2.5
	c9.1-15,18.6-29.9,27.2-45.1c5-8.9,11.4-16.3,19.1-22.7c3.9-3.2,7-6.7,8.8-11.7c1.3-3.7,3.7-7.5,6.7-10
	c10.2-8.6,20.6-17.1,31.5-24.8c6-4.3,13.5-5.4,21.1-4.7c9,0.9,18.1,1.2,27,2.5c12,1.6,24.5,2.3,35.8,6.2c17.1,6,34.5,11.6,50,21.7
	c9.5,6.2,15.6,15,22.4,23.5c1.1,1.4,1.6,3.5,1.8,5.3c0.3,4.9,3.1,5.5,7,4.6c1.8-0.4,3.6-1.3,5.4-1.5c3.3-0.5,6.7-1.4,9.9-0.9
	c6,0.9,11.9,2.2,17.7,4.1c9.4,3,19.4,6,24,15.6c3.7,7.7,6.4,16.3,7.8,24.8c2.9,17.7-1.6,34.5-10.2,49.9
	c-5.9,10.5-13.2,20.3-19.7,30.5c-5,7.7-11.4,13.9-19.4,18.6c-2.7,1.6-5.2,4.2-6.5,7c-4.9,10-9.2,20.3-14,31
	c4.7,3.4,5.8,8.7,5.3,14.3c-0.2,2.8,1.3,3.6,3.4,4.7c3.7,1.9,7.2,4.1,10.4,6.6c2.9,2.2,5.5,5,8.2,7.5c3.9-1.8,4.1-4.7,2.2-7.8
	c-1-1.7-2.6-3.1-4-4.5c-5.6-5.8-14-9.1-14.6-19.1c-0.1-2.5-1-4.6,0.3-7.2c3.2-6.2,6.3-12.5,8.8-18.9c1.2-3.1,2.1-5.9,5.3-7.7
	c8.1-4.4,14.5-10.7,19.7-18.3c2.7-4,5.4-8,8.3-11.9c16.9-22.3,28-46.8,24.3-75.4c-3.7-28-11-39-34.1-46.1
	C478.8,83,466.5,76.7,453.6,83z M414.1,252c4.8,0,9.7,0.1,14.7,0c1.3,0,2.7-0.4,3.9-1c2.4-1.2,4.8-2.6,6.9-4.2
	c1.1-0.9,2.1-2.6,2.1-4c0.1-1.9-0.7-3.8-1.3-6.3C430.5,240.1,421.9,245.7,414.1,252z"/>
<g id="lC0E87.tif">
	<g>
		<path class="st0" d="M411.6,433.6c1.2-6.3,2.5-12.5,3.7-18.8c0.2-1.1,0.5-2.3,0.1-3.2c-2.4-6.6-4.1-13.7-7.5-19.7
			c-4.5-7.7-15.4-10.4-26-7.7c-14.9,3.8-27.8,11.3-39.4,21.3c-0.5,0.5-1.2,0.8-1.1,0.8c0.7-7.2,1.2-14.7,2.2-22.1
			c0.3-1.9,1.7-4,3.2-5.3c4.7-3.9,9.7-7.4,14.8-11.2c-2.8-2.5-4.8-4.3-7-6.3c-3.7,2.1-7.5,4.4-11.5,6.4c-5.3,2.5-10.4,3.4-15.8-0.6
			c-2.3-1.7-5.8-1.6-8.8-2.3c-0.6-0.1-1.3,0.2-1.9,0c-5.7-1.9-11.4-3.9-16.8-5.8c1.3-4.3,2.5-8.2,3.8-12.1c0.2-0.5,0.9-0.9,1.4-1.2
			c5.3-3.5,10.7-6.8,16-10.4c2.3-1.6,4.5-3.4,6.3-5.5c3.4-4,7-7.1,12.7-7.7c5.8-0.6,12.3-10.8,11.5-16.8c-0.3-2-0.7-4-0.9-6
			c-0.5-4.3,0.7-7.5,5.2-9.3c19.7-8.1,29.6-24.1,33.7-43.8c1.2-5.8,2.2-10.8,6.3-15.3c1.5-1.6,1.8-4.2,2.8-6.6
			c0.7,0.2,2,0.3,2.1,0.6c1.1,4.8,6.5,7.4,6.3,13c-0.2,6.1,0.8,7.6,5.6,10.6c-2.3,2-4.6,3.7-6.7,5.7c-3.6,3.4-3.4,4.8,0.9,6.8
			c0.4,6.1-2.2,12.7,3,18.1c2.5-1.8,4.8-3.5,7.1-5.2c3.9,5.8,3.3,8.6-1.9,11.6c-3.7,2.1-6.5,4.8-6.4,10.1c2.3,0.2,5.1-0.4,6.7,0.7
			c6,4.2,9.1,0.2,12.7-3.5c0.6-0.6,2-0.8,2.9-0.7c1.7,0.1,3.5,1.1,5,0.8c9.9-2.1,17.2,2.9,24.7,8c4,2.8,7,5.9,6.6,10.9
			c-0.4,5-2.3,9.3-7.8,10.9c-2.9,0.9-4.5,2.2-4.1,6c0.7,6-7.1,11.7-12.8,9.7c-4.3-1.5-7.5-2.4-8.8,3.7c-0.4,1.7-3.3,3-5.3,4.2
			c-2,1.2-4.2,2.1-6.2,3.1c0.2,0.5,0.4,1,0.6,1.5c1.6,0.2,3.3,0.5,5,0.7c1.6,4.6,3.2,9.1,4.8,13.7c1.2,3.6,2,7.2-1,10.5
			c-0.6,0.6-1.2,1.9-1,2.4c2.9,5.7-0.4,10.5-2.1,15.4c-4.7,13.3-9.8,26.5-14.8,39.8C412.8,433.6,412.2,433.6,411.6,433.6z"/>
		<path class="st0" d="M515.5,137.7c-0.8,3.1-2.5,6.3-2.4,9.4c0.6,16.6-8.4,29.7-15.2,43.5c-1.3,2.6-3.5,4.8-5.8,6.6
			c-12.9,10.1-26.1,19.5-41.5,25.5c-9,3.5-18.4,4-27.5,1.5c-7-1.9-10.4-8.3-12.4-15.2c-2.5-8.3-0.5-16.4,1.9-24.3
			c2.6-8.6,5.1-17.3,8.6-25.6c2.5-5.9,6.3-11.3,9.8-16.8c0.6-0.9,2.9-1.5,4-1.1c4.7,2.1,7.6-0.2,10.6-3.4c3.1-3.3,6.3-6.4,9.7-9.3
			c3.6-3,7.7-4.3,12.6-3.6c4.9,0.7,8-3.6,6.1-7.8c-3.8,4.9-5.3,5.1-10.3,1.2c-4.3-3.3-8.8-2.5-11.8,2.3c-0.7,1.2-1.4,2.4-2.4,4.1
			c-4.1-10.6,1.4-23.3,11.7-27.3c14.1-5.5,27.1-3.5,39.2,6.2c8.2,6.6,9.7,16.3,13.5,24.9c0.9,2,1.1,4.2,1.7,6.3
			C515.5,135.8,515.5,136.8,515.5,137.7z"/>
		<path class="st0" d="M255.2,85.2c-0.3-1.5-0.3-2.5-0.7-3.2c-4.2-8-1.9-15.4,3.7-21c12.1-12.3,24.6-24.9,42.8-27.3
			c9.6-1.2,19.6-0.4,29.3,0.5c16.9,1.5,33.8,3.3,50,9c19.5,6.9,37.2,16.6,51.8,31.3c7.3,7.4,11.4,16.6,13.4,26.7
			c0.4,2.2,0.4,4.9-0.5,6.9c-4.7,10-7,21.5-16.8,28.6c-0.6,0.4-1.2,1-1.6,1.7c-5.1,9.9-14.3,13.2-24.3,15.5
			c-0.8,0.2-1.5,0.5-2.2,0.8c-0.4,0.2-0.7,0.5-1.1,0.8c0.1,0.4,0.1,0.8,0.2,0.9c8.8,4.1,8.6,4.1,7.8,14
			c-1.4,17.7-8.1,33.3-16.8,48.5c-3.8,6.7-5.9,14.6-7.6,22.3c-2.7,11.9-7.2,23-14.3,32.7c-3,4.2-8.4,6.8-13.1,9.6
			c-3.5,2.1-7.5,3.2-11.3,4.8c-0.3,0.1-0.7,0.2-0.8,0.4c-2.6,5.8-6.6,11.4-7.3,17.4c-0.7,6.9-3.6,11.1-8.7,14.8
			c-4.8,3.4-9.1,7.6-14.2,10.6c-4.6,2.6-9.9,4.1-14.9,5.8c-2.2,0.7-4.7,0.5-6.9,1.1c-23.9,6.7-47.6,4.4-70.8-3.2
			c-7.5-2.5-14.1-7.8-21.1-11.9c-24.7-14.3-38.9-35.7-42.9-63.8c-2.1-14.5,1-28.1,8.4-40.8c2.3-3.9,3.3-8.7,6.1-12
			c4.7-5.5,7.3-11,8.3-18.6c1-7.2,6.6-13.8,10.2-20.7c3.5-6.8,6.4-13.8,10.3-20.3c9.9-16.7,20-33.3,30.5-49.7c3-4.6,7-8.9,11.4-12.2
			c2.4-1.7,6.6-1,10-1.2C252.7,83.7,253.6,84.5,255.2,85.2z"/>
		<path class="st0" d="M440,236.1c0.7,2.7,1.7,4.7,1.7,6.7c0,1.4-1.2,3-2.3,4.2c-0.6,0.7-2.4,0.3-2.9,1c-4.1,5.4-9.5,4.4-15.1,3.7
			c-2.8-0.3-5.8,1-8.8,1.3C420.8,246,429.7,240.1,440,236.1z"/>
	</g>
</g>
<path class="st1" d="M453.3,82.7c12.9-6.3,25.2,0,37.2,3.7c23.1,7.2,30.4,18.1,34.1,46.1c3.8,28.6-7.4,53.1-24.3,75.4
	c-2.9,3.9-5.6,7.9-8.3,11.9c-5.2,7.6-11.6,13.9-19.7,18.3c-3.3,1.8-4.1,4.5-5.3,7.7c-2.5,6.5-5.7,12.7-8.8,18.9
	c-1.3,2.6-0.4,4.7-0.3,7.2c0.6,10,9,13.3,14.6,19.1c1.4,1.4,3,2.8,4,4.5c1.9,3.1,1.7,5.9-2.2,7.8c-2.7-2.5-5.2-5.3-8.2-7.5
	c-3.3-2.5-6.8-4.8-10.4-6.6c-2.1-1.1-3.6-1.9-3.4-4.7c0.4-5.7-0.6-10.9-5.3-14.3c4.8-10.6,9.1-20.9,14-31c1.3-2.8,3.9-5.4,6.5-7
	c7.9-4.8,14.4-10.9,19.4-18.6c6.6-10.2,13.8-20,19.7-30.5c8.6-15.4,13.1-32.2,10.2-49.9c-1.4-8.5-4.1-17-7.8-24.8
	c-4.6-9.6-14.6-12.7-24-15.6c-5.8-1.8-11.7-3.2-17.7-4.1c-3.2-0.5-6.6,0.4-9.9,0.9c-1.8,0.3-3.6,1.1-5.4,1.5c-3.9,0.9-6.7,0.3-7-4.6
	c-0.1-1.8-0.7-3.9-1.8-5.3c-6.7-8.5-12.8-17.3-22.4-23.5C405.5,47.6,388.1,42,371,36c-11.3-4-23.8-4.6-35.8-6.2
	c-9-1.2-18-1.5-27-2.5c-7.6-0.8-15,0.4-21.1,4.7c-10.9,7.8-21.3,16.2-31.5,24.8c-3,2.5-5.3,6.3-6.7,10c-1.8,5-4.9,8.5-8.8,11.7
	c-7.7,6.4-14.1,13.9-19.1,22.7c-8.6,15.3-18.1,30.1-27.2,45.1c-0.5,0.8-1.1,1.6-1.3,2.5c-2.7,10.6-9,19.2-14.9,28.2
	c-5.5,8.4-11,17.2-14.4,26.5c-4.9,13.8-11.1,27.4-12,42.5c-0.7,11.8-0.1,23.3,4.8,34.3c0.7,1.6,0.4,3.7,0.8,5.5
	c0.5,2.4,0.7,5.3,2.1,7c4,4.7,6.1,10,7.8,15.7c0.9,2.8,3.1,5.5,5.3,7.5c7.5,6.7,15.2,13.2,23,19.6c1.5,1.3,3.4,2.1,5.2,3
	c3.1,1.7,6.7,2.8,9.3,5.1c5.2,4.5,11,6.2,17.7,5.8c4.3-0.3,7.9,1,11.8,3.4c3.3,2,8.1,2.5,12.1,2.2c10-0.7,17.3,3.6,24.4,10.2
	c3.9,3.6,9.6,5.3,14.4,7.8c0.7,0.3,1.8,0.2,2.2,0.7c5.5,5.7,12.9,6.3,20.1,7.8c1.5,0.3,2.8,1.3,4.3,2c-7,7-16.5,4.4-23.8,0.5
	c-2.9-1.6-6.2-2.5-9.1-4.2c-4.7-2.8-9.5-5.5-13.7-9c-4.9-4.1-9.3-8.2-16.6-7.7c-4.9,0.4-10.8,0.6-14.7-1.8c-6.8-4-13.7-4.2-20.9-4.6
	c-0.5,0-1-0.2-1.3-0.4c-9.4-5.6-19.2-10.7-28.2-16.9c-6.7-4.6-12.4-10.8-18.9-15.8c-5.8-4.5-9.6-10-11.5-17.1
	c-0.5-2-1.4-4.2-2.7-5.8c-3.7-4.3-5.4-9.3-6.3-14.8c-1.4-8.2-4.3-16.3-5.2-24.5c-1.5-13.6-0.3-27.1,5.2-39.9
	c1.1-2.6,2.2-5.2,2.7-7.9c1.6-7.8,4.5-14.8,9.3-21.2c2.3-3,3.5-6.9,5.4-10.2c3.5-6.2,7.3-12.3,10.8-18.4c1.8-3.2,3.5-6.5,5.2-9.8
	c2.8-5.5,5.4-11.1,8.3-16.6c1.5-2.7,3.5-5.1,5.1-7.8c7.4-12.6,14.2-25.6,22.2-37.8c4.6-7,11.4-12.7,17-19.1c2.6-3,5.4-6,7-9.6
	c5.3-11.4,14.9-18.7,24.2-26.3c10.1-8.2,20.5-16.5,34.1-17.2c10.4-0.5,20.9,0.7,31.2,1.8c11.1,1.1,22.2,3,33.3,4.6
	c1.2,0.2,2.5,0.2,3.7,0.6c15.2,5.9,30.4,11.8,45.5,18c4.3,1.8,8.1,4.6,12.1,7C438.1,59.2,445.6,70.6,453.3,82.7z"/>
<g>
	<path class="st1" d="M580.4,725.9c-3.7,2.1-7.3,4.2-11.5,6.7c-9-14-18.1-28-27.2-42.2c4.2-2.9,8.3-5.8,12-8.3
		c5.2,7.4,10.2,14.6,15.1,21.8c4.1,6.1,8,12.3,11.9,18.5c0.5,0.8,0.6,1.8,0.9,2.7C581.2,725.3,580.8,725.6,580.4,725.9z"/>
	<path class="st1" d="M269.4,682.7c4,2.2,7.7,4.1,11.1,6.3c1,0.6,1.6,2.3,1.8,3.5c0.9,8.7,1.6,17.5,2.4,26.2
		c0.1,1.2,0.3,2.3,1.3,3.8c4.3-7.7,8.6-15.3,13.1-23.2c4.2,2.4,8.3,4.6,12.7,7.1c-8.2,14.7-16.3,29.4-24.7,44.3
		c-4.1-2.3-8.1-4.4-11.8-6.7c-0.8-0.5-1.1-2-1.2-3.2c-0.8-8.1-1.5-16.3-2.3-24.4c-0.2-1.6-0.5-3.2-0.7-4.8c-0.3-0.1-0.6-0.1-0.9-0.2
		c-4.2,7.5-8.4,14.9-12.8,22.7c-4.2-2.3-8.3-4.6-12.7-7.1C253,712.3,261.1,697.7,269.4,682.7z"/>
	<path class="st1" d="M440.4,777.6c-3.2-16.8-6.4-33.2-9.6-49.9c5.2-1,10-1.9,15.2-2.9c1.2,5.9,2.3,11.6,3.5,17.5
		c5.9-1.1,11.2-2.1,17.1-3.2c-1.1-5.8-2.2-11.5-3.3-17.5c5-1,9.9-1.9,15.2-2.9c3.2,16.6,6.4,33.1,9.6,49.9c-5.1,1-10.1,1.9-15.3,2.9
		c-1.3-6.8-2.6-13.4-4-20.2c-5.7,1.1-11.2,2.1-17.1,3.2c1.3,6.8,2.5,13.3,3.8,20.3C450.4,775.7,445.6,776.6,440.4,777.6z"/>
	<path class="st1" d="M660.9,571c3,1.3,5.9,2.6,9.2,4.1c-3.3,7.4-6.5,14.7-9.9,22.3c3.1,1.4,6,2.8,9.3,4.3
		c3.7-8.3,7.4-16.4,11.2-24.8c3.4,1.5,6.6,2.9,10.3,4.6c-5.8,13-11.6,25.9-17.5,39c-15.4-6.9-30.6-13.7-46.3-20.8
		c5.7-12.8,11.3-25.4,17.1-38.3c3.3,1.4,6.4,2.8,9.7,4.3c-3.6,8-7.1,15.9-10.7,24.1c2.6,1.2,4.9,2.3,7.5,3.6
		C654.2,585.8,657.5,578.6,660.9,571z"/>
	<path class="st1" d="M356.4,774c-2.5-0.7-4.6-1.2-6.7-1.9c-2.9-0.8-5.8-1.7-8.8-2.6c-0.1-2.9-0.1-5.5-0.2-8.8
		c-5.3-1.5-10.7-3.3-16.3-4.5c-0.9-0.2-2.7,1.8-3.3,3.1c-1.6,3.2-3.5,4-6.9,2.6c-3.3-1.4-6.9-2.1-10.8-3.3
		c9.1-12.1,17.9-24,26.7-35.7c5.8-7.7,5.8-7.7,15-5c7.1,2.1,7.1,2.1,7.6,9.2C354,742.6,355.1,758,356.4,774z M340.1,731.8
		c-0.3,0-0.5-0.1-0.8-0.1c-3.1,4.7-6.1,9.5-9.4,14.5c3.8,1,7,1.9,10.5,2.9C340.3,743,340.2,737.4,340.1,731.8z"/>
	<path class="st1" d="M373.3,759.4c4.9,0,9.5-0.1,14.1-0.1c2.2,7,4.8,9.4,10,9.1c2.9-0.1,5.4-1.1,6.2-4.2c0.8-3.2-1.3-5-4-6.1
		c-4.6-1.7-9.3-3.1-13.7-5.1c-5.5-2.4-9.7-6.2-9.8-12.9c-0.1-5.6,3.1-10.6,8.3-12.6c8.5-3.3,17-2.7,25.3,0.7c5.3,2.1,8,6.9,8.3,13.4
		c-4.2,0-8.4,0.2-12.6,0c-0.8,0-1.8-1.3-2.2-2.3c-1.7-3.6-5.6-5.7-9.4-4.4c-1.4,0.5-2.9,2.1-3.2,3.4c-0.2,0.9,1.4,2.7,2.5,3.4
		c1.9,1,4.1,1.4,6.2,2.1c3.1,1.1,6.3,2,9.3,3.3c7.1,3.1,10.5,8,10.2,14.5c-0.4,7.3-4.9,13.2-12.2,15.2c-8.1,2.2-16.2,1.6-24-1.6
		C376.7,772.9,373.3,766.9,373.3,759.4z"/>
	<path class="st1" d="M486.5,717.5c4-1.9,7.8-3.6,11.5-5.5c2.1-1.1,3.4-0.7,5,1.1c7,7.9,14.2,15.7,21.4,23.6c0.5,0.5,1,0.9,2.3,2.1
		c-0.2-2.1-0.3-3.2-0.4-4.3c-1.4-10-2.7-20.1-4.2-30.1c-0.4-2.5,0.4-3.8,2.6-4.8c3.7-1.5,7.3-3.2,11.3-5c1,12.8,2,25.1,3,37.5
		c0.4,4.6,0.7,9.2,1.1,13.9c0.2,1.8-0.1,2.9-2,3.6c-3.7,1.5-7.3,3.5-11,4.9c-1,0.4-3,0.2-3.7-0.5c-12.1-11.7-24.1-23.5-36.1-35.3
		C486.9,718.5,486.8,718.1,486.5,717.5z"/>
	<path class="st1" d="M640.3,649.6c4.8-6.8,9.4-13.3,14.1-20c3.3,2.3,6.5,4.5,10.1,7c-7.7,11-15.3,21.8-23.1,32.8
		c-13.8-9.8-27.5-19.4-41.5-29.2c3-4.3,5.8-8.4,8.9-12.7C619.3,634.9,629.6,642.1,640.3,649.6z"/>
	<path class="st1" d="M602.8,691.2c3.2-3,6-5.7,8.9-8.5c2.8-2.7,5.6-5.4,8.8-8.4c2.9,2.9,5.5,5.7,8.5,8.8
		c-9.5,9.2-19,18.3-28.9,27.8c-11.8-12.3-23.4-24.3-35.2-36.6c3.7-3.6,7.3-7,11.1-10.7C585,672.8,593.8,681.9,602.8,691.2z"/>
</g>
<g>
	<path class="st2" d="M274.2,554.9l32.4-2.6l1.2,14.7l-13.2,1.1l1.1,13.9l11.8-1l1.1,14l-11.8,1l2.5,30.9l-19.1,1.6L274.2,554.9z"/>
	<path class="st2" d="M330.3,550.4l6,73.5l-19.1,1.6l-6-73.5L330.3,550.4z"/>
	<path class="st2" d="M376.4,546.6l1.2,14.7l-11.3,0.9L371,621l-19.1,1.6l-4.8-58.8l-11.3,0.9l-1.2-14.7L376.4,546.6z"/>
	<path class="st2" d="M423.4,542.8l6,73.5l-16.7,1.4L400,585l2.7,33.4l-16,1.3l-6-73.5l16-1.3l13.4,32.2l-2.7-33.1L423.4,542.8z"/>
	<path class="st2" d="M431.1,542.2l31.9-2.6l1.2,14.7l-12.7,1l1.1,13.9l11.9-1l1.1,14l-11.9,1l1.3,16.2l14-1.1l1.2,14.7l-33.1,2.7
		L431.1,542.2z"/>
	<path class="st2" d="M512,557.9l-17.7,1.4l-0.4-5.4c-0.2-2.5-0.6-4.1-1.1-4.8c-0.5-0.7-1.3-0.9-2.4-0.9c-1.1,0.1-2,0.6-2.5,1.6
		c-0.5,1-0.7,2.4-0.5,4.3c0.2,2.5,0.7,4.3,1.4,5.5c0.7,1.2,2.7,2.5,5.8,4.1c8.9,4.4,14.6,8.1,17.1,11.1c2.5,3.1,4,8.2,4.6,15.4
		c0.4,5.2,0.1,9.1-0.9,11.7c-1,2.6-3.2,4.9-6.6,6.8c-3.4,2-7.4,3.1-12,3.5c-5.1,0.4-9.6-0.2-13.3-1.8c-3.8-1.6-6.3-3.9-7.7-6.8
		c-1.4-2.9-2.3-7.1-2.7-12.6l-0.4-4.8l17.7-1.4l0.7,8.9c0.2,2.8,0.6,4.5,1.2,5.2c0.6,0.7,1.5,1.1,2.8,1s2.2-0.7,2.7-1.7
		c0.5-1,0.7-2.6,0.6-4.5c-0.4-4.3-1.2-7.1-2.5-8.3c-1.3-1.2-4.5-3.2-9.5-5.9c-5-2.8-8.3-4.8-10-6.1c-1.7-1.3-3.1-3.2-4.3-5.6
		c-1.2-2.4-2-5.6-2.3-9.5c-0.5-5.6-0.1-9.8,1.1-12.5c1.2-2.7,3.4-4.9,6.5-6.7c3.1-1.7,6.9-2.8,11.4-3.1c5-0.4,9.3,0.1,12.9,1.4
		c3.6,1.3,6.1,3.1,7.4,5.5s2.2,6.4,2.7,12.3L512,557.9z"/>
	<path class="st2" d="M560,554l-17.7,1.4l-0.4-5.4c-0.2-2.5-0.6-4.1-1.1-4.8c-0.5-0.7-1.3-0.9-2.4-0.9c-1.1,0.1-2,0.6-2.5,1.6
		c-0.5,1-0.7,2.4-0.5,4.3c0.2,2.5,0.7,4.3,1.4,5.5c0.7,1.2,2.7,2.5,5.8,4.1c8.9,4.4,14.6,8.1,17.1,11.1c2.5,3.1,4,8.2,4.6,15.4
		c0.4,5.2,0.1,9.1-0.9,11.7c-1,2.6-3.2,4.9-6.6,6.8c-3.4,2-7.4,3.1-12,3.5c-5.1,0.4-9.6-0.2-13.3-1.8c-3.8-1.6-6.3-3.9-7.7-6.8
		c-1.4-2.9-2.3-7.1-2.7-12.6l-0.4-4.8l17.7-1.4l0.7,8.9c0.2,2.8,0.6,4.5,1.2,5.2c0.6,0.7,1.5,1.1,2.8,1c1.3-0.1,2.2-0.7,2.7-1.7
		c0.5-1,0.7-2.6,0.6-4.5c-0.4-4.3-1.2-7.1-2.5-8.3c-1.3-1.2-4.5-3.2-9.5-5.9c-5-2.8-8.3-4.8-10-6.1c-1.7-1.3-3.1-3.2-4.3-5.6
		c-1.2-2.4-2-5.6-2.3-9.5c-0.5-5.6-0.1-9.8,1.1-12.5c1.2-2.7,3.4-4.9,6.5-6.7c3.1-1.7,6.9-2.8,11.4-3.1c5-0.4,9.3,0.1,12.9,1.4
		c3.6,1.3,6.1,3.1,7.4,5.5c1.3,2.3,2.2,6.4,2.7,12.3L560,554z"/>
</g>
<g>
	<g>
		<g>
			<path class="st2" d="M442.6,467.9c-0.4,0.7-0.7,1.3-1,1.9c-7.1,13.9-14.2,27.8-21.3,41.6c-0.3,0.5-1.1,1.1-1.7,1.2
				c-8.7,0.3-17.4,0.5-26.2,0.7c-0.7,0-1.4-0.2-2.3-0.4c2-5,3.9-9.9,5.9-14.7c8.1-18.8,16.2-37.6,24.5-56.2
				c7.4-16.5,14.1-33.2,19.7-50.3c3.5-10.7,6.3-21.7,9.6-32.4c1.1-3.5,2.5-7,3.9-10.4c0.2-0.6,0.8-1.1,1.4-1.3
				c8.3-3,16.8-5.1,25.7-5.2c4.9-0.1,9.8,0.3,14.7,0.5c0.6,0,1.2,0.3,1.9,0.4c-9.7,24.4-24.5,46.1-33.8,70.7c1,0.6,2.1,1.2,3.4,2
				c1.7-2.5,3.3-4.9,5-7.3c5-7,9.8-14.1,15.2-20.8c4.9-6.1,10.8-11.4,17.3-15.8c6-4,12.8-4.6,19.8-3.8c1.6,0.2,3.1,0.5,5,0.8
				c-2,2.9-3.9,5.7-5.9,8.5c-9.1,12.8-18.2,25.6-27.3,38.5c-2.6,3.7-5.2,7.3-7.7,11c-0.6,0.8-1,1.8-1.3,2.8
				c-5.3,20.7-10.6,41.5-15.9,62.2c-0.5,2.1-1,4.2-1.6,6.3c-0.2,0.6-0.8,1.4-1.3,1.6c-9.9,2.7-19.8,5.4-29.7,8.1
				c-0.2,0.1-0.5,0.1-1.1,0.1c0.4-1.9,0.8-3.7,1.2-5.4c2.5-10.6,4.9-21.2,7.4-31.8c0.2-1,0.1-1.6-0.9-1.9
				C444.4,468.6,443.6,468.2,442.6,467.9z"/>
			<path class="st2" d="M482.6,342.2c4.4,0,8.7,0.3,13.1,0.5c0.6,0,1.2,0.3,1.9,0.4c-9.7,24.4-24.5,46.1-33.8,70.7
				c1,0.6,2.1,1.2,3.4,2c1.7-2.5,3.3-4.9,5-7.3c5-7,9.8-14.1,15.2-20.8c4.9-6.1,10.8-11.4,17.3-15.8c4.6-3.1,9.6-4.1,14.8-4.1
				c1.7,0,3.3,0.1,5,0.3c1.6,0.2,3.1,0.5,5,0.8c-2,2.9-3.9,5.7-5.9,8.5c-9.1,12.8-18.2,25.6-27.3,38.5c-2.6,3.7-5.2,7.3-7.7,11
				c-0.6,0.8-1,1.8-1.3,2.8c-5.3,20.7-10.6,41.5-15.9,62.2c-0.5,2.1-1,4.2-1.6,6.3c-0.2,0.6-0.8,1.4-1.3,1.6
				c-9.9,2.7-19.8,5.4-29.7,8.1c-0.2,0.1-0.5,0.1-1.1,0.1c0.4-1.9,0.8-3.7,1.2-5.4c2.5-10.6,4.9-21.2,7.4-31.8
				c0.2-1,0.1-1.6-0.9-1.9c-0.9-0.3-1.7-0.6-2.6-0.9c-0.4,0.7-0.7,1.3-1,1.9c-7.1,13.9-14.2,27.8-21.3,41.6
				c-0.3,0.5-1.1,1.1-1.7,1.2c-8.7,0.3-17.4,0.5-26.2,0.7c0,0,0,0-0.1,0c-0.7,0-1.3-0.2-2.2-0.4c2-5,3.9-9.9,5.9-14.7
				c8.1-18.8,16.2-37.6,24.5-56.2c7.4-16.5,14.1-33.2,19.7-50.3c3.5-10.7,6.3-21.7,9.6-32.4c1.1-3.5,2.5-7,3.9-10.4
				c0.2-0.6,0.8-1.1,1.4-1.3c8.3-3,16.8-5.1,25.7-5.2C481.5,342.2,482.1,342.2,482.6,342.2 M482.6,331.5c-0.6,0-1.3,0-1.9,0
				c-9.1,0.2-18.6,2.1-29.1,5.9c-3.5,1.3-6.4,4-7.7,7.4c-0.2,0.6-0.5,1.2-0.7,1.8c-1.2,3-2.5,6.1-3.5,9.5c-1.3,4.2-2.5,8.5-3.7,12.7
				c-1.8,6.5-3.7,13.1-5.8,19.5c-5.1,15.5-11.5,31.6-19.4,49.3c-6.9,15.6-13.8,31.4-20.4,46.8c-1.4,3.2-2.8,6.4-4.1,9.6
				c-1.5,3.4-2.9,6.9-4.2,10.3c-0.6,1.5-1.2,3.1-1.8,4.6l-4.9,12.2l13,2.3c0.1,0,0.3,0.1,0.4,0.1c0.8,0.2,2.1,0.5,3.7,0.5
				c0.1,0,0.2,0,0.3,0c9.7-0.2,17.9-0.4,26.3-0.7c2.9-0.1,5.7-1.3,7.9-3.3l12-1.5c0.1,0,0.2,0,0.3,0c0.5,0,1.3-0.1,2.3-0.4l3.9-1.1
				c8.5-2.3,17.2-4.7,25.9-7c4.8-1.3,7.7-5.4,8.7-8.8c0.5-1.7,0.9-3.3,1.3-4.9c0.2-0.6,0.3-1.3,0.5-1.9l1.5-5.7
				c4.7-18.4,9.6-37.4,14.4-56c2.4-3.5,4.9-7,7.3-10.4l0.2-0.3c3.9-5.5,7.8-11,11.7-16.5c5.2-7.3,10.4-14.6,15.6-21.9
				c1.4-1.9,2.7-3.8,4.1-5.8c0.6-0.9,1.3-1.8,1.9-2.8l9.7-14l-16.8-2.7c-0.5-0.1-1.1-0.2-1.6-0.3c-1.2-0.2-2.5-0.4-3.9-0.6
				c-2.2-0.2-4.2-0.3-6.1-0.3c-7,0-13.1,1.5-18.4,4.5c2.3-4.7,4.4-9.6,6.4-14.5l4.6-11.7l-12.2-2.7l-0.2,0c-0.7-0.2-2-0.5-3.6-0.6
				c-1.3-0.1-2.7-0.1-4-0.2C489.1,331.7,485.9,331.5,482.6,331.5L482.6,331.5z"/>
		</g>
		<g>
			<path class="st2" d="M700.8,406.9c-3.2,41.9-10.2,83.2-22.6,123.9c-11.5-1.3-23.4-2.5-35.2-3.8c-1.3-0.1-1.5-0.7-1.1-1.8
				c0.5-1.6,1-3.1,1.6-5.1c-2.7,0.9-4.9,1.8-7.3,2.5c-7.4,2.5-14.9,4.4-22.7,4.5c-9.4,0.2-17.8-2.8-24.3-9.9
				c-2.4-2.6-3.2-5.7-2.2-9.3c4.2-14.5,8.9-28.8,15.9-42.2c9.1-17.4,15.9-35.7,22.7-54.1c0.7-1.8,1.4-3.6,1.9-5.4
				c0.3-1,0.8-1.4,1.9-1.5c8.6-0.9,16.8,0.8,24.9,3.4c4.8,1.6,4.9,1.6,3.4,6.5c-3.5,11.1-7.1,22.2-10.6,33.4
				c-4.5,14.2-8.8,28.5-13.3,42.8c-1,3.3-2.3,6.5-3.3,9.9c-0.4,1.4-0.5,2.9-0.2,4.3c0.6,3,3.2,3.6,5.6,3.6c2.9,0.1,5.9-0.3,8.8-0.7
				c0.6-0.1,1.5-0.7,1.7-1.3c5.2-16,10.9-31.8,15.4-47.9c4-14.5,6.9-29.3,9.8-44.1c0.9-4.7,3.4-6.3,7.6-7
				C685,406.8,696.5,406.2,700.8,406.9z"/>
			<path class="st2" d="M634.2,404.5c6.9,0,13.6,1.5,20.2,3.7c4.8,1.6,4.9,1.6,3.4,6.5c-3.5,11.1-7.1,22.2-10.6,33.4
				c-4.5,14.2-8.8,28.5-13.3,42.8c-1,3.3-2.3,6.5-3.3,9.9c-0.4,1.4-0.5,2.9-0.2,4.3c0.6,3,3.2,3.6,5.6,3.6c0.2,0,0.4,0,0.6,0
				c2.7,0,5.5-0.4,8.2-0.7c0.6-0.1,1.5-0.7,1.7-1.3c5.2-16,10.9-31.8,15.4-47.9c4-14.5,6.9-29.3,9.8-44.1c0.9-4.7,3.4-6.3,7.6-7
				c4-0.6,10.6-1,15.8-1c2.4,0,4.4,0.1,5.8,0.3c-3.2,41.9-10.2,83.2-22.6,123.9c-11.5-1.3-23.4-2.5-35.2-3.8
				c-1.3-0.1-1.5-0.7-1.1-1.8c0.5-1.6,1-3.1,1.6-5.1c-2.7,0.9-4.9,1.8-7.3,2.5c-7.4,2.5-14.9,4.4-22.7,4.5c-0.2,0-0.5,0-0.7,0
				c-9.1,0-17.2-3-23.6-9.9c-2.4-2.6-3.2-5.7-2.2-9.3c4.2-14.5,8.9-28.8,15.9-42.2c9.1-17.4,15.9-35.7,22.7-54.1
				c0.7-1.8,1.4-3.6,1.9-5.4c0.3-1,0.8-1.4,1.9-1.5C631,404.6,632.6,404.5,634.2,404.5 M634.2,393.8c-2,0-4,0.1-5.9,0.3
				c-5.3,0.6-9.4,3.9-10.9,9c-0.4,1.2-0.8,2.5-1.3,3.8l-0.4,1.1c-6.4,17.5-13.1,35.7-22.1,52.8c-7.6,14.4-12.5,29.8-16.7,44.2
				c-2.1,7.1-0.4,14.2,4.6,19.5c8.1,8.7,18.9,13.3,31.4,13.3c0.3,0,0.6,0,0.9,0c6.5-0.1,13-1.2,20.8-3.5c1.5,1.5,3.9,2.9,7.3,3.3
				c9.2,1,18.4,2,27.4,2.9l7.8,0.8l8.8,1l2.6-8.5c12.1-39.7,19.6-81,23-126.2l0.7-9.8l-9.7-1.6c-1.9-0.3-4.3-0.5-7.5-0.5
				c-5.7,0-12.8,0.5-17.4,1.2c-5.3,0.8-9,2.9-11.5,5.5c-2.5-2.7-5.7-3.7-8.4-4.6C648.8,395.2,641.3,393.8,634.2,393.8L634.2,393.8z
				 M636,497.9C636,497.9,636,497.9,636,497.9L636,497.9L636,497.9z"/>
		</g>
		<g>
			<path class="st2" d="M103.4,410.2c-1.9,11.3-5,22-8.8,32.5c-4.4,12-8.8,24.1-13.1,36.2c-0.2,0.6-0.3,1.6,0.1,2.1
				c6.5,9.7,9.9,20.6,12.1,32c2.5,13.1,5.2,26.1,7.8,39.2c0,0.2,0,0.4,0.1,0.7c-12.4,1.7-24.8,3.5-37.4,5.2
				c-0.9-4.6-1.8-9.2-2.7-13.7c-1.6-8.1-3.3-16.2-4.7-24.3c-0.4-2-1.3-2.2-2.8-2c-0.6,0.1-1.1,0.3-1.8,0.4
				c-1.4,13.5-2.8,27-4.2,40.8c-7.7,1-15.3,2-23.2,3.1c0-2.3,0-4.3,0-6.3c0.3-6.2,0.6-12.4,0.8-18.7c0.3-7.3,0.6-14.6,0.9-21.9
				c0.1-3.6,0.5-7.2,0.3-10.8c-0.5-8.8-1.3-17.6-2-26.4c-0.4-5.6-0.8-11.1-1.2-16.7c-0.6-9.2-1.2-18.4-1.8-27.6c0-0.6,0-1.1,0-1.9
				c9.8-2,19.5-4.1,29.4-6.2c-0.1,13.5-0.1,26.8-0.2,40.3c2.3-1,4.4-1.7,6.3-2.7c0.6-0.3,1-1.1,1.2-1.8c4.4-12.7,8.9-25.4,13.2-38.2
				c1-3,2.4-4.8,5.7-5.7C86.1,415.6,94.6,412.9,103.4,410.2z"/>
			<path class="st2" d="M103.4,410.2c-1.9,11.3-5,22-8.8,32.5c-4.4,12-8.8,24.1-13.1,36.2c-0.2,0.6-0.3,1.6,0.1,2.1
				c6.5,9.7,9.9,20.6,12.1,32c2.5,13.1,5.2,26.1,7.8,39.2c0,0.2,0,0.4,0.1,0.7c-12.4,1.7-24.8,3.5-37.4,5.2
				c-0.9-4.6-1.8-9.2-2.7-13.7c-1.6-8.1-3.3-16.2-4.7-24.3c-0.3-1.6-0.9-2.1-2-2.1c-0.3,0-0.5,0-0.9,0.1c-0.6,0.1-1.1,0.3-1.8,0.4
				c-1.4,13.5-2.8,27-4.2,40.8c-7.7,1-15.3,2-23.2,3.1c0-2.3,0-4.3,0-6.3c0.3-6.2,0.6-12.4,0.8-18.7c0.3-7.3,0.6-14.6,0.9-21.9
				c0.1-3.6,0.5-7.2,0.3-10.8c-0.5-8.8-1.3-17.6-2-26.4c-0.4-5.6-0.8-11.1-1.2-16.7c-0.6-9.2-1.2-18.4-1.8-27.6c0-0.6,0-1.1,0-1.9
				c9.8-2,19.5-4.1,29.4-6.2c-0.1,13.5-0.1,26.8-0.2,40.3c2.3-1,4.4-1.7,6.3-2.7c0.6-0.3,1-1.1,1.2-1.8c4.4-12.7,8.9-25.4,13.2-38.2
				c1-3,2.4-4.8,5.7-5.7C86.1,415.6,94.6,412.9,103.4,410.2 M116.8,395.1l-16.5,4.9c-2.5,0.8-5.1,1.5-7.6,2.3
				c-6.2,1.9-12.1,3.7-18,5.2c-8.9,2.3-11.7,8.8-12.8,11.8l0-6.6L49,415.4l-16.5,3.5l-12.9,2.7l-8.5,1.8l0,8.6c0,0.2,0,0.4,0,0.5
				c0,0.6,0,1.3,0,2.1l0.3,4.4c0.5,7.6,1,15.5,1.5,23.3c0.4,5.3,0.8,10.7,1.1,15.8l0.1,0.9c0.2,2.7,0.4,5.5,0.6,8.2
				c0.5,5.9,1,12,1.3,18c0.1,2,0,4.2-0.1,6.5c-0.1,1.1-0.1,2.1-0.2,3.2c-0.3,8.5-0.6,15.4-0.9,21.9c-0.1,2.8-0.3,5.7-0.4,8.5
				c-0.2,3.4-0.3,6.8-0.5,10.2c-0.1,1.6-0.1,3.2-0.1,4.7c0,0.7,0,1.3,0,2l-0.1,12.3l12.2-1.6l10-1.3l13.2-1.8l6-0.8l0.2,1l10-1.4
				l14.2-2l23.2-3.2l10-1.4l-0.9-10.1l0,0c0-0.3-0.1-1-0.2-1.8c-0.8-4.1-1.6-8.2-2.5-12.3c-1.8-8.8-3.6-17.9-5.3-26.8
				c-2.5-12.9-6.1-23.2-11.3-32c3.4-9.5,7.1-19.7,11.8-32.5c4.3-11.8,7.4-23.1,9.3-34.4L116.8,395.1L116.8,395.1z"/>
		</g>
		<g>
			<path class="st2" d="M114.3,549.2c0.3-3.9,0.5-7.5,0.7-11.1c0.4-7.2,0.9-14.3,1.3-21.5c0.5-8.4,1.1-16.9,1.7-25.3
				c0.6-8.4,1.1-16.7,1.7-25.1c0.6-8.4,1.1-16.7,1.7-25.1c0.1-1,0-2.1,0.4-3c0.2-0.6,0.9-1.3,1.5-1.4c6.3-1.5,12.6-3,18.9-4.4
				c1.9-0.4,3.8-0.7,5.7-0.8c0.5,0,1.3,0.6,1.5,1.1c0.6,1.4,0.9,2.9,1.3,4.5c3.2-2.2,6-4.3,9.1-6.2c7-4.4,14.4-8.1,22.7-9.5
				c7.1-1.2,13.5,0.2,19,5c3.7,3.3,4.6,7.8,3.8,12.4c-3.5,19.2-7.2,38.4-10.8,57.6c-1.9,9.9-3.8,19.7-5.4,29.6
				c-0.5,2.9,0.5,5.8,1.9,8.5c1.1,1.9,0.8,2.3-1.4,2.7c-9.6,1.5-19.2,2.9-29.1,4.5c0.2-2.5,0.3-4.9,0.5-7.3c0.5-5.4,1-10.7,1.5-16
				c0.7-7.7,1.4-15.3,2.1-23c0.9-10.2,1.7-20.3,2.4-30.5c0.4-4.8,0.8-9.7-0.7-14.5c-1.3-3.9-5.1-6.4-9.2-6c-4.2,0.4-7.7,3.7-8,7.8
				c-0.4,5.2-0.7,10.4-0.9,15.5c-0.4,9.6-0.6,19.1-0.9,28.7c-0.3,8.5-0.7,16.9-1.3,25.4c-0.5,6.7-1.4,13.4-1.9,20.1
				c-0.2,1.9-1.3,1.7-2.5,1.7c-8.8,0.2-16.9,3.3-25.3,5.4C115.5,549,115.1,549.1,114.3,549.2z"/>
			<path class="st2" d="M187,420.9c5.3,0,10.1,1.7,14.3,5.4c3.7,3.3,4.6,7.8,3.8,12.4c-3.5,19.2-7.2,38.4-10.8,57.6
				c-1.9,9.9-3.8,19.7-5.4,29.6c-0.5,2.9,0.5,5.8,1.9,8.5c1.1,1.9,0.8,2.3-1.4,2.7c-9.6,1.5-19.2,2.9-29.1,4.5
				c0.2-2.5,0.3-4.9,0.5-7.3c0.5-5.4,1-10.7,1.5-16c0.7-7.7,1.4-15.3,2.1-23c0.9-10.2,1.7-20.3,2.4-30.5c0.4-4.8,0.8-9.7-0.7-14.5
				c-1.2-3.6-4.5-6-8.3-6c-0.3,0-0.6,0-0.9,0c-4.2,0.4-7.7,3.7-8,7.8c-0.4,5.2-0.7,10.4-0.9,15.5c-0.4,9.6-0.6,19.1-0.9,28.7
				c-0.3,8.5-0.7,16.9-1.3,25.4c-0.5,6.7-1.4,13.4-1.9,20.1c-0.2,1.9-1.3,1.7-2.5,1.7c-8.8,0.2-16.9,3.3-25.3,5.4
				c-0.4,0.1-0.9,0.2-1.6,0.3c0.3-3.9,0.5-7.5,0.7-11.1c0.4-7.2,0.9-14.3,1.3-21.5c0.5-8.4,1.1-16.9,1.7-25.3
				c0.6-8.4,1.1-16.7,1.7-25.1c0.6-8.4,1.1-16.7,1.7-25.1c0.1-1,0-2.1,0.4-3c0.2-0.6,0.9-1.3,1.5-1.4c6.3-1.5,12.6-3,18.9-4.4
				c1.9-0.4,3.8-0.7,5.7-0.8c0,0,0,0,0,0c0.5,0,1.3,0.6,1.5,1.1c0.6,1.4,0.9,2.9,1.3,4.5c3.2-2.2,6-4.3,9.1-6.2
				c7-4.4,14.4-8.1,22.7-9.5C183.9,421.1,185.5,420.9,187,420.9 M187,410.2c-2.1,0-4.3,0.2-6.5,0.6c-8.6,1.5-16.8,4.9-26.6,11
				c-0.2,0.1-0.4,0.2-0.6,0.4c-1.7-0.9-3.6-1.4-5.6-1.4h-0.3l-0.4,0c-2.5,0.2-5,0.5-7.3,1c-6.3,1.4-12.8,2.9-19.1,4.4
				c-4.2,1-7.7,4.3-9.1,8.5c-0.7,2.1-0.8,4-0.8,5.2c0,0.2,0,0.3,0,0.5c-0.5,6.9-0.9,13.7-1.4,20.6l-0.3,4.6l-0.3,4.5
				c-0.5,6.9-0.9,13.7-1.4,20.6l-0.4,5.8c-0.4,6.5-0.9,13.1-1.3,19.6c-0.3,4.1-0.5,8.3-0.8,12.4c-0.2,3-0.4,6.1-0.6,9.1
				c-0.2,2.5-0.3,4.9-0.5,7.5l-0.2,3.6l-0.9,13.5l13.3-2.2c0.2,0,0.4-0.1,0.5-0.1c0.5-0.1,1.1-0.2,1.8-0.3c2.4-0.6,4.8-1.2,7-1.9
				c5.6-1.6,10.9-3,16-3.2l0.2,0c2.9,0,5.2-0.8,7.1-2l-0.1,1.9l13.2-2l7.9-1.2c7.2-1.1,14.2-2.2,21.3-3.2c4.8-0.7,8.1-3,9.9-6.6
				c1.8-3.7,1.5-7.6-0.8-11.8c-0.5-1-0.7-1.5-0.7-1.7c1.3-7.7,2.8-15.5,4.2-23.1c0.4-2.1,0.8-4.1,1.2-6.2c1.1-5.9,2.2-11.8,3.3-17.7
				c2.5-13.1,5-26.6,7.5-40c1.6-8.8-1-16.9-7.2-22.3C202.3,413,195.1,410.2,187,410.2L187,410.2z"/>
		</g>
		<g>
			<path class="st2" d="M563.2,390.6c10.7,0.7,21.2,2.1,30.9,6.7c5.4,2.6,8.6,6.7,7.9,13c-0.2,2-0.5,3.9-0.9,5.9
				c-2.3,10.2-5.7,20.2-11.3,28.8c-5.7,8.7-9.7,18.3-15.8,26.8c-5.8,8.2-12.5,15.4-20.7,21.3c-6.9,5-14.8,7.2-23.2,8.1
				c-11.2,1.2-22.3,0.5-33.3-1.3c-4.5-0.7-8.9-2.2-12.5-5.1c-3-2.4-4.2-5.6-3.8-9.5c1-8.5,5.2-15.3,10.4-21.8
				c6.8-8.4,13.2-17.2,19.3-26.1c6.1-8.9,11.3-18.3,17.2-27.3c6.7-10.1,15.9-17,28.2-19c1.3-0.2,2.5-0.4,3.8-0.5
				C560.8,390.5,562,390.6,563.2,390.6z M524.5,486.9c6.2,0,9.4-2.1,11.5-5.7c4.1-7,8.1-14.1,11.8-21.4c4.6-9.2,8.9-18.5,13.3-27.7
				c2.4-5,5-9.8,7.4-14.8c2.5-5.4-0.4-12-7.5-11.6c-5.6,0.3-9.2,3.5-11.5,8.3c-4.6,9.9-9,20-13.8,29.9c-3.5,7.2-7.2,14.3-10.9,21.4
				c-1.8,3.5-4.1,6.8-5.6,10.5C517,481.3,519.9,487,524.5,486.9z"/>
			<path class="st2" d="M560.8,390.5c0.8,0,1.6,0,2.4,0c10.7,0.7,21.2,2.1,30.9,6.7c5.4,2.6,8.6,6.7,7.9,13c-0.2,2-0.5,3.9-0.9,5.9
				c-2.3,10.2-5.7,20.2-11.3,28.8c-5.7,8.7-9.7,18.3-15.8,26.8c-5.8,8.2-12.5,15.4-20.7,21.3c-6.9,5-14.8,7.2-23.2,8.1
				c-3.8,0.4-7.5,0.6-11.3,0.6c-7.4,0-14.7-0.7-22-1.9c-4.5-0.7-8.9-2.2-12.5-5.1c-3-2.4-4.2-5.6-3.8-9.5c1-8.5,5.2-15.3,10.4-21.8
				c6.8-8.4,13.2-17.2,19.3-26.1c6.1-8.9,11.3-18.3,17.2-27.3c6.7-10.1,15.9-17,28.2-19c1.3-0.2,2.5-0.4,3.8-0.5
				C560,390.5,560.4,390.5,560.8,390.5 M524.5,486.9C524.5,486.9,524.5,486.9,524.5,486.9c6.2,0,9.4-2.1,11.5-5.7
				c4.1-7,8.1-14.1,11.8-21.4c4.6-9.2,8.9-18.5,13.3-27.7c2.4-5,5-9.8,7.4-14.8c2.5-5.2-0.3-11.6-6.9-11.6c-0.2,0-0.4,0-0.6,0
				c-5.6,0.3-9.2,3.5-11.5,8.3c-4.6,9.9-9,20-13.8,29.9c-3.5,7.2-7.2,14.3-10.9,21.4c-1.8,3.5-4.1,6.8-5.6,10.5
				C517,481.3,519.9,486.9,524.5,486.9 M560.8,379.8c-0.7,0-1.3,0-1.9,0.1c-1.5,0.1-3,0.3-4.9,0.6c-14.6,2.4-26.5,10.4-35.3,23.6
				c-2.9,4.4-5.6,8.8-8.3,13.2c-3,4.9-5.8,9.5-8.9,14c-6.1,9-12.4,17.5-18.8,25.4c-10,12.4-12,21.1-12.7,27.4
				c-0.8,7.6,1.9,14.3,7.7,19c4.7,3.8,10.4,6.2,17.5,7.4c8.4,1.4,16.2,2.1,23.8,2.1c4.2,0,8.4-0.2,12.4-0.6
				c11.3-1.2,20.5-4.5,28.3-10c8.6-6.2,16.2-14,23.2-23.8c3.7-5.2,6.6-10.6,9.4-15.8c2.2-4,4.3-7.8,6.6-11.4
				c5.7-8.8,9.9-19.4,12.8-32.3c0.5-2.4,0.8-4.8,1.1-7c1.2-10.4-3.9-19.1-13.9-23.9c-11.8-5.7-24.3-7.1-34.9-7.8l-0.3,0l-0.3,0
				c-0.3,0-0.6,0-1,0C561.8,379.8,561.3,379.8,560.8,379.8L560.8,379.8z"/>
		</g>
		<g>
			<path class="st2" d="M306.7,428.5c-1.2,6.3-2.2,12.7-3.5,19c-2.6,12-5.5,24-9.7,35.6c-4.2,11.7-9.8,22.6-12.6,26.9
				c-4.8,7.3-11.5,12.5-18.8,17.1c-6,3.7-12.5,6.3-19.6,6.7c-8.4,0.5-16.4-1.2-23.3-6.2c-5.3-3.8-8.2-9-7.7-15.6
				c0.9-14.2,3.8-28,6.4-42c1.2-6.2,2.4-12.5,4.8-18.4c4.2-10.1,9.1-19.8,16.3-28.2c3.5-4.2,8.1-6.8,12.9-9.2
				c5.8-2.9,11.9-5.1,18.4-5.7c4.2-0.4,8.4-0.3,12.6-0.3c2.8,0.1,5.6,0.3,8.4,0.8c9.7,1.8,15.7,8.8,15,19.1
				C306.3,428.4,306.5,428.5,306.7,428.5z M237.3,509.7c0.1,0,0.2,0.1,0.3,0.1c0,0.9,0,1.8,0.1,2.7c0.5,3.8,1.9,7.1,5.8,8.6
				c4.7,1.8,10.1-0.7,11.9-6.2c1.9-5.6,3.2-11.5,4.6-17.2c3.8-16.4,7.6-32.8,11.3-49.2c1.2-5.4,2.4-10.9,3.3-16.4
				c0.5-2.6-0.3-5-2.4-6.7c-4.8-3.8-13.1-1.7-15.3,4.1c-1.4,3.6-2.6,7.2-3.5,10.9c-4.5,18.7-9,37.3-13.4,56
				C239.1,500.8,238.3,505.2,237.3,509.7z"/>
			<path class="st2" d="M277.5,408.4c1.7,0,3.5,0,5.2,0.1c2.8,0.1,5.6,0.3,8.4,0.8c9.7,1.8,15.7,8.8,15,19.1c0.2,0,0.4,0.1,0.6,0.1
				c-1.2,6.3-2.2,12.7-3.5,19c-2.6,12-5.5,24-9.7,35.6c-4.2,11.7-9.8,22.6-12.6,26.9c-4.8,7.3-11.5,12.5-18.8,17.1
				c-6,3.7-12.5,6.3-19.6,6.7c-0.9,0.1-1.9,0.1-2.8,0.1c-7.4,0-14.4-1.8-20.6-6.3c-5.3-3.8-8.2-9-7.7-15.6c0.9-14.2,3.8-28,6.4-42
				c1.2-6.2,2.4-12.5,4.8-18.4c4.2-10.1,9.1-19.8,16.3-28.2c3.5-4.2,8.1-6.8,12.9-9.2c5.8-2.9,11.9-5.1,18.4-5.7
				C272.6,408.4,275,408.4,277.5,408.4 M246.7,521.6c3.8,0,7.4-2.5,8.8-6.8c1.9-5.6,3.2-11.5,4.6-17.2c3.8-16.4,7.6-32.8,11.3-49.2
				c1.2-5.4,2.4-10.9,3.3-16.4c0.5-2.6-0.3-5-2.4-6.7c-1.6-1.3-3.7-1.9-5.8-1.9c-4,0-8.1,2.2-9.5,6c-1.4,3.6-2.6,7.2-3.5,10.9
				c-4.5,18.7-9,37.3-13.4,56c-1,4.4-1.9,8.9-2.8,13.3c0.1,0,0.2,0.1,0.3,0.1c0,0.9,0,1.8,0.1,2.7c0.5,3.8,1.9,7.1,5.8,8.6
				C244.6,521.4,245.6,521.6,246.7,521.6 M277.5,397.7L277.5,397.7c-3.3,0-6,0.1-8.5,0.4c-7.1,0.7-14.3,2.9-22.1,6.8
				c-5.4,2.6-11.5,6.1-16.4,11.9c-6.9,8.2-12.6,18-18,31c-2.9,7-4.2,14.2-5.4,20.5c-0.3,1.6-0.6,3.2-0.9,4.8
				c-2.4,12.4-4.8,25.3-5.6,38.5c-0.6,10,3.7,18.9,12.2,24.9c7.7,5.5,16.7,8.2,26.8,8.2c1.1,0,2.3,0,3.4-0.1
				c8.3-0.5,16.4-3.2,24.6-8.3c7-4.3,15.8-10.5,22.1-20.3c3.6-5.6,9.5-17.4,13.7-29.1c4.6-12.8,7.7-25.8,10.1-37
				c1-4.6,1.8-9.1,2.6-13.5c0.3-1.9,0.7-3.9,1-5.8l1.9-10.5l-3.1-0.6c-1-3.9-2.7-7.4-5.1-10.4c-4.3-5.3-10.4-8.8-17.8-10.2
				c-3.2-0.6-6.6-0.9-10.1-1C281.2,397.7,279.4,397.7,277.5,397.7L277.5,397.7z"/>
		</g>
		<g>
			<path class="st2" d="M375.9,432.6c1.6-4.9,3.2-9.4,4.4-13.9c0.6-2.1,0.7-4.3,0.7-6.5c0-3.6-3.3-6-6.9-5.3
				c-6.3,1.2-10.3,5.6-13,10.9c-2.4,4.7-3.9,9.9-5.6,14.9c-4.7,13.6-9.3,27.3-13.9,40.9c-2.3,6.9-4.3,13.8-6.2,20.8
				c-0.9,3.3-1.2,6.7,0,10.1c1.3,3.8,5.2,6.1,9,4.7c6.6-2.3,11.3-6.7,13.1-13.6c1.9-7.3,2.5-14.8,2.3-22.3c0-0.1,0-0.1,0-0.2
				c-0.3-4.1-0.2-4.2,3.7-5.6c4.7-1.8,9.6-2.4,14.5-2.6c3.8-0.1,7.5,0,11.5,0c-0.1,0.6-0.3,1.2-0.5,1.8
				c-5.3,14.4-12.8,27.5-23.4,38.8c-5.3,5.6-10.8,10.8-17.7,14.3c-8.4,4.2-17,4.8-26,2.4c-4.3-1.2-8.4-2.7-12.1-5.3
				c-5.7-4.1-7.2-9.8-6.4-16.3c1.7-12.6,6.3-24.4,11.1-36.1c3.9-9.6,8.4-19,13.1-28.3c4.9-9.9,12-18.1,20.2-25.5
				c7.7-7,16.1-12.9,25.6-17.3c5.8-2.7,11.8-5.2,18.1-6.1c8.4-1.2,15.8,0.8,20.5,7.9c1.5,2.2,1.9,4.7,1.4,7.4
				c-1.5,7.8-3,15.6-4.6,23.3c-0.2,0.7-1,1.7-1.7,1.9c-7.5,2.5-15.3,3.6-23.2,4.2C381.3,432.1,378.6,432.3,375.9,432.6z"/>
			<path class="st2" d="M395.9,386.8c6.6,0,12.3,2.4,16.1,8.2c1.5,2.2,1.9,4.7,1.4,7.4c-1.5,7.8-3,15.6-4.6,23.3
				c-0.2,0.7-1,1.7-1.7,1.9c-7.5,2.5-15.3,3.6-23.2,4.2c-2.7,0.2-5.3,0.5-8.1,0.7c1.6-4.9,3.2-9.4,4.4-13.9c0.6-2.1,0.7-4.3,0.7-6.5
				c0-3.1-2.5-5.4-5.7-5.4c-0.4,0-0.8,0-1.3,0.1c-6.3,1.2-10.3,5.6-13,10.9c-2.4,4.7-3.9,9.9-5.6,14.9c-4.7,13.6-9.3,27.3-13.9,40.9
				c-2.3,6.9-4.3,13.8-6.2,20.8c-0.9,3.3-1.2,6.7,0,10.1c1,3.1,3.7,5.1,6.7,5.1c0.7,0,1.5-0.1,2.3-0.4c6.6-2.3,11.3-6.7,13.1-13.6
				c1.9-7.3,2.5-14.8,2.3-22.3c0-0.1,0-0.1,0-0.2c-0.3-4.1-0.2-4.2,3.7-5.6c4.7-1.8,9.6-2.4,14.5-2.6c1.2,0,2.4-0.1,3.6-0.1
				c2.6,0,5.2,0.1,7.9,0.1c-0.1,0.6-0.3,1.2-0.5,1.8c-5.3,14.4-12.8,27.5-23.4,38.8c-5.3,5.6-10.8,10.8-17.7,14.3
				c-5.1,2.6-10.4,3.8-15.7,3.8c-3.4,0-6.8-0.5-10.3-1.4c-4.3-1.2-8.4-2.7-12.1-5.3c-5.7-4.1-7.2-9.8-6.4-16.3
				c1.7-12.6,6.3-24.4,11.1-36.1c3.9-9.6,8.4-19,13.1-28.3c4.9-9.9,12-18.1,20.2-25.5c7.7-7,16.1-12.9,25.6-17.3
				c5.8-2.7,11.8-5.2,18.1-6.1C393,387,394.5,386.8,395.9,386.8 M395.9,376.2c-1.9,0-3.9,0.2-6,0.5c-8,1.2-15.2,4.2-21.1,7
				c-9.9,4.6-19.1,10.9-28.1,19.1c-10.2,9.2-17.6,18.6-22.6,28.7c-4.2,8.5-9.1,18.6-13.4,29c-5.2,12.6-10,25.1-11.8,38.8
				c-1.9,14.1,4.8,22.1,10.7,26.4c5.4,3.9,11.2,5.7,15.5,6.9c4.4,1.2,8.8,1.8,13.1,1.8c7.1,0,14-1.6,20.5-4.9
				c8.5-4.3,15-10.5,20.7-16.5c11.1-11.8,19.5-25.7,25.6-42.4c0.4-1,0.6-1.9,0.7-2.5c0-0.1,0-0.2,0.1-0.3l3.4-13.3l-13.7-0.1
				c-1.2,0-2.4,0-3.5,0c-1.5,0-2.9,0-4.4,0c-1.5,0-2.8,0-4,0.1c-7,0.3-12.7,1.3-17.9,3.2c-0.5,0.2-1.1,0.4-1.7,0.7
				c1.5-4.6,3.1-9.1,4.6-13.5l14.2-1.3c0.9-0.1,1.8-0.2,2.6-0.3c1.8-0.2,3.6-0.3,5.3-0.5c10.4-0.8,18.4-2.3,25.7-4.7
				c4.3-1.4,7.8-5.4,8.8-9.9c1.6-7.8,3.2-15.8,4.7-23.5c1.1-5.5,0-10.8-3-15.3C415.4,380.8,406.5,376.2,395.9,376.2L395.9,376.2z
				 M346.3,495c0.6-2,1.1-4,1.7-6c-0.2,1.3-0.5,2.6-0.9,3.8C347,493.5,346.7,494.3,346.3,495L346.3,495z"/>
		</g>
		<g>
			<path class="st2" d="M754.3,406.3c4.9,0.3,9.7,0.7,14.5,1c0,4.8,0,9.4-0.1,14.2c-4.2,0-8.1,0-12-0.1c-1.6,0-1.9,0.6-2,2
				c-0.9,10-1.9,20-2.8,30c-0.6,6.6-1.2,13.1-1.7,19.7c-0.6,6.7-1.3,13.4-1.5,20.1c-0.3,8.1,3.8,13.9,11.3,16.8
				c1.1,0.4,1.5,0.9,1.3,2c-0.3,2.2-0.4,4.5-0.6,6.7c-0.1,1.1-0.6,1.8-1.7,2.2c-7.2,2.5-14.6,4.2-22.3,4.7
				c-6.9,0.5-13.6,0.2-20.1-2.2c-8.8-3.2-12.5-9.9-10.9-19.3c2.9-17.1,5.7-34.2,8.7-51.3c1.6-8.9,2.4-17.9,2.8-26.9c0-1,0-2,0-3.2
				c-2.1-0.2-4.1-0.4-6.2-0.6c0.5-3.6,0.9-7.2,1.4-10.7c0.6-3.9,0.7-3.8,4.7-3.8c5,0,5,0,5.6-4.9c0.5-4.2,1.1-8.4,1.6-12.6
				c0.2-1.2,0.3-2.2,1.8-2.7c9.2-2.9,18.4-4.3,28-2.1c1.2,0.3,1.6,0.6,1.5,1.9C755.1,393.4,754.7,399.7,754.3,406.3z"/>
			<path class="st2" d="M744.4,384.2c3.2,0,6.4,0.3,9.6,1.1c1.2,0.3,1.6,0.6,1.5,1.9c-0.5,6.3-0.8,12.5-1.3,19.1
				c4.9,0.3,9.7,0.7,14.5,1c0,4.8,0,9.4-0.1,14.2c-0.9,0-1.7,0-2.6,0c-0.7,0-1.3,0-2,0c-2.5,0-5,0-7.4-0.1c-0.1,0-0.1,0-0.2,0
				c-1.4,0-1.8,0.6-1.9,2c-0.9,10-1.9,20-2.8,30c-0.6,6.6-1.2,13.1-1.7,19.7c-0.6,6.7-1.3,13.4-1.5,20.1
				c-0.3,8.1,3.8,13.9,11.3,16.8c1.1,0.4,1.5,0.9,1.3,2c-0.3,2.2-0.4,4.5-0.6,6.7c-0.1,1.1-0.6,1.8-1.7,2.2
				c-7.2,2.5-14.6,4.2-22.3,4.7c-1.8,0.1-3.5,0.2-5.2,0.2c-5.1,0-10-0.6-14.9-2.4c-8.8-3.2-12.5-9.9-10.9-19.3
				c2.9-17.1,5.7-34.2,8.7-51.3c1.6-8.9,2.4-17.9,2.8-26.9c0-1,0-2,0-3.2c-2.1-0.2-4.1-0.4-6.2-0.6c0.5-3.6,0.9-7.2,1.4-10.7
				c0.6-3.6,0.7-3.8,3.9-3.8c0.2,0,0.5,0,0.8,0c0.3,0,0.6,0,0.9,0c4.1,0,4.1-0.3,4.7-4.9c0.5-4.2,1.1-8.4,1.6-12.6
				c0.2-1.2,0.3-2.2,1.8-2.7C732.1,385.5,738.2,384.2,744.4,384.2 M744.4,373.5v10.7V373.5L744.4,373.5c-6.7,0-13.8,1.2-21.6,3.7
				c-3,0.9-8.2,3.7-9.2,11.5c-0.3,2.5-0.6,4.9-0.9,7.3c0,0.4-0.1,0.8-0.1,1.1c-2.2,0.4-4.7,1.3-6.9,3.5c-2.9,3-3.5,6.5-3.9,9.1
				c-0.4,2.6-0.7,5.2-1,7.7c-0.1,1.1-0.3,2.2-0.4,3.3l-1.4,11l7.2,0.7c-0.5,6.5-1.2,12.6-2.3,18.6c-1.7,9.7-3.3,19.5-4.9,29
				c-1.2,7.3-2.5,14.9-3.8,22.3c-2.5,14.6,4.2,26.2,17.8,31.2c5.6,2,11.6,3,18.5,3c1.9,0,3.9-0.1,6-0.2c8.2-0.6,16.4-2.3,25-5.2
				c5.2-1.8,8.5-6.1,8.9-11.5c0-0.5,0.1-1,0.1-1.5c0.1-1.7,0.2-3.3,0.4-4.8c0.7-6-2.4-11-8.1-13.2c-3.8-1.5-4.6-3.6-4.5-6.4
				c0.2-4.6,0.6-9.3,1-14.2c0.2-1.8,0.3-3.6,0.5-5.4c0.6-7.1,1.1-13.6,1.7-19.6c0.4-4,0.8-8.1,1.1-12.1c0.3-3.3,0.6-6.7,1-10.1
				l0.5,0l1,0c0.8,0,1.7,0,2.5,0l10.7,0l0-10.7l0-8.2l0-5.9l0-10l-10-0.7l-2.6-0.2l-1.3-0.1c0.2-2.8,0.4-5.6,0.6-8.4
				c0.5-6.5-3.3-11.6-9.7-13.1C752.6,374,748.5,373.5,744.4,373.5L744.4,373.5z"/>
		</g>
	</g>
	<g>
		<g>
			<path d="M444.6,467.9c-0.4,0.7-0.7,1.3-1,1.9c-7.1,13.9-14.2,27.8-21.3,41.6c-0.3,0.5-1.1,1.1-1.7,1.2
				c-8.7,0.3-17.4,0.5-26.2,0.7c-0.7,0-1.4-0.2-2.3-0.4c2-5,3.9-9.9,5.9-14.7c8.1-18.8,16.2-37.6,24.5-56.2
				c7.4-16.5,14.1-33.2,19.7-50.3c3.5-10.7,6.3-21.7,9.6-32.4c1.1-3.5,2.5-7,3.9-10.4c0.2-0.6,0.8-1.1,1.4-1.3
				c8.3-3,16.8-5.1,25.7-5.2c4.9-0.1,9.8,0.3,14.7,0.5c0.6,0,1.2,0.3,1.9,0.4c-9.7,24.4-24.5,46.1-33.8,70.7c1,0.6,2.1,1.2,3.4,2
				c1.7-2.5,3.3-4.9,5-7.3c5-7,9.8-14.1,15.2-20.8c4.9-6.1,10.8-11.4,17.3-15.8c6-4,12.8-4.6,19.8-3.8c1.6,0.2,3.1,0.5,5,0.8
				c-2,2.9-3.9,5.7-5.9,8.5c-9.1,12.8-18.2,25.6-27.3,38.5c-2.6,3.7-5.2,7.3-7.7,11c-0.6,0.8-1,1.8-1.3,2.8
				c-5.3,20.7-10.6,41.5-15.9,62.2c-0.5,2.1-1,4.2-1.6,6.3c-0.2,0.6-0.8,1.4-1.3,1.6c-9.9,2.7-19.8,5.4-29.7,8.1
				c-0.2,0.1-0.5,0.1-1.1,0.1c0.4-1.9,0.8-3.7,1.2-5.4c2.5-10.6,4.9-21.2,7.4-31.8c0.2-1,0.1-1.6-0.9-1.9
				C446.4,468.6,445.5,468.2,444.6,467.9z"/>
			<path d="M484.6,342.2c4.4,0,8.7,0.3,13.1,0.5c0.6,0,1.2,0.3,1.9,0.4c-9.7,24.4-24.5,46.1-33.8,70.7c1,0.6,2.1,1.2,3.4,2
				c1.7-2.5,3.3-4.9,5-7.3c5-7,9.8-14.1,15.2-20.8c4.9-6.1,10.8-11.4,17.3-15.8c4.6-3.1,9.6-4.1,14.8-4.1c1.7,0,3.3,0.1,5,0.3
				c1.6,0.2,3.1,0.5,5,0.8c-2,2.9-3.9,5.7-5.9,8.5c-9.1,12.8-18.2,25.6-27.3,38.5c-2.6,3.7-5.2,7.3-7.7,11c-0.6,0.8-1,1.8-1.3,2.8
				c-5.3,20.7-10.6,41.5-15.9,62.2c-0.5,2.1-1,4.2-1.6,6.3c-0.2,0.6-0.8,1.4-1.3,1.6c-9.9,2.7-19.8,5.4-29.7,8.1
				c-0.2,0.1-0.5,0.1-1.1,0.1c0.4-1.9,0.8-3.7,1.2-5.4c2.5-10.6,4.9-21.2,7.4-31.8c0.2-1,0.1-1.6-0.9-1.9c-0.9-0.3-1.7-0.6-2.6-0.9
				c-0.4,0.7-0.7,1.3-1,1.9c-7.1,13.9-14.2,27.8-21.3,41.6c-0.3,0.5-1.1,1.1-1.7,1.2c-8.7,0.3-17.4,0.5-26.2,0.7c0,0,0,0-0.1,0
				c-0.7,0-1.3-0.2-2.2-0.4c2-5,3.9-9.9,5.9-14.7c8.1-18.8,16.2-37.6,24.5-56.2c7.4-16.5,14.1-33.2,19.7-50.3
				c3.5-10.7,6.3-21.7,9.6-32.4c1.1-3.5,2.5-7,3.9-10.4c0.2-0.6,0.8-1.1,1.4-1.3c8.3-3,16.8-5.1,25.7-5.2
				C483.5,342.2,484,342.2,484.6,342.2 M484.6,337.3c-0.6,0-1.2,0-1.8,0c-8.5,0.2-17.4,2-27.2,5.5c-1.9,0.7-3.5,2.3-4.3,4.1
				c-0.2,0.6-0.5,1.2-0.7,1.8c-1.2,2.9-2.4,5.9-3.3,9c-1.3,4.2-2.5,8.5-3.6,12.6c-1.8,6.5-3.8,13.3-5.9,19.7
				c-5.2,15.7-11.6,32-19.6,49.9c-6.9,15.5-13.8,31.4-20.4,46.7c-1.4,3.2-2.8,6.4-4.1,9.6c-1.5,3.4-2.8,6.8-4.1,10.1
				c-0.6,1.6-1.2,3.1-1.9,4.7l-2.2,5.6l5.9,1.1c0.2,0,0.4,0.1,0.6,0.1c0.7,0.1,1.5,0.3,2.4,0.3l0.2,0c9.7-0.2,17.9-0.4,26.2-0.7
				c2.3-0.1,4.7-1.6,5.8-3.8c4-7.8,8-15.6,12-23.4c-0.6,2.7-1.3,5.4-1.9,8l-0.7,3.1c-0.3,1.2-0.5,2.5-0.8,3.7
				c-0.1,0.6-0.3,1.2-0.4,1.8l-1.5,6.7l6.8-0.8c0.2,0,0.3,0,0.5-0.1c0.4,0,0.8-0.1,1.3-0.2l3.9-1.1c8.5-2.3,17.2-4.6,25.8-7
				c2.6-0.7,4.1-3.1,4.7-4.9c0.5-1.5,0.8-3.1,1.2-4.5c0.2-0.7,0.3-1.3,0.5-2l1.5-5.8c4.7-18.5,9.6-37.6,14.5-56.4
				c0.1-0.4,0.3-0.8,0.6-1.2c2.5-3.6,5-7.2,7.5-10.7l0.2-0.3c3.9-5.5,7.8-11,11.7-16.5c5.2-7.3,10.4-14.6,15.6-21.9
				c1.3-1.9,2.6-3.8,4-5.8c0.6-0.9,1.3-1.8,1.9-2.8l4.4-6.3l-7.6-1.2c-0.6-0.1-1.1-0.2-1.6-0.3c-1.2-0.2-2.3-0.4-3.6-0.5
				c-2-0.2-3.8-0.3-5.5-0.3c-6.8,0-12.6,1.6-17.5,4.9c-7.1,4.8-13.2,10.4-18.4,16.8c-0.9,1.1-1.8,2.2-2.6,3.4c1.5-2.9,3-5.8,4.5-8.7
				c5.8-11,11.8-22.5,16.5-34.4l2.1-5.3l-5.6-1.2c-0.1,0-0.2-0.1-0.4-0.1c-0.6-0.2-1.4-0.4-2.3-0.4c-1.3-0.1-2.7-0.1-4-0.2
				C490.8,337.5,487.7,337.3,484.6,337.3L484.6,337.3z"/>
		</g>
		<g>
			<path d="M702.7,406.9c-3.2,41.9-10.2,83.2-22.6,123.9c-11.5-1.3-23.4-2.5-35.2-3.8c-1.3-0.1-1.5-0.7-1.1-1.8
				c0.5-1.6,1-3.1,1.6-5.1c-2.7,0.9-4.9,1.8-7.3,2.5c-7.4,2.5-14.9,4.4-22.7,4.5c-9.4,0.2-17.8-2.8-24.3-9.9
				c-2.4-2.6-3.2-5.7-2.2-9.3c4.2-14.5,8.9-28.8,15.9-42.2c9.1-17.4,15.9-35.7,22.7-54.1c0.7-1.8,1.4-3.6,1.9-5.4
				c0.3-1,0.8-1.4,1.9-1.5c8.6-0.9,16.8,0.8,24.9,3.4c4.8,1.6,4.9,1.6,3.4,6.5c-3.5,11.1-7.1,22.2-10.6,33.4
				c-4.5,14.2-8.8,28.5-13.3,42.8c-1,3.3-2.3,6.5-3.3,9.9c-0.4,1.4-0.5,2.9-0.2,4.3c0.6,3,3.2,3.6,5.6,3.6c2.9,0.1,5.9-0.3,8.8-0.7
				c0.6-0.1,1.5-0.7,1.7-1.3c5.2-16,10.9-31.8,15.4-47.9c4-14.5,6.9-29.3,9.8-44.1c0.9-4.7,3.4-6.3,7.6-7
				C686.9,406.8,698.5,406.2,702.7,406.9z"/>
			<path d="M636.2,404.5c6.9,0,13.6,1.5,20.2,3.7c4.8,1.6,4.9,1.6,3.4,6.5c-3.5,11.1-7.1,22.2-10.6,33.4
				c-4.5,14.2-8.8,28.5-13.3,42.8c-1,3.3-2.3,6.5-3.3,9.9c-0.4,1.4-0.5,2.9-0.2,4.3c0.6,3,3.2,3.6,5.6,3.6c0.2,0,0.4,0,0.6,0
				c2.7,0,5.5-0.4,8.2-0.7c0.6-0.1,1.5-0.7,1.7-1.3c5.2-16,10.9-31.8,15.4-47.9c4-14.5,6.9-29.3,9.8-44.1c0.9-4.7,3.4-6.3,7.6-7
				c4-0.6,10.6-1,15.8-1c2.4,0,4.4,0.1,5.8,0.3c-3.2,41.9-10.2,83.2-22.6,123.9c-11.5-1.3-23.4-2.5-35.2-3.8
				c-1.3-0.1-1.5-0.7-1.1-1.8c0.5-1.6,1-3.1,1.6-5.1c-2.7,0.9-4.9,1.8-7.3,2.5c-7.4,2.5-14.9,4.4-22.7,4.5c-0.2,0-0.5,0-0.7,0
				c-9.1,0-17.2-3-23.6-9.9c-2.4-2.6-3.2-5.7-2.2-9.3c4.2-14.5,8.9-28.8,15.9-42.2c9.1-17.4,15.9-35.7,22.7-54.1
				c0.7-1.8,1.4-3.6,1.9-5.4c0.3-1,0.8-1.4,1.9-1.5C633,404.6,634.6,404.5,636.2,404.5 M636.2,399.7c-1.8,0-3.6,0.1-5.3,0.3
				c-3,0.3-5.1,2.1-6,4.9c-0.4,1.4-0.9,2.7-1.5,4.1l-0.4,1.1c-6.2,16.9-13.2,36.1-22.4,53.5c-7.4,14-12.2,29-16.3,43.1
				c-1.5,5.1-0.3,10.1,3.3,13.9c7,7.6,16.2,11.4,27.2,11.4c0.3,0,0.6,0,0.8,0c7-0.1,14.3-1.5,23.4-4.5c0.2,0.7,0.4,1.2,0.7,1.6
				c0.7,1.1,2.1,2.4,4.7,2.7c9.2,1,18.4,2,27.4,2.9l7.8,0.8l4,0.4l1.2-3.9c12-39.3,19.4-80.2,22.8-124.9l0.3-4.4l-4.4-0.7
				c-1.5-0.3-3.7-0.4-6.6-0.4c-5.3,0-12.3,0.5-16.5,1.1c-4.2,0.6-10,2.4-11.6,10.8l-0.4,1.8c-2.7,13.8-5.5,28.2-9.3,41.9
				c-3.2,11.6-7.1,23.2-10.9,34.5c-1.3,3.7-2.6,7.6-3.8,11.4c-2,0.2-3.9,0.4-5.8,0.4c-0.2,0-0.3,0-0.5,0c-0.5,0-0.8,0-1-0.1
				c0-0.5,0-1.1,0.2-1.7c0.5-1.8,1.1-3.5,1.7-5.3c0.5-1.4,1-2.9,1.5-4.4c2-6.3,3.9-12.7,5.9-19c2.4-7.8,4.9-15.9,7.4-23.8
				c1.9-6.1,3.9-12.4,5.8-18.4c1.6-5,3.2-10,4.8-15c1-3.1,1.8-5.6,0.4-8.2c-1.4-2.6-3.8-3.4-6.9-4.4
				C649.5,400.9,642.7,399.7,636.2,399.7L636.2,399.7z"/>
		</g>
		<g>
			<path d="M105.3,410.2c-1.9,11.3-5,22-8.8,32.5c-4.4,12-8.8,24.1-13.1,36.2c-0.2,0.6-0.3,1.6,0.1,2.1c6.5,9.7,9.9,20.6,12.1,32
				c2.5,13.1,5.2,26.1,7.8,39.2c0,0.2,0,0.4,0.1,0.7C91,554.6,78.6,556.3,66,558c-0.9-4.6-1.8-9.2-2.7-13.7
				c-1.6-8.1-3.3-16.2-4.7-24.3c-0.4-2-1.3-2.2-2.8-2c-0.6,0.1-1.1,0.3-1.8,0.4c-1.4,13.5-2.8,27-4.2,40.8c-7.7,1-15.3,2-23.2,3.1
				c0-2.3,0-4.3,0-6.3c0.3-6.2,0.6-12.4,0.8-18.7c0.3-7.3,0.6-14.6,0.9-21.9c0.1-3.6,0.5-7.2,0.3-10.8c-0.5-8.8-1.3-17.6-2-26.4
				c-0.4-5.6-0.8-11.1-1.2-16.7c-0.6-9.2-1.2-18.4-1.8-27.6c0-0.6,0-1.1,0-1.9c9.8-2,19.5-4.1,29.4-6.2c-0.1,13.5-0.1,26.8-0.2,40.3
				c2.3-1,4.4-1.7,6.3-2.7c0.6-0.3,1-1.1,1.2-1.8c4.4-12.7,8.9-25.4,13.2-38.2c1-3,2.4-4.8,5.7-5.7C88,415.6,96.5,412.9,105.3,410.2
				z"/>
			<path d="M105.3,410.2c-1.9,11.3-5,22-8.8,32.5c-4.4,12-8.8,24.1-13.1,36.2c-0.2,0.6-0.3,1.6,0.1,2.1c6.5,9.7,9.9,20.6,12.1,32
				c2.5,13.1,5.2,26.1,7.8,39.2c0,0.2,0,0.4,0.1,0.7C91,554.6,78.6,556.3,66,558c-0.9-4.6-1.8-9.2-2.7-13.7
				c-1.6-8.1-3.3-16.2-4.7-24.3c-0.3-1.6-0.9-2.1-2-2.1c-0.3,0-0.5,0-0.9,0.1c-0.6,0.1-1.1,0.3-1.8,0.4c-1.4,13.5-2.8,27-4.2,40.8
				c-7.7,1-15.3,2-23.2,3.1c0-2.3,0-4.3,0-6.3c0.3-6.2,0.6-12.4,0.8-18.7c0.3-7.3,0.6-14.6,0.9-21.9c0.1-3.6,0.5-7.2,0.3-10.8
				c-0.5-8.8-1.3-17.6-2-26.4c-0.4-5.6-0.8-11.1-1.2-16.7c-0.6-9.2-1.2-18.4-1.8-27.6c0-0.6,0-1.1,0-1.9c9.8-2,19.5-4.1,29.4-6.2
				c-0.1,13.5-0.1,26.8-0.2,40.3c2.3-1,4.4-1.7,6.3-2.7c0.6-0.3,1-1.1,1.2-1.8c4.4-12.7,8.9-25.4,13.2-38.2c1-3,2.4-4.8,5.7-5.7
				C88,415.6,96.5,412.9,105.3,410.2 M111.4,403.3l-7.5,2.2c-2.5,0.8-5,1.5-7.5,2.3c-6.3,1.9-12.2,3.7-18.2,5.3
				c-5.9,1.6-7.9,5.5-9,8.8c-3.5,10.4-7.2,21-10.8,31.2c-0.2,0.5-0.3,1-0.5,1.4l0-9.4l0.1-19.3l0-6l-5.9,1.2l-9.4,2l-20.1,4.2
				l-3.8,0.8l0,3.9c0,0.2,0,0.4,0,0.6c0,0.5,0,1,0,1.6l0.3,4.4c0.5,7.6,1,15.5,1.5,23.2c0.4,5.3,0.8,10.6,1.1,15.8l0.1,0.9
				c0.2,2.7,0.4,5.5,0.6,8.2c0.5,5.9,1,12.1,1.3,18.1c0.1,2.3,0,4.7-0.1,7.2c-0.1,1-0.1,2.1-0.2,3.1c-0.3,8.5-0.6,15.5-0.9,21.9
				c-0.1,2.8-0.3,5.7-0.4,8.5c-0.2,3.4-0.3,6.7-0.5,10.1c-0.1,1.5-0.1,2.9,0,4.4c0,0.7,0,1.4,0,2.1l0,5.6l5.5-0.7l23.2-3.1l3.8-0.5
				l0.4-3.8l2.3-22.4c0.1,0.5,0.2,1,0.3,1.4c0.4,2.2,0.9,4.3,1.3,6.5l1.8,9.3l0.9,4.4l0.9,4.5l4.6-0.6l21.8-3.1l15.6-2.2l4.6-0.6
				l-0.4-4.6l0-0.2c0-0.2,0-0.6-0.1-1c-0.8-4.1-1.6-8.2-2.5-12.3c-1.8-8.8-3.6-17.9-5.3-26.8c-2.6-13.3-6.4-23.7-12-32.5
				c3.7-10.2,7.6-21.1,12.8-35.1c4.2-11.5,7.2-22.4,9-33.4L111.4,403.3L111.4,403.3z"/>
		</g>
		<g>
			<path d="M116.3,549.2c0.3-3.9,0.5-7.5,0.7-11.1c0.4-7.2,0.9-14.3,1.3-21.5c0.5-8.4,1.1-16.9,1.7-25.3c0.6-8.4,1.1-16.7,1.7-25.1
				c0.6-8.4,1.1-16.7,1.7-25.1c0.1-1,0-2.1,0.4-3c0.2-0.6,0.9-1.3,1.5-1.4c6.3-1.5,12.6-3,18.9-4.4c1.9-0.4,3.8-0.7,5.7-0.8
				c0.5,0,1.3,0.6,1.5,1.1c0.6,1.4,0.9,2.9,1.3,4.5c3.2-2.2,6-4.3,9.1-6.2c7-4.4,14.4-8.1,22.7-9.5c7.1-1.2,13.5,0.2,19,5
				c3.7,3.3,4.6,7.8,3.8,12.4c-3.5,19.2-7.2,38.4-10.8,57.6c-1.9,9.9-3.8,19.7-5.4,29.6c-0.5,2.9,0.5,5.8,1.9,8.5
				c1.1,1.9,0.8,2.3-1.4,2.7c-9.6,1.5-19.2,2.9-29.1,4.5c0.2-2.5,0.3-4.9,0.5-7.3c0.5-5.4,1-10.7,1.5-16c0.7-7.7,1.4-15.3,2.1-23
				c0.9-10.2,1.7-20.3,2.4-30.5c0.4-4.8,0.8-9.7-0.7-14.5c-1.3-3.9-5.1-6.4-9.2-6c-4.2,0.4-7.7,3.7-8,7.8
				c-0.4,5.2-0.7,10.4-0.9,15.5c-0.4,9.6-0.6,19.1-0.9,28.7c-0.3,8.5-0.7,16.9-1.3,25.4c-0.5,6.7-1.4,13.4-1.9,20.1
				c-0.2,1.9-1.3,1.7-2.5,1.7c-8.8,0.2-16.9,3.3-25.3,5.4C117.5,549,117,549.1,116.3,549.2z"/>
			<path d="M188.9,420.9c5.3,0,10.1,1.7,14.3,5.4c3.7,3.3,4.6,7.8,3.8,12.4c-3.5,19.2-7.2,38.4-10.8,57.6
				c-1.9,9.9-3.8,19.7-5.4,29.6c-0.5,2.9,0.5,5.8,1.9,8.5c1.1,1.9,0.8,2.3-1.4,2.7c-9.6,1.5-19.2,2.9-29.1,4.5
				c0.2-2.5,0.3-4.9,0.5-7.3c0.5-5.4,1-10.7,1.5-16c0.7-7.7,1.4-15.3,2.1-23c0.9-10.2,1.7-20.3,2.4-30.5c0.4-4.8,0.8-9.7-0.7-14.5
				c-1.2-3.6-4.5-6-8.3-6c-0.3,0-0.6,0-0.9,0c-4.2,0.4-7.7,3.7-8,7.8c-0.4,5.2-0.7,10.4-0.9,15.5c-0.4,9.6-0.6,19.1-0.9,28.7
				c-0.3,8.5-0.7,16.9-1.3,25.4c-0.5,6.7-1.4,13.4-1.9,20.1c-0.2,1.9-1.3,1.7-2.5,1.7c-8.8,0.2-16.9,3.3-25.3,5.4
				c-0.4,0.1-0.9,0.2-1.6,0.3c0.3-3.9,0.5-7.5,0.7-11.1c0.4-7.2,0.9-14.3,1.3-21.5c0.5-8.4,1.1-16.9,1.7-25.3
				c0.6-8.4,1.1-16.7,1.7-25.1c0.6-8.4,1.1-16.7,1.7-25.1c0.1-1,0-2.1,0.4-3c0.2-0.6,0.9-1.3,1.5-1.4c6.3-1.5,12.6-3,18.9-4.4
				c1.9-0.4,3.8-0.7,5.7-0.8c0,0,0,0,0,0c0.5,0,1.3,0.6,1.5,1.1c0.6,1.4,0.9,2.9,1.3,4.5c3.2-2.2,6-4.3,9.1-6.2
				c7-4.4,14.4-8.1,22.7-9.5C185.9,421.1,187.4,420.9,188.9,420.9 M188.9,416.1c-1.8,0-3.6,0.2-5.5,0.5c-7.8,1.4-15.4,4.5-24.5,10.2
				c-1.4,0.9-2.7,1.8-4,2.7c-1.1-1.5-3-2.9-5.2-2.9h-0.2l-0.2,0c-2.2,0.1-4.4,0.4-6.4,0.9c-6.3,1.4-12.7,2.9-19,4.4
				c-2.2,0.5-4.2,2.4-4.9,4.6c-0.4,1.4-0.5,2.6-0.6,3.6c0,0.2,0,0.4,0,0.6c-0.5,6.9-0.9,13.7-1.4,20.6l-0.3,4.6l-0.3,4.4
				c-0.5,6.9-0.9,13.8-1.4,20.8l-0.4,5.8c-0.4,6.5-0.9,13.1-1.3,19.6c-0.3,4.1-0.5,8.2-0.8,12.4c-0.2,3-0.4,6.1-0.6,9.1
				c-0.2,2.5-0.3,5-0.5,7.5l-0.2,3.6L111,555l6.1-1c0.2,0,0.4-0.1,0.6-0.1c0.4-0.1,0.9-0.1,1.3-0.2c2.3-0.6,4.6-1.2,6.8-1.8
				c6-1.7,11.6-3.2,17.4-3.4l0.2,0c5.8-0.1,6.8-4.4,7-6.2c0.2-2.9,0.6-5.8,0.9-8.6c0.4-3.8,0.8-7.7,1.1-11.5
				c0.6-8.8,1-17.8,1.3-25.5c0.2-5,0.3-10,0.5-14.9c0.1-4.5,0.3-9.2,0.5-13.8c0.2-4.5,0.5-9.2,0.9-15.4c0.1-1.7,1.7-3.1,3.6-3.3
				c0.1,0,0.3,0,0.4,0c1.7,0,3.2,1,3.7,2.7c1.2,3.6,0.9,7.6,0.5,11.8l-0.1,0.8c-0.8,10.8-1.7,21.4-2.4,30.4
				c-0.6,6.8-1.2,13.8-1.8,20.5l-0.2,2.4c-0.2,2.5-0.5,5-0.7,7.5c-0.3,2.9-0.6,5.7-0.8,8.6c-0.2,1.7-0.3,3.4-0.4,5.1
				c0,0.8-0.1,1.5-0.1,2.3l-0.4,6.1l6-0.9l7.9-1.2c7.1-1.1,14.2-2.2,21.2-3.2c1.3-0.2,4.2-0.6,5.6-3.4c1.4-2.8,0-5.3-0.6-6.4
				c-1.2-2.1-1.6-3.9-1.4-5.3c1.3-7.8,2.8-15.7,4.3-23.4c0.4-2,0.8-4.1,1.2-6.2c1.1-5.9,2.2-11.8,3.3-17.7c2.5-13.1,5-26.6,7.5-40
				c1.2-6.8-0.7-12.8-5.3-16.9C201.5,418.3,195.6,416.1,188.9,416.1L188.9,416.1z"/>
		</g>
		<g>
			<path d="M565.2,390.6c10.7,0.7,21.2,2.1,30.9,6.7c5.4,2.6,8.6,6.7,7.9,13c-0.2,2-0.5,3.9-0.9,5.9c-2.3,10.2-5.7,20.2-11.3,28.8
				c-5.7,8.7-9.7,18.3-15.8,26.8c-5.8,8.2-12.5,15.4-20.7,21.3c-6.9,5-14.8,7.2-23.2,8.1c-11.2,1.2-22.3,0.5-33.3-1.3
				c-4.5-0.7-8.9-2.2-12.5-5.1c-3-2.4-4.2-5.6-3.8-9.5c1-8.5,5.2-15.3,10.4-21.8c6.8-8.4,13.2-17.2,19.3-26.1
				c6.1-8.9,11.3-18.3,17.2-27.3c6.7-10.1,15.9-17,28.2-19c1.3-0.2,2.5-0.4,3.8-0.5C562.7,390.5,564,390.6,565.2,390.6z
				 M526.4,486.9c6.2,0,9.4-2.1,11.5-5.7c4.1-7,8.1-14.1,11.8-21.4c4.6-9.2,8.9-18.5,13.3-27.7c2.4-5,5-9.8,7.4-14.8
				c2.5-5.4-0.4-12-7.5-11.6c-5.6,0.3-9.2,3.5-11.5,8.3c-4.6,9.9-9,20-13.8,29.9c-3.5,7.2-7.2,14.3-10.9,21.4
				c-1.8,3.5-4.1,6.8-5.6,10.5C518.9,481.3,521.9,487,526.4,486.9z"/>
			<path d="M562.8,390.5c0.8,0,1.6,0,2.4,0c10.7,0.7,21.2,2.1,30.9,6.7c5.4,2.6,8.6,6.7,7.9,13c-0.2,2-0.5,3.9-0.9,5.9
				c-2.3,10.2-5.7,20.2-11.3,28.8c-5.7,8.7-9.7,18.3-15.8,26.8c-5.8,8.2-12.5,15.4-20.7,21.3c-6.9,5-14.8,7.2-23.2,8.1
				c-3.8,0.4-7.5,0.6-11.3,0.6c-7.4,0-14.7-0.7-22-1.9c-4.5-0.7-8.9-2.2-12.5-5.1c-3-2.4-4.2-5.6-3.8-9.5c1-8.5,5.2-15.3,10.4-21.8
				c6.8-8.4,13.2-17.2,19.3-26.1c6.1-8.9,11.3-18.3,17.2-27.3c6.7-10.1,15.9-17,28.2-19c1.3-0.2,2.5-0.4,3.8-0.5
				C561.9,390.5,562.4,390.5,562.8,390.5 M526.4,486.9C526.4,486.9,526.4,486.9,526.4,486.9c6.2,0,9.4-2.1,11.5-5.7
				c4.1-7,8.1-14.1,11.8-21.4c4.6-9.2,8.9-18.5,13.3-27.7c2.4-5,5-9.8,7.4-14.8c2.5-5.2-0.3-11.6-6.9-11.6c-0.2,0-0.4,0-0.6,0
				c-5.6,0.3-9.2,3.5-11.5,8.3c-4.6,9.9-9,20-13.8,29.9c-3.5,7.2-7.2,14.3-10.9,21.4c-1.8,3.5-4.1,6.8-5.6,10.5
				C518.9,481.3,521.9,486.9,526.4,486.9 M562.8,385.7L562.8,385.7c-0.6,0-1.1,0-1.6,0c-1.3,0.1-2.6,0.2-4.3,0.5
				c-13,2.1-23.6,9.2-31.4,21.1c-2.8,4.3-5.6,8.7-8.2,13c-2.9,4.7-5.9,9.7-9,14.3c-6.2,9.1-12.6,17.8-19.1,25.8
				c-5,6.2-10.3,14-11.5,24.3c-0.6,5.6,1.3,10.4,5.5,13.8c3.9,3.1,8.7,5.2,14.8,6.2c8.1,1.3,15.6,2,22.8,2c4,0,8-0.2,11.8-0.6
				c10.2-1.1,18.6-4,25.5-9c8.1-5.8,15.2-13.2,21.8-22.4c3.5-4.9,6.3-10.1,9.1-15.2c2.2-4.1,4.4-8,6.8-11.8
				c5.3-8.2,9.3-18.2,12-30.4c0.5-2.1,0.7-4.2,1-6.4c0.9-7.9-2.8-14.2-10.6-17.9c-10.9-5.2-22.7-6.6-32.7-7.2l-0.1,0l-0.1,0
				c-0.3,0-0.7,0-1,0C563.7,385.7,563.3,385.7,562.8,385.7L562.8,385.7z M526.4,482.1c-0.2,0-0.4-0.2-0.6-0.5
				c-0.5-0.7-0.8-2.2-0.1-4c0.8-2,1.9-4,3.2-6.1c0.7-1.3,1.5-2.6,2.2-4c0.8-1.5,1.6-3.1,2.4-4.6c2.9-5.5,5.9-11.2,8.6-17
				c2.8-5.9,5.6-12,8.2-17.8c1.8-4,3.7-8.1,5.5-12.1c1.7-3.6,4-5.3,7.4-5.5c0.1,0,0.2,0,0.3,0c1.2,0,1.9,0.4,2.4,1.1
				c0.6,1,0.6,2.4,0,3.6c-1.3,2.7-2.6,5.4-4,8c-1.1,2.2-2.3,4.5-3.4,6.8c-1.6,3.4-3.3,6.9-4.9,10.2c-2.7,5.8-5.5,11.7-8.4,17.4
				c-3.7,7.3-7.8,14.5-11.6,21.2C532.7,480.5,531.4,482.1,526.4,482.1L526.4,482.1L526.4,482.1z"/>
		</g>
		<g>
			<path d="M308.6,428.5c-1.2,6.3-2.2,12.7-3.5,19c-2.6,12-5.5,24-9.7,35.6c-4.2,11.7-9.8,22.6-12.6,26.9
				c-4.8,7.3-11.5,12.5-18.8,17.1c-6,3.7-12.5,6.3-19.6,6.7c-8.4,0.5-16.4-1.2-23.3-6.2c-5.3-3.8-8.2-9-7.7-15.6
				c0.9-14.2,3.8-28,6.4-42c1.2-6.2,2.4-12.5,4.8-18.4c4.2-10.1,9.1-19.8,16.3-28.2c3.5-4.2,8.1-6.8,12.9-9.2
				c5.8-2.9,11.9-5.1,18.4-5.7c4.2-0.4,8.4-0.3,12.6-0.3c2.8,0.1,5.6,0.3,8.4,0.8c9.7,1.8,15.7,8.8,15,19.1
				C308.3,428.4,308.5,428.5,308.6,428.5z M239.3,509.7c0.1,0,0.2,0.1,0.3,0.1c0,0.9,0,1.8,0.1,2.7c0.5,3.8,1.9,7.1,5.8,8.6
				c4.7,1.8,10.1-0.7,11.9-6.2c1.9-5.6,3.2-11.5,4.6-17.2c3.8-16.4,7.6-32.8,11.3-49.2c1.2-5.4,2.4-10.9,3.3-16.4
				c0.5-2.6-0.3-5-2.4-6.7c-4.8-3.8-13.1-1.7-15.3,4.1c-1.4,3.6-2.6,7.2-3.5,10.9c-4.5,18.7-9,37.3-13.4,56
				C241,500.8,240.2,505.2,239.3,509.7z"/>
			<path d="M279.5,408.4c1.7,0,3.5,0,5.2,0.1c2.8,0.1,5.6,0.3,8.4,0.8c9.7,1.8,15.7,8.8,15,19.1c0.2,0,0.4,0.1,0.6,0.1
				c-1.2,6.3-2.2,12.7-3.5,19c-2.6,12-5.5,24-9.7,35.6c-4.2,11.7-9.8,22.6-12.6,26.9c-4.8,7.3-11.5,12.5-18.8,17.1
				c-6,3.7-12.5,6.3-19.6,6.7c-0.9,0.1-1.9,0.1-2.8,0.1c-7.4,0-14.4-1.8-20.6-6.3c-5.3-3.8-8.2-9-7.7-15.6c0.9-14.2,3.8-28,6.4-42
				c1.2-6.2,2.4-12.5,4.8-18.4c4.2-10.1,9.1-19.8,16.3-28.2c3.5-4.2,8.1-6.8,12.9-9.2c5.8-2.9,11.9-5.1,18.4-5.7
				C274.5,408.4,277,408.4,279.5,408.4 M248.6,521.6c3.8,0,7.4-2.5,8.8-6.8c1.9-5.6,3.2-11.5,4.6-17.2c3.8-16.4,7.6-32.8,11.3-49.2
				c1.2-5.4,2.4-10.9,3.3-16.4c0.5-2.6-0.3-5-2.4-6.7c-1.6-1.3-3.7-1.9-5.8-1.9c-4,0-8.1,2.2-9.5,6c-1.4,3.6-2.6,7.2-3.5,10.9
				c-4.5,18.7-9,37.3-13.4,56c-1,4.4-1.9,8.9-2.8,13.3c0.1,0,0.2,0.1,0.3,0.1c0,0.9,0,1.8,0.1,2.7c0.5,3.8,1.9,7.1,5.8,8.6
				C246.5,521.4,247.6,521.6,248.6,521.6 M279.5,403.5c-3.1,0-5.6,0.1-7.9,0.3c-6.4,0.6-12.9,2.7-20.1,6.2
				c-5.1,2.5-10.4,5.5-14.5,10.4c-6.5,7.7-11.9,17.1-17,29.5c-2.7,6.5-3.9,13.3-5.1,19.3c-0.3,1.6-0.6,3.2-0.9,4.8
				c-2.3,12.3-4.8,24.9-5.5,37.8c-0.5,8.1,2.9,14.9,9.8,19.8c6.7,4.8,14.5,7.2,23.4,7.2c1,0,2,0,3.1-0.1c7.3-0.4,14.5-2.9,21.9-7.5
				c6.4-4,14.6-9.7,20.3-18.5c2.8-4.3,8.6-15.2,13.1-27.9c4.5-12.4,7.5-25.3,9.9-36.2c1-4.4,1.7-8.9,2.5-13.3c0.3-2,0.7-3.9,1-5.9
				l0.9-4.8l-1.4-0.3c-1-10.3-8-17.9-18.9-19.9c-2.9-0.5-6-0.9-9.2-0.9C283,403.5,281.2,403.5,279.5,403.5L279.5,403.5z
				 M244.4,508.7c0.2-0.8,0.3-1.5,0.5-2.3c0.6-3,1.2-6,1.9-9c4.4-18.8,8.8-37.3,13.4-56c0.9-3.6,2.1-7.1,3.4-10.4
				c0.6-1.6,2.7-2.9,4.9-2.9c0.8,0,1.8,0.1,2.7,0.9c0.4,0.4,0.9,0.9,0.7,2.1c-0.9,4.8-1.9,10.1-3.3,16.1c-4.4,19.3-8,34.9-11.3,49.2
				l-0.3,1.2c-1.2,5.2-2.5,10.6-4.2,15.6c-0.7,2.1-2.4,3.5-4.2,3.5c-0.5,0-0.9-0.1-1.4-0.3c-1.1-0.4-2.2-1.1-2.7-4.6
				c0-0.4-0.1-0.9-0.1-1.4c0-0.3,0-0.6,0-0.9L244.4,508.7L244.4,508.7z"/>
		</g>
		<g>
			<path d="M377.8,432.6c1.6-4.9,3.2-9.4,4.4-13.9c0.6-2.1,0.7-4.3,0.7-6.5c0-3.6-3.3-6-6.9-5.3c-6.3,1.2-10.3,5.6-13,10.9
				c-2.4,4.7-3.9,9.9-5.6,14.9c-4.7,13.6-9.3,27.3-13.9,40.9c-2.3,6.9-4.3,13.8-6.2,20.8c-0.9,3.3-1.2,6.7,0,10.1
				c1.3,3.8,5.2,6.1,9,4.7c6.6-2.3,11.3-6.7,13.1-13.6c1.9-7.3,2.5-14.8,2.3-22.3c0-0.1,0-0.1,0-0.2c-0.3-4.1-0.2-4.2,3.7-5.6
				c4.7-1.8,9.6-2.4,14.5-2.6c3.8-0.1,7.5,0,11.5,0c-0.1,0.6-0.3,1.2-0.5,1.8c-5.3,14.4-12.8,27.5-23.4,38.8
				c-5.3,5.6-10.8,10.8-17.7,14.3c-8.4,4.2-17,4.8-26,2.4c-4.3-1.2-8.4-2.7-12.1-5.3c-5.7-4.1-7.2-9.8-6.4-16.3
				c1.7-12.6,6.3-24.4,11.1-36.1c3.9-9.6,8.4-19,13.1-28.3c4.9-9.9,12-18.1,20.2-25.5c7.7-7,16.1-12.9,25.6-17.3
				c5.8-2.7,11.8-5.2,18.1-6.1c8.4-1.2,15.8,0.8,20.5,7.9c1.5,2.2,1.9,4.7,1.4,7.4c-1.5,7.8-3,15.6-4.6,23.3c-0.2,0.7-1,1.7-1.7,1.9
				c-7.5,2.5-15.3,3.6-23.2,4.2C383.2,432.1,380.6,432.3,377.8,432.6z"/>
			<path d="M397.9,386.8c6.6,0,12.3,2.4,16.1,8.2c1.5,2.2,1.9,4.7,1.4,7.4c-1.5,7.8-3,15.6-4.6,23.3c-0.2,0.7-1,1.7-1.7,1.9
				c-7.5,2.5-15.3,3.6-23.2,4.2c-2.7,0.2-5.3,0.5-8.1,0.7c1.6-4.9,3.2-9.4,4.4-13.9c0.6-2.1,0.7-4.3,0.7-6.5c0-3.1-2.5-5.4-5.7-5.4
				c-0.4,0-0.8,0-1.3,0.1c-6.3,1.2-10.3,5.6-13,10.9c-2.4,4.7-3.9,9.9-5.6,14.9c-4.7,13.6-9.3,27.3-13.9,40.9
				c-2.3,6.9-4.3,13.8-6.2,20.8c-0.9,3.3-1.2,6.7,0,10.1c1,3.1,3.7,5.1,6.7,5.1c0.7,0,1.5-0.1,2.3-0.4c6.6-2.3,11.3-6.7,13.1-13.6
				c1.9-7.3,2.5-14.8,2.3-22.3c0-0.1,0-0.1,0-0.2c-0.3-4.1-0.2-4.2,3.7-5.6c4.7-1.8,9.6-2.4,14.5-2.6c1.2,0,2.4-0.1,3.6-0.1
				c2.6,0,5.2,0.1,7.9,0.1c-0.1,0.6-0.3,1.2-0.5,1.8c-5.3,14.4-12.8,27.5-23.4,38.8c-5.3,5.6-10.8,10.8-17.7,14.3
				c-5.1,2.6-10.4,3.8-15.7,3.8c-3.4,0-6.8-0.5-10.3-1.4c-4.3-1.2-8.4-2.7-12.1-5.3c-5.7-4.1-7.2-9.8-6.4-16.3
				c1.7-12.6,6.3-24.4,11.1-36.1c3.9-9.6,8.4-19,13.1-28.3c4.9-9.9,12-18.1,20.2-25.5c7.7-7,16.1-12.9,25.6-17.3
				c5.8-2.7,11.8-5.2,18.1-6.1C395,387,396.4,386.8,397.9,386.8 M397.9,382L397.9,382c-1.6,0-3.4,0.1-5.1,0.4
				c-7.2,1.1-13.9,3.9-19.5,6.5c-9.3,4.4-18.1,10.3-26.7,18.1c-9.6,8.7-16.6,17.5-21.3,27c-4.2,8.4-9,18.4-13.2,28.6
				c-5,12.3-9.7,24.3-11.4,37.3c-1.5,11.2,3.7,17.5,8.3,20.9c4.7,3.3,9.8,5,13.7,6c3.9,1.1,7.8,1.6,11.5,1.6
				c6.2,0,12.2-1.4,17.9-4.3c7.7-3.9,13.7-9.6,19.1-15.3c10.6-11.2,18.6-24.4,24.4-40.4c0.2-0.7,0.4-1.3,0.5-1.8
				c0-0.1,0.1-0.3,0.1-0.4l1.6-6.1l-6.3,0c-1.2,0-2.4,0-3.6,0c-1.4,0-2.9,0-4.3,0c-1.4,0-2.6,0-3.8,0.1c-6.4,0.2-11.5,1.1-16,2.9
				c-2.4,0.9-4.4,1.7-5.8,3.7c-1.4,2.1-1.3,4.3-1.1,6.6c0,0,0,0.1,0,0.1c0.2,8.2-0.5,14.8-2.2,21c-1.3,5-4.6,8.4-10.1,10.3
				c-0.2,0.1-0.4,0.1-0.7,0.1c-0.9,0-1.8-0.7-2.1-1.8c-0.7-2-0.6-4.4,0.1-7.2c2-7.4,4-14.1,6.1-20.5c4.6-13.9,9.4-27.8,13.8-40.9
				c0.3-1,0.7-2,1-3c1.3-4,2.6-7.8,4.4-11.2c2.5-4.9,5.5-7.5,9.5-8.3c0.1,0,0.2,0,0.4,0c0.4,0,0.6,0.1,0.7,0.2c0,0,0.1,0.1,0.1,0.3
				c0,1.7-0.1,3.6-0.5,5.2c-0.9,3.1-1.9,6.2-3,9.5c-0.5,1.4-0.9,2.8-1.4,4.3l-2.3,7l7.3-0.7c0.9-0.1,1.8-0.2,2.6-0.2
				c1.9-0.2,3.6-0.3,5.4-0.5c9.9-0.8,17.4-2.2,24.3-4.5c2.3-0.8,4.4-3.1,4.9-5.5c1.6-7.8,3.2-15.7,4.6-23.4c0.8-3.9,0-7.7-2.1-11
				C413.5,385.6,406.5,382,397.9,382L397.9,382z"/>
		</g>
		<g>
			<path d="M756.2,406.3c4.9,0.3,9.7,0.7,14.5,1c0,4.8,0,9.4-0.1,14.2c-4.2,0-8.1,0-12-0.1c-1.6,0-1.9,0.6-2,2
				c-0.9,10-1.9,20-2.8,30c-0.6,6.6-1.2,13.1-1.7,19.7c-0.6,6.7-1.3,13.4-1.5,20.1c-0.3,8.1,3.8,13.9,11.3,16.8
				c1.1,0.4,1.5,0.9,1.3,2c-0.3,2.2-0.4,4.5-0.6,6.7c-0.1,1.1-0.6,1.8-1.7,2.2c-7.2,2.5-14.6,4.2-22.3,4.7
				c-6.9,0.5-13.6,0.2-20.1-2.2c-8.8-3.2-12.5-9.9-10.9-19.3c2.9-17.1,5.7-34.2,8.7-51.3c1.6-8.9,2.4-17.9,2.8-26.9c0-1,0-2,0-3.2
				c-2.1-0.2-4.1-0.4-6.2-0.6c0.5-3.6,0.9-7.2,1.4-10.7c0.6-3.9,0.7-3.8,4.7-3.8c5,0,5,0,5.6-4.9c0.5-4.2,1.1-8.4,1.6-12.6
				c0.2-1.2,0.3-2.2,1.8-2.7c9.2-2.9,18.4-4.3,28-2.1c1.2,0.3,1.6,0.6,1.5,1.9C757,393.4,756.7,399.7,756.2,406.3z"/>
			<path d="M746.4,384.2c3.2,0,6.4,0.3,9.6,1.1c1.2,0.3,1.6,0.6,1.5,1.9c-0.5,6.3-0.8,12.5-1.3,19.1c4.9,0.3,9.7,0.7,14.5,1
				c0,4.8,0,9.4-0.1,14.2c-0.9,0-1.7,0-2.6,0c-0.7,0-1.3,0-2,0c-2.5,0-5,0-7.4-0.1c-0.1,0-0.1,0-0.2,0c-1.4,0-1.8,0.6-1.9,2
				c-0.9,10-1.9,20-2.8,30c-0.6,6.6-1.2,13.1-1.7,19.7c-0.6,6.7-1.3,13.4-1.5,20.1c-0.3,8.1,3.8,13.9,11.3,16.8
				c1.1,0.4,1.5,0.9,1.3,2c-0.3,2.2-0.4,4.5-0.6,6.7c-0.1,1.1-0.6,1.8-1.7,2.2c-7.2,2.5-14.6,4.2-22.3,4.7c-1.8,0.1-3.5,0.2-5.2,0.2
				c-5.1,0-10-0.6-14.9-2.4c-8.8-3.2-12.5-9.9-10.9-19.3c2.9-17.1,5.7-34.2,8.7-51.3c1.6-8.9,2.4-17.9,2.8-26.9c0-1,0-2,0-3.2
				c-2.1-0.2-4.1-0.4-6.2-0.6c0.5-3.6,0.9-7.2,1.4-10.7c0.6-3.6,0.7-3.8,3.9-3.8c0.2,0,0.5,0,0.8,0c0.3,0,0.6,0,0.9,0
				c4.1,0,4.1-0.3,4.7-4.9c0.5-4.2,1.1-8.4,1.6-12.6c0.2-1.2,0.3-2.2,1.8-2.7C734.1,385.5,740.2,384.2,746.4,384.2 M746.4,379.3v4.9
				V379.3L746.4,379.3c-6.1,0-12.6,1.1-19.8,3.4c-4.5,1.4-5,5.3-5.2,6.7c-0.3,2.5-0.6,4.9-0.9,7.3c-0.2,1.8-0.4,3.5-0.7,5.3
				c0,0.2-0.1,0.5-0.1,0.7l-0.7,0l-0.8,0c-1.9,0-4.5,0-6.4,2c-1.6,1.6-1.9,3.6-2.3,5.9c-0.4,2.5-0.7,5.1-1,7.5
				c-0.1,1.1-0.3,2.2-0.4,3.3l-0.7,5l5,0.5l1.8,0.2c-0.4,8.8-1.3,16.9-2.6,24.9c-1.7,9.6-3.3,19.5-4.9,29
				c-1.2,7.3-2.5,14.9-3.8,22.4c-2,11.7,3.1,20.7,14,24.7c4.9,1.8,10.3,2.6,16.5,2.6c1.8,0,3.6-0.1,5.6-0.2
				c7.7-0.5,15.4-2.2,23.5-4.9c2.9-1,4.8-3.4,5-6.5c0-0.5,0.1-1,0.1-1.5c0.1-1.7,0.2-3.4,0.4-5c0.2-1.9,0-5.4-4.4-7.1
				c-5.7-2.2-8.4-6.2-8.2-12.1c0.2-4.8,0.6-9.7,1-14.5c0.2-1.8,0.3-3.6,0.5-5.3c0.6-7.2,1.1-13.6,1.7-19.7c0.4-4,0.8-8.1,1.1-12.1
				c0.5-5,1-10.2,1.4-15.4c1.7,0,3.3,0,4.9,0l1,0l1,0c0.8,0,1.7,0,2.6,0l4.9,0l0-4.9l0.1-12.8l0-1.3l0-4.6l-4.6-0.3l-9.7-0.7
				c0-0.1,0-0.2,0-0.3c0.3-4.8,0.6-9.3,0.9-13.9c0.3-3.6-1.7-6.2-5.2-7C753.6,379.8,750,379.3,746.4,379.3L746.4,379.3z"/>
		</g>
	</g>
	<g>
		<g>
			<path class="st3" d="M437.1,467.9c-0.4,0.7-0.7,1.3-1,1.9c-7.1,13.9-14.2,27.8-21.3,41.6c-0.3,0.5-1.1,1.1-1.7,1.2
				c-8.7,0.3-17.4,0.5-26.2,0.7c-0.7,0-1.4-0.2-2.3-0.4c2-5,3.9-9.9,5.9-14.7c8.1-18.8,16.2-37.6,24.5-56.2
				c7.4-16.5,14.1-33.2,19.7-50.3c3.5-10.7,6.3-21.7,9.6-32.4c1.1-3.5,2.5-7,3.9-10.4c0.2-0.6,0.8-1.1,1.4-1.3
				c8.3-3,16.8-5.1,25.7-5.2c4.9-0.1,9.8,0.3,14.7,0.5c0.6,0,1.2,0.3,1.9,0.4c-9.7,24.4-24.5,46.1-33.8,70.7c1,0.6,2.1,1.2,3.4,2
				c1.7-2.5,3.3-4.9,5-7.3c5-7,9.8-14.1,15.2-20.8c4.9-6.1,10.8-11.4,17.3-15.8c6-4,12.8-4.6,19.8-3.8c1.6,0.2,3.1,0.5,5,0.8
				c-2,2.9-3.9,5.7-5.9,8.5c-9.1,12.8-18.2,25.6-27.3,38.5c-2.6,3.7-5.2,7.3-7.7,11c-0.6,0.8-1,1.8-1.3,2.8
				c-5.3,20.7-10.6,41.5-15.9,62.2c-0.5,2.1-1,4.2-1.6,6.3c-0.2,0.6-0.8,1.4-1.3,1.6c-9.9,2.7-19.8,5.4-29.7,8.1
				c-0.2,0.1-0.5,0.1-1.1,0.1c0.4-1.9,0.8-3.7,1.2-5.4c2.5-10.6,4.9-21.2,7.4-31.8c0.2-1,0.1-1.6-0.9-1.9
				C438.9,468.6,438,468.2,437.1,467.9z"/>
			<path d="M477.1,342.2c4.4,0,8.7,0.3,13.1,0.5c0.6,0,1.2,0.3,1.9,0.4c-9.7,24.4-24.5,46.1-33.8,70.7c1,0.6,2.1,1.2,3.4,2
				c1.7-2.5,3.3-4.9,5-7.3c5-7,9.8-14.1,15.2-20.8c4.9-6.1,10.8-11.4,17.3-15.8c4.6-3.1,9.6-4.1,14.8-4.1c1.7,0,3.3,0.1,5,0.3
				c1.6,0.2,3.1,0.5,5,0.8c-2,2.9-3.9,5.7-5.9,8.5c-9.1,12.8-18.2,25.6-27.3,38.5c-2.6,3.7-5.2,7.3-7.7,11c-0.6,0.8-1,1.8-1.3,2.8
				c-5.3,20.7-10.6,41.5-15.9,62.2c-0.5,2.1-1,4.2-1.6,6.3c-0.2,0.6-0.8,1.4-1.3,1.6c-9.9,2.7-19.8,5.4-29.7,8.1
				c-0.2,0.1-0.5,0.1-1.1,0.1c0.4-1.9,0.8-3.7,1.2-5.4c2.5-10.6,4.9-21.2,7.4-31.8c0.2-1,0.1-1.6-0.9-1.9c-0.9-0.3-1.7-0.6-2.6-0.9
				c-0.4,0.7-0.7,1.3-1,1.9c-7.1,13.9-14.2,27.8-21.3,41.6c-0.3,0.5-1.1,1.1-1.7,1.2c-8.7,0.3-17.4,0.5-26.2,0.7c0,0,0,0-0.1,0
				c-0.7,0-1.3-0.2-2.2-0.4c2-5,3.9-9.9,5.9-14.7c8.1-18.8,16.2-37.6,24.5-56.2c7.4-16.5,14.1-33.2,19.7-50.3
				c3.5-10.7,6.3-21.7,9.6-32.4c1.1-3.5,2.5-7,3.9-10.4c0.2-0.6,0.8-1.1,1.4-1.3c8.3-3,16.8-5.1,25.7-5.2
				C476,342.2,476.5,342.2,477.1,342.2 M477.1,339.3c-0.6,0-1.1,0-1.7,0c-8.3,0.2-17,2-26.6,5.4c-1.4,0.5-2.6,1.7-3.1,3
				c-0.2,0.6-0.5,1.2-0.7,1.8c-1.2,2.9-2.3,5.8-3.3,8.9c-1.3,4.2-2.5,8.4-3.6,12.5c-1.9,6.5-3.8,13.3-5.9,19.8
				c-5.2,15.8-11.6,32.1-19.6,50c-6.9,15.5-13.8,31.4-20.4,46.7c-1.4,3.2-2.8,6.4-4.1,9.6c-1.4,3.3-2.8,6.7-4.1,10.1
				c-0.6,1.6-1.2,3.1-1.9,4.7l-1.3,3.3l3.5,0.6c0.3,0,0.5,0.1,0.7,0.2c0.6,0.1,1.3,0.3,2,0.3l0.1,0c9.7-0.2,17.9-0.4,26.2-0.7
				c1.8-0.1,3.5-1.5,4.2-2.7c5.8-11.3,11.7-22.8,17.4-33.9l1.9-3.6c-1.9,7.9-3.7,15.8-5.5,23.6l-0.7,3.1c-0.3,1.2-0.5,2.4-0.8,3.7
				c-0.1,0.6-0.3,1.2-0.4,1.8l-0.9,4l4.1-0.5c0.2,0,0.4,0,0.5-0.1c0.3,0,0.7-0.1,1-0.2l3.9-1.1c8.5-2.3,17.2-4.6,25.8-7
				c1.9-0.5,3-2.5,3.3-3.6c0.5-1.5,0.8-3,1.2-4.4c0.2-0.7,0.3-1.3,0.5-2l1.5-5.8c4.7-18.5,9.6-37.6,14.5-56.4
				c0.2-0.6,0.5-1.2,0.9-1.8c2.5-3.6,5-7.2,7.5-10.7l0.2-0.3c3.9-5.5,7.8-11,11.7-16.5c5.2-7.3,10.4-14.6,15.6-21.9
				c1.3-1.9,2.6-3.8,4-5.8c0.6-0.9,1.3-1.8,1.9-2.8l2.6-3.8l-4.6-0.7c-0.6-0.1-1.1-0.2-1.7-0.3c-1.2-0.2-2.3-0.4-3.4-0.5
				c-1.9-0.2-3.6-0.3-5.3-0.3c-6.4,0-11.8,1.5-16.4,4.6c-6.9,4.7-12.9,10.2-18,16.4c-3.9,4.9-7.6,10-11.1,15c-1.4,2-2.8,4-4.2,5.9
				c-0.1,0.1-0.1,0.2-0.2,0.3c4.2-9.8,9.2-19.4,14.1-28.7c5.8-11,11.7-22.4,16.5-34.2l1.3-3.2l-3.3-0.7c-0.2,0-0.3-0.1-0.5-0.1
				c-0.5-0.1-1.2-0.3-1.9-0.3c-1.4-0.1-2.7-0.1-4.1-0.2C483.2,339.4,480.2,339.3,477.1,339.3L477.1,339.3z"/>
		</g>
		<g>
			<path class="st3" d="M695.2,406.9c-3.2,41.9-10.2,83.2-22.6,123.9c-11.5-1.3-23.4-2.5-35.2-3.8c-1.3-0.1-1.5-0.7-1.1-1.8
				c0.5-1.6,1-3.1,1.6-5.1c-2.7,0.9-4.9,1.8-7.3,2.5c-7.4,2.5-14.9,4.4-22.7,4.5c-9.4,0.2-17.8-2.8-24.3-9.9
				c-2.4-2.6-3.2-5.7-2.2-9.3c4.2-14.5,8.9-28.8,15.9-42.2c9.1-17.4,15.9-35.7,22.7-54.1c0.7-1.8,1.4-3.6,1.9-5.4
				c0.3-1,0.8-1.4,1.9-1.5c8.6-0.9,16.8,0.8,24.9,3.4c4.8,1.6,4.9,1.6,3.4,6.5c-3.5,11.1-7.1,22.2-10.6,33.4
				c-4.5,14.2-8.8,28.5-13.3,42.8c-1,3.3-2.3,6.5-3.3,9.9c-0.4,1.4-0.5,2.9-0.2,4.3c0.6,3,3.2,3.6,5.6,3.6c2.9,0.1,5.9-0.3,8.8-0.7
				c0.6-0.1,1.5-0.7,1.7-1.3c5.2-16,10.9-31.8,15.4-47.9c4-14.5,6.9-29.3,9.8-44.1c0.9-4.7,3.4-6.3,7.6-7
				C679.4,406.8,691,406.2,695.2,406.9z"/>
			<path d="M628.7,404.5c6.9,0,13.6,1.5,20.2,3.7c4.8,1.6,4.9,1.6,3.4,6.5c-3.5,11.1-7.1,22.2-10.6,33.4
				c-4.5,14.2-8.8,28.5-13.3,42.8c-1,3.3-2.3,6.5-3.3,9.9c-0.4,1.4-0.5,2.9-0.2,4.3c0.6,3,3.2,3.6,5.6,3.6c0.2,0,0.4,0,0.6,0
				c2.7,0,5.5-0.4,8.2-0.7c0.6-0.1,1.5-0.7,1.7-1.3c5.2-16,10.9-31.8,15.4-47.9c4-14.5,6.9-29.3,9.8-44.1c0.9-4.7,3.4-6.3,7.6-7
				c4-0.6,10.6-1,15.8-1c2.4,0,4.4,0.1,5.8,0.3c-3.2,41.9-10.2,83.2-22.6,123.9c-11.5-1.3-23.4-2.5-35.2-3.8
				c-1.3-0.1-1.5-0.7-1.1-1.8c0.5-1.6,1-3.1,1.6-5.1c-2.7,0.9-4.9,1.8-7.3,2.5c-7.4,2.5-14.9,4.4-22.7,4.5c-0.2,0-0.5,0-0.7,0
				c-9.1,0-17.2-3-23.6-9.9c-2.4-2.6-3.2-5.7-2.2-9.3c4.2-14.5,8.9-28.8,15.9-42.2c9.1-17.4,15.9-35.7,22.7-54.1
				c0.7-1.8,1.4-3.6,1.9-5.4c0.3-1,0.8-1.4,1.9-1.5C625.5,404.6,627.1,404.5,628.7,404.5 M628.7,401.6c-1.7,0-3.4,0.1-5.1,0.3
				c-2.2,0.2-3.7,1.4-4.3,3.5c-0.4,1.4-0.9,2.8-1.5,4.2l-0.4,1.1c-6.2,17-13.3,36.2-22.5,53.7c-7.3,13.8-12.1,28.7-16.2,42.8
				c-1.3,4.4-0.3,8.7,2.8,12.1c6.7,7.2,15.3,10.8,25.7,10.8c0.3,0,0.5,0,0.8,0c7-0.1,14.3-1.6,23.6-4.7c0.6-0.2,1.2-0.4,1.8-0.6
				c-0.3,1.3-0.2,2.4,0.4,3.3c0.7,1.1,1.8,1.7,3.3,1.8c9.2,1,18.4,2,27.4,2.9l7.8,0.8l2.4,0.3l0.7-2.3
				c11.9-39.2,19.4-79.9,22.7-124.5l0.2-2.7l-2.6-0.4c-1.4-0.2-3.5-0.4-6.3-0.4c-5.3,0-12.1,0.5-16.2,1.1c-7.5,1.1-9.3,5.5-10,9.3
				l-0.4,1.8c-2.7,13.9-5.6,28.2-9.4,42c-3.2,11.6-7.2,23.3-11,34.6c-1.4,4.1-2.8,8.4-4.2,12.6l0,0c-2.5,0.3-4.9,0.6-7.2,0.6
				c-0.2,0-0.4,0-0.6,0c-2.6-0.1-2.7-0.7-2.8-1.3c-0.2-0.9-0.1-2,0.2-3c0.5-1.8,1.1-3.6,1.8-5.5c0.5-1.4,1-2.9,1.5-4.3
				c2-6.3,3.9-12.7,5.9-19c2.4-7.8,4.9-15.9,7.4-23.8c1.9-6.1,3.9-12.4,5.8-18.4c1.6-5,3.2-10,4.8-15c0.9-2.9,1.5-4.8,0.5-6.7
				c-1-1.9-2.9-2.5-5.8-3.4C641.7,402.8,635,401.6,628.7,401.6L628.7,401.6z"/>
		</g>
		<g>
			<path class="st3" d="M97.8,410.2c-1.9,11.3-5,22-8.8,32.5c-4.4,12-8.8,24.1-13.1,36.2c-0.2,0.6-0.3,1.6,0.1,2.1
				c6.5,9.7,9.9,20.6,12.1,32c2.5,13.1,5.2,26.1,7.8,39.2c0,0.2,0,0.4,0.1,0.7c-12.4,1.7-24.8,3.5-37.4,5.2
				c-0.9-4.6-1.8-9.2-2.7-13.7c-1.6-8.1-3.3-16.2-4.7-24.3c-0.4-2-1.3-2.2-2.8-2c-0.6,0.1-1.1,0.3-1.8,0.4
				c-1.4,13.5-2.8,27-4.2,40.8c-7.7,1-15.3,2-23.2,3.1c0-2.3,0-4.3,0-6.3c0.3-6.2,0.6-12.4,0.8-18.7c0.3-7.3,0.6-14.6,0.9-21.9
				c0.1-3.6,0.5-7.2,0.3-10.8c-0.5-8.8-1.3-17.6-2-26.4c-0.4-5.6-0.8-11.1-1.2-16.7c-0.6-9.2-1.2-18.4-1.8-27.6c0-0.6,0-1.1,0-1.9
				c9.8-2,19.5-4.1,29.4-6.2c-0.1,13.5-0.1,26.8-0.2,40.3c2.3-1,4.4-1.7,6.3-2.7c0.6-0.3,1-1.1,1.2-1.8c4.4-12.7,8.9-25.4,13.2-38.2
				c1-3,2.4-4.8,5.7-5.7C80.5,415.6,89,412.9,97.8,410.2z"/>
			<path d="M97.8,410.2c-1.9,11.3-5,22-8.8,32.5c-4.4,12-8.8,24.1-13.1,36.2c-0.2,0.6-0.3,1.6,0.1,2.1c6.5,9.7,9.9,20.6,12.1,32
				c2.5,13.1,5.2,26.1,7.8,39.2c0,0.2,0,0.4,0.1,0.7c-12.4,1.7-24.8,3.5-37.4,5.2c-0.9-4.6-1.8-9.2-2.7-13.7
				c-1.6-8.1-3.3-16.2-4.7-24.3c-0.3-1.6-0.9-2.1-2-2.1c-0.3,0-0.5,0-0.9,0.1c-0.6,0.1-1.1,0.3-1.8,0.4c-1.4,13.5-2.8,27-4.2,40.8
				c-7.7,1-15.3,2-23.2,3.1c0-2.3,0-4.3,0-6.3c0.3-6.2,0.6-12.4,0.8-18.7c0.3-7.3,0.6-14.6,0.9-21.9c0.1-3.6,0.5-7.2,0.3-10.8
				c-0.5-8.8-1.3-17.6-2-26.4c-0.4-5.6-0.8-11.1-1.2-16.7c-0.6-9.2-1.2-18.4-1.8-27.6c0-0.6,0-1.1,0-1.9c9.8-2,19.5-4.1,29.4-6.2
				c-0.1,13.5-0.1,26.8-0.2,40.3c2.3-1,4.4-1.7,6.3-2.7c0.6-0.3,1-1.1,1.2-1.8c4.4-12.7,8.9-25.4,13.2-38.2c1-3,2.4-4.8,5.7-5.7
				C80.5,415.6,89,412.9,97.8,410.2 M101.5,406.1l-4.5,1.3c-2.5,0.8-5,1.5-7.5,2.3c-6.3,1.9-12.2,3.7-18.3,5.3
				c-5,1.3-6.7,4.6-7.7,7.6c-3.5,10.4-7.2,21-10.8,31.2c-0.8,2.3-1.6,4.6-2.4,6.9c0,0.1-0.1,0.2-0.1,0.3c-0.6,0.3-1.2,0.5-1.8,0.8
				l0.1-15.8l0.1-20.1l0-3.6l-3.5,0.7l-2.5,0.5l-26.9,5.6l-2.3,0.5l0,2.4c0,0.2,0,0.5,0,0.7c0,0.5,0,0.9,0,1.4l0.3,4.4
				c0.5,7.6,1,15.5,1.5,23.2c0.4,5.3,0.8,10.6,1.1,15.7l0.1,1c0.2,2.7,0.4,5.5,0.6,8.2c0.5,6,1,12.1,1.3,18.2c0.1,2.4,0,4.8-0.1,7.4
				c-0.1,1-0.1,2.1-0.2,3.1c-0.3,8.5-0.6,15.5-0.9,21.9c-0.1,2.8-0.3,5.7-0.4,8.5c-0.2,3.4-0.3,6.7-0.5,10.1c-0.1,1.4-0.1,2.9,0,4.4
				c0,0.7,0,1.4,0,2.1l0,3.3l3.3-0.4l23.2-3.1l2.3-0.3l0.2-2.3l2.1-20.7l1.5-14.8c0.9,4.8,1.8,9.6,2.8,14.3c0.4,2.2,0.9,4.3,1.3,6.5
				l1.9,9.5l0.8,4.2l0.5,2.7l2.7-0.4l19.6-2.7l17.8-2.5l2.7-0.4l-0.2-2.8c0-0.1,0-0.2,0-0.2c0-0.2,0-0.5-0.1-0.8
				c-0.8-4.1-1.6-8.2-2.5-12.3c-1.8-8.8-3.6-17.9-5.4-26.8c-2.6-13.5-6.5-23.9-12.2-32.6c3.8-10.5,7.8-21.6,13.1-36
				c4.2-11.4,7.1-22.2,8.9-33L101.5,406.1L101.5,406.1z"/>
		</g>
		<g>
			<path class="st3" d="M108.8,549.2c0.3-3.9,0.5-7.5,0.7-11.1c0.4-7.2,0.9-14.3,1.3-21.5c0.5-8.4,1.1-16.9,1.7-25.3
				c0.6-8.4,1.1-16.7,1.7-25.1c0.6-8.4,1.1-16.7,1.7-25.1c0.1-1,0-2.1,0.4-3c0.2-0.6,0.9-1.3,1.5-1.4c6.3-1.5,12.6-3,18.9-4.4
				c1.9-0.4,3.8-0.7,5.7-0.8c0.5,0,1.3,0.6,1.5,1.1c0.6,1.4,0.9,2.9,1.3,4.5c3.2-2.2,6-4.3,9.1-6.2c7-4.4,14.4-8.1,22.7-9.5
				c7.1-1.2,13.5,0.2,19,5c3.7,3.3,4.6,7.8,3.8,12.4c-3.5,19.2-7.2,38.4-10.8,57.6c-1.9,9.9-3.8,19.7-5.4,29.6
				c-0.5,2.9,0.5,5.8,1.9,8.5c1.1,1.9,0.8,2.3-1.4,2.7c-9.6,1.5-19.2,2.9-29.1,4.5c0.2-2.5,0.3-4.9,0.5-7.3c0.5-5.4,1-10.7,1.5-16
				c0.7-7.7,1.4-15.3,2.1-23c0.9-10.2,1.7-20.3,2.4-30.5c0.4-4.8,0.8-9.7-0.7-14.5c-1.3-3.9-5.1-6.4-9.2-6c-4.2,0.4-7.7,3.7-8,7.8
				c-0.4,5.2-0.7,10.4-0.9,15.5c-0.4,9.6-0.6,19.1-0.9,28.7c-0.3,8.5-0.7,16.9-1.3,25.4c-0.5,6.7-1.4,13.4-1.9,20.1
				c-0.2,1.9-1.3,1.7-2.5,1.7c-8.8,0.2-16.9,3.3-25.3,5.4C110,549,109.5,549.1,108.8,549.2z"/>
			<path d="M181.5,420.9c5.3,0,10.1,1.7,14.3,5.4c3.7,3.3,4.6,7.8,3.8,12.4c-3.5,19.2-7.2,38.4-10.8,57.6
				c-1.9,9.9-3.8,19.7-5.4,29.6c-0.5,2.9,0.5,5.8,1.9,8.5c1.1,1.9,0.8,2.3-1.4,2.7c-9.6,1.5-19.2,2.9-29.1,4.5
				c0.2-2.5,0.3-4.9,0.5-7.3c0.5-5.4,1-10.7,1.5-16c0.7-7.7,1.4-15.3,2.1-23c0.9-10.2,1.7-20.3,2.4-30.5c0.4-4.8,0.8-9.7-0.7-14.5
				c-1.2-3.6-4.5-6-8.3-6c-0.3,0-0.6,0-0.9,0c-4.2,0.4-7.7,3.7-8,7.8c-0.4,5.2-0.7,10.4-0.9,15.5c-0.4,9.6-0.6,19.1-0.9,28.7
				c-0.3,8.5-0.7,16.9-1.3,25.4c-0.5,6.7-1.4,13.4-1.9,20.1c-0.2,1.9-1.3,1.7-2.5,1.7c-8.8,0.2-16.9,3.3-25.3,5.4
				c-0.4,0.1-0.9,0.2-1.6,0.3c0.3-3.9,0.5-7.5,0.7-11.1c0.4-7.2,0.9-14.3,1.3-21.5c0.5-8.4,1.1-16.9,1.7-25.3
				c0.6-8.4,1.1-16.7,1.7-25.1c0.6-8.4,1.1-16.7,1.7-25.1c0.1-1,0-2.1,0.4-3c0.2-0.6,0.9-1.3,1.5-1.4c6.3-1.5,12.6-3,18.9-4.4
				c1.9-0.4,3.8-0.7,5.7-0.8c0,0,0,0,0,0c0.5,0,1.3,0.6,1.5,1.1c0.6,1.4,0.9,2.9,1.3,4.5c3.2-2.2,6-4.3,9.1-6.2
				c7-4.4,14.4-8.1,22.7-9.5C178.4,421.1,179.9,420.9,181.5,420.9 M181.5,418c-1.7,0-3.4,0.2-5.2,0.5c-7.6,1.3-14.9,4.4-23.8,9.9
				c-2,1.2-3.8,2.5-5.8,3.9c-0.1-0.3-0.2-0.6-0.3-0.8c-0.6-1.5-2.3-3-4.2-3h-0.1l-0.1,0c-2.1,0.1-4.2,0.4-6.1,0.8
				c-6.3,1.4-12.7,2.9-18.9,4.4c-1.5,0.4-3,1.8-3.5,3.3c-0.4,1.1-0.4,2.2-0.5,3.1c0,0.2,0,0.4,0,0.6c-0.5,6.9-0.9,13.7-1.4,20.6
				l-0.3,4.6l-0.3,4.3c-0.5,6.9-0.9,13.9-1.4,20.8l-0.4,5.8c-0.4,6.5-0.9,13.1-1.3,19.6c-0.3,4.1-0.5,8.2-0.8,12.4
				c-0.2,3.1-0.4,6.1-0.6,9.2c-0.2,2.5-0.3,5-0.5,7.5l-0.2,3.6l-0.2,3.7l3.6-0.6c0.2,0,0.5-0.1,0.6-0.1c0.4-0.1,0.8-0.1,1.2-0.2
				c2.3-0.6,4.6-1.2,6.8-1.8c6.1-1.7,11.8-3.3,17.9-3.5l0.3,0c3.9-0.1,4.9-2.4,5.1-4.4c0.2-2.9,0.6-5.8,0.9-8.6
				c0.4-3.7,0.8-7.6,1.1-11.5c0.6-8.8,1-17.7,1.3-25.5c0.2-5,0.3-10,0.5-14.9c0.1-4.5,0.3-9.2,0.5-13.8c0.2-4.5,0.5-9.3,0.9-15.4
				c0.2-2.7,2.5-4.8,5.4-5.1c0.2,0,0.4,0,0.6,0c2.6,0,4.7,1.6,5.5,4c1.3,4,1,8.1,0.6,12.6l-0.1,0.8c-0.8,10.8-1.7,21.4-2.4,30.4
				c-0.6,6.9-1.2,13.8-1.8,20.6l-0.2,2.4c-0.2,2.5-0.5,5-0.7,7.5c-0.3,2.9-0.6,5.7-0.8,8.6c-0.2,1.7-0.3,3.4-0.4,5
				c0,0.8-0.1,1.5-0.1,2.3l-0.2,3.6l3.6-0.6l7.9-1.2c7.1-1.1,14.2-2.2,21.2-3.2c1.1-0.2,3.2-0.5,4.1-2.4c0.9-1.9-0.1-3.7-0.6-4.6
				c-1.4-2.5-1.9-4.7-1.6-6.6c1.3-7.8,2.8-15.8,4.3-23.4c0.4-2,0.8-4.1,1.2-6.1c1.1-5.9,2.2-11.8,3.3-17.7c2.5-13.1,5-26.6,7.4-39.9
				c1.1-6.1-0.6-11.5-4.7-15.1C193.1,420.1,187.6,418,181.5,418L181.5,418z"/>
		</g>
		<g>
			<path class="st3" d="M560.6,386.5c10.7,0.7,21.2,2.1,30.9,6.7c5.4,2.6,8.6,6.7,7.9,13c-0.2,2-0.5,3.9-0.9,5.9
				c-2.3,10.2-5.7,20.2-11.3,28.8c-5.7,8.7-9.7,18.3-15.8,26.8c-5.8,8.2-12.5,15.4-20.7,21.3c-6.9,5-14.8,7.2-23.2,8.1
				c-11.2,1.2-22.3,0.5-33.3-1.3c-4.5-0.7-8.9-2.2-12.5-5.1c-3-2.4-4.2-5.6-3.8-9.5c1-8.5,5.2-15.3,10.4-21.8
				c6.8-8.4,13.2-17.2,19.3-26.1c6.1-8.9,11.3-18.3,17.2-27.3c6.7-10.1,15.9-17,28.2-19c1.3-0.2,2.5-0.4,3.8-0.5
				C558.1,386.4,559.3,386.5,560.6,386.5z M521.8,482.8c6.2,0,9.4-2.1,11.5-5.7c4.1-7,8.1-14.1,11.8-21.4
				c4.6-9.2,8.9-18.5,13.3-27.7c2.4-5,5-9.8,7.4-14.8c2.5-5.4-0.4-12-7.5-11.6c-5.6,0.3-9.2,3.5-11.5,8.3c-4.6,9.9-9,20-13.8,29.9
				c-3.5,7.2-7.2,14.3-10.9,21.4c-1.8,3.5-4.1,6.8-5.6,10.5C514.3,477.2,517.3,482.9,521.8,482.8z"/>
			<path d="M558.2,386.4c0.8,0,1.6,0,2.4,0c10.7,0.7,21.2,2.1,30.9,6.7c5.4,2.6,8.6,6.7,7.9,13c-0.2,2-0.5,3.9-0.9,5.9
				c-2.3,10.2-5.7,20.2-11.3,28.8c-5.7,8.7-9.7,18.3-15.8,26.8c-5.8,8.2-12.5,15.4-20.7,21.3c-6.9,5-14.8,7.2-23.2,8.1
				c-3.8,0.4-7.5,0.6-11.3,0.6c-7.4,0-14.7-0.7-22-1.9c-4.5-0.7-8.9-2.2-12.5-5.1c-3-2.4-4.2-5.6-3.8-9.5c1-8.5,5.2-15.3,10.4-21.8
				c6.8-8.4,13.2-17.2,19.3-26.1c6.1-8.9,11.3-18.3,17.2-27.3c6.7-10.1,15.9-17,28.2-19c1.3-0.2,2.5-0.4,3.8-0.5
				C557.3,386.4,557.7,386.4,558.2,386.4 M521.8,482.8C521.8,482.8,521.8,482.8,521.8,482.8c6.2,0,9.4-2.1,11.5-5.7
				c4.1-7,8.1-14.1,11.8-21.4c4.6-9.2,8.9-18.5,13.3-27.7c2.4-5,5-9.8,7.4-14.8c2.5-5.2-0.3-11.6-6.9-11.6c-0.2,0-0.4,0-0.6,0
				c-5.6,0.3-9.2,3.5-11.5,8.3c-4.6,9.9-9,20-13.8,29.9c-3.5,7.2-7.2,14.3-10.9,21.4c-1.8,3.5-4.1,6.8-5.6,10.5
				C514.3,477.2,517.2,482.8,521.8,482.8 M558.2,383.5c-0.5,0-1,0-1.5,0c-1.2,0.1-2.5,0.2-4.1,0.5c-12.4,2-22.6,8.9-30.1,20.2
				c-2.8,4.3-5.5,8.7-8.1,12.9c-2.9,4.8-5.9,9.7-9.1,14.4c-6.2,9.2-12.7,17.9-19.2,25.9c-4.9,6-10,13.5-11.1,23.3
				c-0.6,5,1.1,9.1,4.8,12.1c3.6,2.9,8.1,4.8,13.9,5.7c8,1.3,15.4,2,22.5,2c3.9,0,7.8-0.2,11.6-0.6c9.9-1.1,17.9-3.9,24.5-8.6
				c7.9-5.7,14.9-12.9,21.4-22c3.4-4.8,6.2-10,8.9-15c2.2-4,4.4-8.1,6.9-11.9c5.2-8,9.1-17.8,11.7-29.8c0.5-2,0.7-4.1,1-6.2
				c0.6-4.9-0.6-11.7-9.5-16c-10.6-5.1-22.1-6.4-32-7l-0.1,0l-0.1,0c-0.4,0-0.7,0-1.1,0C559.1,383.5,558.6,383.5,558.2,383.5
				L558.2,383.5z M521.8,479.9c-1.1,0-1.8-0.7-2.2-1.3c-0.8-1.2-1.3-3.3-0.3-5.8c0.8-2.1,2-4.2,3.3-6.3c0.7-1.3,1.5-2.6,2.2-3.9
				c0.8-1.5,1.6-3.1,2.4-4.6c2.9-5.5,5.9-11.2,8.6-16.9c2.8-5.9,5.6-12,8.2-17.8c1.8-4,3.7-8.1,5.5-12.1c2-4.3,4.9-6.4,9-6.6
				c0.1,0,0.3,0,0.4,0c1.8,0,3.2,0.7,4.1,2c1,1.5,1,3.6,0.2,5.5c-1.3,2.7-2.6,5.4-4,8c-1.1,2.2-2.3,4.5-3.4,6.8
				c-1.6,3.4-3.3,6.9-4.9,10.2c-2.7,5.8-5.5,11.7-8.5,17.5c-3.7,7.4-7.8,14.5-11.7,21.3C529.5,477.9,527.5,479.9,521.8,479.9
				L521.8,479.9L521.8,479.9z"/>
		</g>
		<g>
			<path class="st3" d="M302.1,425.4c-1.2,6.3-2.2,12.7-3.5,19c-2.6,12-5.5,24-9.7,35.6c-3.4,9.4-7.2,18.5-12.6,26.9
				c-4.8,7.3-11.5,12.5-18.8,17.1c-6,3.7-12.5,6.3-19.6,6.7c-8.4,0.5-16.4-1.2-23.3-6.2c-5.3-3.8-8.2-9-7.7-15.6
				c0.9-14.2,3.8-28,6.4-42c1.2-6.2,2.4-12.5,4.8-18.4c4.2-10.1,9.1-19.8,16.3-28.2c3.5-4.2,8.1-6.8,12.9-9.2
				c5.8-2.9,11.9-5.1,18.4-5.7c4.2-0.4,8.4-0.3,12.6-0.3c2.8,0.1,5.6,0.3,8.4,0.8c9.7,1.8,15.7,8.8,15,19.1
				C301.7,425.3,301.9,425.4,302.1,425.4z M232.7,506.6c0.1,0,0.2,0.1,0.3,0.1c0,0.9,0,1.8,0.1,2.7c0.5,3.8,1.9,7.1,5.8,8.6
				c4.7,1.8,10.1-0.7,11.9-6.2c1.9-5.6,3.2-11.5,4.6-17.2c3.8-16.4,7.6-32.8,11.3-49.2c1.2-5.4,2.4-10.9,3.3-16.4
				c0.5-2.6-0.3-5-2.4-6.7c-4.8-3.8-13.1-1.7-15.3,4.1c-1.4,3.6-2.6,7.2-3.5,10.9c-4.5,18.7-9,37.3-13.4,56
				C234.5,497.7,233.6,502.1,232.7,506.6z"/>
			<path d="M272.9,405.2c1.7,0,3.5,0,5.2,0.1c2.8,0.1,5.6,0.3,8.4,0.8c9.7,1.8,15.7,8.8,15,19.1c0.2,0,0.4,0.1,0.6,0.1
				c-1.2,6.3-2.2,12.7-3.5,19c-2.6,12-5.5,24-9.7,35.6c-3.4,9.4-7.2,18.5-12.6,26.9c-4.8,7.3-11.5,12.5-18.8,17.1
				c-6,3.7-12.5,6.3-19.6,6.7c-0.9,0.1-1.9,0.1-2.8,0.1c-7.4,0-14.4-1.8-20.6-6.3c-5.3-3.8-8.2-9-7.7-15.6c0.9-14.2,3.8-28,6.4-42
				c1.2-6.2,2.4-12.5,4.8-18.4c4.2-10.1,9.1-19.8,16.3-28.2c3.5-4.2,8.1-6.8,12.9-9.2c5.8-2.9,11.9-5.1,18.4-5.7
				C267.9,405.3,270.4,405.2,272.9,405.2 M242,518.5c3.8,0,7.4-2.5,8.8-6.8c1.9-5.6,3.2-11.5,4.6-17.2c3.8-16.4,7.6-32.8,11.3-49.2
				c1.2-5.4,2.4-10.9,3.3-16.4c0.5-2.6-0.3-5-2.4-6.7c-1.6-1.3-3.7-1.9-5.8-1.9c-4,0-8.1,2.2-9.5,6c-1.4,3.6-2.6,7.2-3.5,10.9
				c-4.5,18.7-9,37.3-13.4,56c-1,4.4-1.9,8.9-2.8,13.3c0.1,0,0.2,0.1,0.3,0.1c0,0.9,0,1.8,0.1,2.7c0.5,3.8,1.9,7.1,5.8,8.6
				C240,518.3,241,518.5,242,518.5 M272.9,402.3L272.9,402.3c-3,0-5.4,0.1-7.7,0.3c-6.1,0.6-12.5,2.6-19.4,6
				c-4.9,2.4-10,5.3-13.9,9.9c-6.4,7.6-11.7,16.8-16.7,29c-2.6,6.3-3.8,12.7-5,18.9c-0.3,1.6-0.6,3.2-0.9,4.8
				c-2.3,12.2-4.7,24.8-5.5,37.5c-0.5,7.4,2.6,13.6,9,18.1c6.3,4.5,13.8,6.8,22.2,6.8c1,0,2,0,3-0.1c7-0.4,13.9-2.8,21-7.2
				c6.3-3.9,14.2-9.4,19.7-17.9c6-9.2,9.9-19.1,12.9-27.5c4.4-12.3,7.5-25.1,9.8-36c1-4.4,1.7-8.9,2.5-13.2c0.3-2,0.7-3.9,1.1-5.9
				l0.5-2.9l-1-0.2c-0.3-10.2-6.8-17.6-17.4-19.6c-2.8-0.5-5.8-0.8-8.9-0.9C276.5,402.4,274.7,402.3,272.9,402.3L272.9,402.3z
				 M235.9,505.5c0.2-0.8,0.3-1.7,0.5-2.5c0.6-3,1.2-6,1.9-9c4.4-18.9,8.8-37.3,13.4-56c0.9-3.7,2.2-7.3,3.4-10.6
				c0.9-2.4,3.7-4.1,6.8-4.1c1.1,0,2.6,0.2,3.9,1.3c1.5,1.2,1.6,2.8,1.4,3.9c-0.9,4.9-1.9,10.2-3.3,16.2c-4.4,19.3-8,35-11.3,49.2
				l-0.3,1.2c-1.2,5.3-2.5,10.7-4.2,15.8c-1,2.9-3.4,4.8-6.1,4.8c-0.7,0-1.4-0.1-2.1-0.4c-2.3-0.9-3.5-2.7-3.9-6.2
				c-0.1-0.5-0.1-1-0.1-1.6c0-0.3,0-0.6,0-0.9L235.9,505.5L235.9,505.5z"/>
		</g>
		<g>
			<path class="st3" d="M370.3,432.6c1.6-4.9,3.2-9.4,4.4-13.9c0.6-2.1,0.7-4.3,0.7-6.5c0-3.6-3.3-6-6.9-5.3
				c-6.3,1.2-10.3,5.6-13,10.9c-2.4,4.7-3.9,9.9-5.6,14.9c-4.7,13.6-9.3,27.3-13.9,40.9c-2.3,6.9-4.3,13.8-6.2,20.8
				c-0.9,3.3-1.2,6.7,0,10.1c1.3,3.8,5.2,6.1,9,4.7c6.6-2.3,11.3-6.7,13.1-13.6c1.9-7.3,2.5-14.8,2.3-22.3c0-0.1,0-0.1,0-0.2
				c-0.3-4.1-0.2-4.2,3.7-5.6c4.7-1.8,9.6-2.4,14.5-2.6c3.8-0.1,7.5,0,11.5,0c-0.1,0.6-0.3,1.2-0.5,1.8
				c-5.3,14.4-12.8,27.5-23.4,38.8c-5.3,5.6-10.8,10.8-17.7,14.3c-8.4,4.2-17,4.8-26,2.4c-4.3-1.2-8.4-2.7-12.1-5.3
				c-5.7-4.1-7.2-9.8-6.4-16.3c1.7-12.6,6.3-24.4,11.1-36.1c3.9-9.6,8.4-19,13.1-28.3c4.9-9.9,12-18.1,20.2-25.5
				c7.7-7,16.1-12.9,25.6-17.3c5.8-2.7,11.8-5.2,18.1-6.1c8.4-1.2,15.8,0.8,20.5,7.9c1.5,2.2,1.9,4.7,1.4,7.4
				c-1.5,7.8-3,15.6-4.6,23.3c-0.2,0.7-1,1.7-1.7,1.9c-7.5,2.5-15.3,3.6-23.2,4.2C375.8,432.1,373.1,432.3,370.3,432.6z"/>
			<path d="M390.4,386.8c6.6,0,12.3,2.4,16.1,8.2c1.5,2.2,1.9,4.7,1.4,7.4c-1.5,7.8-3,15.6-4.6,23.3c-0.2,0.7-1,1.7-1.7,1.9
				c-7.5,2.5-15.3,3.6-23.2,4.2c-2.7,0.2-5.3,0.5-8.1,0.7c1.6-4.9,3.2-9.4,4.4-13.9c0.6-2.1,0.7-4.3,0.7-6.5c0-3.1-2.5-5.4-5.7-5.4
				c-0.4,0-0.8,0-1.3,0.1c-6.3,1.2-10.3,5.6-13,10.9c-2.4,4.7-3.9,9.9-5.6,14.9c-4.7,13.6-9.3,27.3-13.9,40.9
				c-2.3,6.9-4.3,13.8-6.2,20.8c-0.9,3.3-1.2,6.7,0,10.1c1,3.1,3.7,5.1,6.7,5.1c0.7,0,1.5-0.1,2.3-0.4c6.6-2.3,11.3-6.7,13.1-13.6
				c1.9-7.3,2.5-14.8,2.3-22.3c0-0.1,0-0.1,0-0.2c-0.3-4.1-0.2-4.2,3.7-5.6c4.7-1.8,9.6-2.4,14.5-2.6c1.2,0,2.4-0.1,3.6-0.1
				c2.6,0,5.2,0.1,7.9,0.1c-0.1,0.6-0.3,1.2-0.5,1.8c-5.3,14.4-12.8,27.5-23.4,38.8c-5.3,5.6-10.8,10.8-17.7,14.3
				c-5.1,2.6-10.4,3.8-15.7,3.8c-3.4,0-6.8-0.5-10.3-1.4c-4.3-1.2-8.4-2.7-12.1-5.3c-5.7-4.1-7.2-9.8-6.4-16.3
				c1.7-12.6,6.3-24.4,11.1-36.1c3.9-9.6,8.4-19,13.1-28.3c4.9-9.9,12-18.1,20.2-25.5c7.7-7,16.1-12.9,25.6-17.3
				c5.8-2.7,11.8-5.2,18.1-6.1C387.5,387,389,386.8,390.4,386.8 M390.4,383.9L390.4,383.9c-1.6,0-3.2,0.1-4.9,0.4
				c-7,1-13.5,3.8-19,6.4c-9.2,4.3-17.8,10.1-26.3,17.8c-9.5,8.5-16.3,17.1-20.9,26.4c-4.2,8.4-9,18.4-13.1,28.5
				c-5,12.1-9.6,24.1-11.2,36.8c-1.1,8.3,1.5,14.7,7.6,19c4.4,3.2,9.3,4.7,13,5.7c3.7,1,7.5,1.5,11,1.5c5.9,0,11.6-1.4,17-4.1
				c7.5-3.7,13.3-9.4,18.6-14.9c10.4-11,18.2-24,24-39.8c0.2-0.6,0.3-1.1,0.4-1.6c0-0.2,0.1-0.3,0.1-0.5l0.9-3.6l-3.8,0
				c-1.2,0-2.4,0-3.6,0c-1.4,0-2.9,0-4.3,0c-1.4,0-2.6,0-3.7,0.1c-6.2,0.2-11.1,1.1-15.4,2.7c-5.1,1.9-6,3.2-5.6,8.5
				c0,0.1,0,0.1,0,0.2c0.2,8.4-0.5,15.2-2.2,21.5c-1.5,5.7-5.2,9.5-11.3,11.6c-0.4,0.2-0.9,0.2-1.3,0.2c-1.7,0-3.3-1.3-4-3.1
				c-0.8-2.4-0.8-5.2,0.1-8.4c2-7.4,4-14.1,6.2-20.6c4.6-13.9,9.4-27.8,13.8-40.9c0.3-1,0.7-2,1-3c1.4-4.1,2.6-7.9,4.5-11.5
				c2.8-5.4,6.3-8.5,10.9-9.3c0.2,0,0.5-0.1,0.7-0.1c0.8,0,1.6,0.3,2.1,0.8c0.4,0.4,0.7,1,0.7,1.7c0,1.9-0.1,3.9-0.6,5.7
				c-0.9,3.1-1.9,6.3-3,9.6c-0.5,1.4-0.9,2.8-1.4,4.3l-1.4,4.2l4.4-0.4c0.9-0.1,1.8-0.2,2.6-0.2c1.9-0.2,3.7-0.3,5.4-0.5
				c9.8-0.8,17.1-2.1,23.9-4.4c1.7-0.6,3.3-2.3,3.6-4.1c1.6-7.8,3.1-15.7,4.6-23.3c0.7-3.4,0-6.7-1.9-9.6
				C404.8,387.2,398.4,383.9,390.4,383.9L390.4,383.9z"/>
		</g>
		<g>
			<path class="st3" d="M748.7,406.3c4.9,0.3,9.7,0.7,14.5,1c0,4.8,0,9.4-0.1,14.2c-4.2,0-8.1,0-12-0.1c-1.6,0-1.9,0.6-2,2
				c-0.9,10-1.9,20-2.8,30c-0.6,6.6-1.2,13.1-1.7,19.7c-0.6,6.7-1.3,13.4-1.5,20.1c-0.3,8.1,3.8,13.9,11.3,16.8
				c1.1,0.4,1.5,0.9,1.3,2c-0.3,2.2-0.4,4.5-0.6,6.7c-0.1,1.1-0.6,1.8-1.7,2.2c-7.2,2.5-14.6,4.2-22.3,4.7
				c-6.9,0.5-13.6,0.2-20.1-2.2c-8.8-3.2-12.5-9.9-10.9-19.3c2.9-17.1,5.7-34.2,8.7-51.3c1.6-8.9,2.4-17.9,2.8-26.9c0-1,0-2,0-3.2
				c-2.1-0.2-4.1-0.4-6.2-0.6c0.5-3.6,0.9-7.2,1.4-10.7c0.6-3.9,0.7-3.8,4.7-3.8c5,0,5,0,5.6-4.9c0.5-4.2,1.1-8.4,1.6-12.6
				c0.2-1.2,0.3-2.2,1.8-2.7c9.2-2.9,18.4-4.3,28-2.1c1.2,0.3,1.6,0.6,1.5,1.9C749.5,393.4,749.2,399.7,748.7,406.3z"/>
			<path d="M738.9,384.2c3.2,0,6.4,0.3,9.6,1.1c1.2,0.3,1.6,0.6,1.5,1.9c-0.5,6.3-0.8,12.5-1.3,19.1c4.9,0.3,9.7,0.7,14.5,1
				c0,4.8,0,9.4-0.1,14.2c-0.9,0-1.7,0-2.6,0c-0.7,0-1.3,0-2,0c-2.5,0-5,0-7.4-0.1c-0.1,0-0.1,0-0.2,0c-1.4,0-1.8,0.6-1.9,2
				c-0.9,10-1.9,20-2.8,30c-0.6,6.6-1.2,13.1-1.7,19.7c-0.6,6.7-1.3,13.4-1.5,20.1c-0.3,8.1,3.8,13.9,11.3,16.8
				c1.1,0.4,1.5,0.9,1.3,2c-0.3,2.2-0.4,4.5-0.6,6.7c-0.1,1.1-0.6,1.8-1.7,2.2c-7.2,2.5-14.6,4.2-22.3,4.7c-1.8,0.1-3.5,0.2-5.2,0.2
				c-5.1,0-10-0.6-14.9-2.4c-8.8-3.2-12.5-9.9-10.9-19.3c2.9-17.1,5.7-34.2,8.7-51.3c1.6-8.9,2.4-17.9,2.8-26.9c0-1,0-2,0-3.2
				c-2.1-0.2-4.1-0.4-6.2-0.6c0.5-3.6,0.9-7.2,1.4-10.7c0.6-3.6,0.7-3.8,3.9-3.8c0.2,0,0.5,0,0.8,0c0.3,0,0.6,0,0.9,0
				c4.1,0,4.1-0.3,4.7-4.9c0.5-4.2,1.1-8.4,1.6-12.6c0.2-1.2,0.3-2.2,1.8-2.7C726.6,385.5,732.7,384.2,738.9,384.2 M738.9,381.3
				c-5.9,0-12.2,1.1-19.3,3.3c-3.3,1-3.7,3.8-3.8,5.1c-0.3,2.4-0.6,4.9-0.9,7.3c-0.2,1.8-0.4,3.5-0.7,5.3c-0.1,0.8-0.2,1.8-0.3,2.3
				c-0.5,0-1.2,0-1.5,0l-0.9,0l-0.8,0c-1.7,0-3.6,0-5.1,1.4c-1.2,1.2-1.4,2.7-1.8,4.9c-0.4,2.5-0.7,5-1,7.5
				c-0.1,1.1-0.3,2.2-0.4,3.3l-0.4,3l3,0.3l3.6,0.4c0,0.2,0,0.3,0,0.5c-0.4,9.4-1.3,18.1-2.7,26.5c-1.7,9.6-3.3,19.5-4.9,28.9
				c-1.2,7.3-2.5,14.9-3.8,22.4c-1.9,10.9,2.7,18.9,12.8,22.5c4.7,1.7,9.9,2.5,15.9,2.5c1.7,0,3.5-0.1,5.4-0.2
				c7.5-0.5,15.1-2.1,23-4.8c2.2-0.8,3.5-2.4,3.7-4.8c0-0.5,0.1-1,0.1-1.5c0.1-1.8,0.2-3.4,0.4-5.1c0.3-2.5-0.8-4.2-3.2-5.1
				c-6.5-2.5-9.7-7.2-9.4-14c0.2-4.9,0.6-9.8,1-14.6c0.2-1.8,0.3-3.6,0.5-5.3c0.6-7.2,1.1-13.6,1.7-19.7c0.4-4,0.8-8.1,1.1-12.1
				c0.5-5.6,1.1-11.5,1.6-17.2c2.3,0.1,4.5,0.1,6.6,0.1l1,0l1,0c0.8,0,1.7,0,2.6,0l2.9,0l0-2.9l0.1-14.2l0-2.7l-2.7-0.2l-5.3-0.4
				l-6.3-0.4c0-0.8,0.1-1.5,0.1-2.3c0.3-4.8,0.6-9.4,0.9-13.9c0.1-1.8-0.4-4.2-3.7-5C745.9,381.7,742.4,381.3,738.9,381.3
				L738.9,381.3z"/>
		</g>
	</g>
</g>
<path d="M571.7,185.2c1.5,3.6,3.9,4.6,7.7,3.4c1.4-0.4,3.3,0.9,5,1.4c-0.6,1.8-0.9,3.7-1.7,5.3c-0.7,1.4-2,2.6-1.7,3.8
	c2.8,7.1,5.5,14.3,8.6,21.2c1.5,3.4,4.3,6.3,5.9,9.7c0.9,2,0.7,4.5,1,6.8c-2.1,0.2-4.5,1.1-6.4,0.5c-4.4-1.2-8.5-3.6-12.9-4.6
	c-2.3-0.5-5.1,0.7-7.5,1.7c-5.7,2.3-8.1,1.3-11.9-3.2c-1.5-1.8-4.9-2.3-7.5-2.7c-1.7-0.3-3.7,1.3-5.4,1c-1.5-0.2-4-2.4-3.8-2.8
	c2-5-1.9-7.5-4.3-10.4c-6.1-7.5-5.1-17.7,2.9-23.5c1.2-0.9,3.2-1.3,4.7-1.1c4.7,0.6,8.7-0.6,12.9-2.7
	C561.6,187,566.5,186.5,571.7,185.2z"/>
<path d="M124.2,322.4c-1.9,0-3.3-0.3-4.4,0.1c-1,0.3-1.7,1.4-2.5,2.2c0.8,0.7,1.6,1.5,2.5,2.1c1.1,0.7,2.3,1.1,3.5,1.6
	c-0.6,1.3-1,2.9-1.9,4c-2.4,3.1-4.8,6.2-7.7,8.8c-1.4,1.2-3.9,1.1-5.9,1.5c0-2-0.1-4,0.1-5.9c0.5-3.8,4.9-6.5,3.3-10.9
	c-1.6-4.2-2.4-8.9-6.5-11.9c-3.2-2.3-3.1-6-1.2-8.7c1.8-2.6,4.7-4.9,8.4-2.5c3.7,2.3,8.6,2.8,10.6,7.5c0.2,0.6,1,1.4,0.9,1.5
	C119.1,315.5,124,318.6,124.2,322.4z"/>
</svg>
